<svg width="203" height="507" viewBox="0 0 203 507" fill="none" xmlns="http://www.w3.org/2000/svg">
<g filter="url(#filter0_f_141_54)">
<path d="M70.5119 99.0585L74.0226 196.884L52.3448 163.454L67.9103 258.451L50.5397 273.213L68.3752 325.692L74.9129 325.66L80.7031 325.631L101.318 325.53L144.246 325.319L132.485 299.846L152.083 222.728L123.791 237.321L145.498 162.996L121.089 192.854L141.154 111.586L116.821 163.137L120.102 50.1514L92.724 152.763L70.5119 99.0585Z" fill="white" fill-opacity="0.34"/>
</g>
<path d="M120 344.5V324" stroke="white" stroke-width="2"/>
<path d="M194.145 343.059C194.437 345.618 192.947 348.474 189.476 351.488C186.034 354.478 180.833 357.45 174.213 360.22C160.985 365.753 142.308 370.388 121.325 372.783C100.342 375.178 81.1014 374.872 66.9667 372.462C59.8925 371.256 54.1555 369.532 50.1285 367.395C46.0673 365.24 43.9719 362.794 43.6798 360.235C43.3877 357.676 44.8779 354.821 48.349 351.806C51.7908 348.816 56.9917 345.844 63.6121 343.075C76.8401 337.541 95.517 332.907 116.5 330.511C137.483 328.116 156.724 328.422 170.858 330.832C177.933 332.039 183.67 333.762 187.697 335.899C191.758 338.054 193.853 340.501 194.145 343.059Z" stroke="white" stroke-width="2"/>
<path d="M194 343V343C196.305 347.61 197.557 352.673 197.667 357.825L200 467V506.5M45 506.5V500L40.4046 377.763C40.1378 370.667 41.3627 363.594 44 357V357" stroke="white" stroke-width="2"/>
<path d="M131.035 319.925L130.167 321.085C125.109 327.842 115.192 328.433 109.369 322.324C106.89 319.725 103.486 318.207 99.896 318.101L99.5849 318.092C95.1175 317.96 90.9646 315.761 88.344 312.141L82.8301 304.523C79.3398 299.701 77.197 294.037 76.6221 288.112L75.2658 274.133C74.4278 265.496 75.0369 256.78 77.068 248.343L82.5 225.781L85.1414 214.428C86.6981 207.737 86.9021 200.803 85.7414 194.032C85.248 191.154 85 188.24 85 185.32V168.204C85 164.38 85.2811 160.562 85.8411 156.78L90 128.69L91.9861 109.178C92.3254 105.844 92.0106 102.477 91.0592 99.2638L90.043 95.832C90.0145 95.7357 90 95.6358 90 95.5354C90 94.6029 91.1289 94.1377 91.7859 94.7995L97.3246 100.379C97.7694 100.827 98.1096 101.368 98.321 101.963L104.234 118.602C106.073 123.778 107.36 129.133 108.074 134.579L115 187.405L120.5 223.862L127 270.68L132.92 294.696C133.637 297.607 134 300.594 134 303.593V311.016C134 314.228 132.96 317.354 131.035 319.925Z" stroke="white" stroke-width="2"/>
<defs>
<filter id="filter0_f_141_54" x="0.539551" y="0.151367" width="201.543" height="375.54" filterUnits="userSpaceOnUse" color-interpolation-filters="sRGB">
<feFlood flood-opacity="0" result="BackgroundImageFix"/>
<feBlend mode="normal" in="SourceGraphic" in2="BackgroundImageFix" result="shape"/>
<feGaussianBlur stdDeviation="25" result="effect1_foregroundBlur_141_54"/>
</filter>
</defs>
</svg>
