<svg width="100" height="180" viewBox="0 0 100 180" fill="none" xmlns="http://www.w3.org/2000/svg">
<path d="M93.5 73L63 74.5L66 174.5L58.5 178.5L32.5 176L34.5 76.5L28 70.5L1 67V47.5L4.5 43.5L31 46L35.5 43.5L34.5 5.5L39 2L63 3.5V43.5L68 47.5L97.5 50.5L97 51V70.5L93.5 73Z" fill="black"/>
<path d="M93.5 73L63 74.5L66 174.5L58.5 178.5L32.5 176L34.5 76.5L28 70.5L1 67V47.5L4.5 43.5L31 46L35.5 43.5L34.5 5.5L39 2L63 3.5V43.5L68 47.5L97.5 50.5L97 51V70.5L93.5 73Z" fill="black"/>
<path d="M34.5 5.5L59 7V46L66 51L93.5 53M34.5 5.5L35.5 43.5L31 46L4.5 43.5L1 47.5V67L28 70.5L34.5 76.5L32.5 176L58.5 178.5M34.5 5.5L39 2L63 3.5V43.5L68 47.5L97.5 50.5L97 51M93.5 53L97 51M93.5 53V73M97 51V70.5L93.5 73M93.5 73L63 74.5M63 74.5L66 174.5L58.5 178.5M63 74.5L56.5 78L58.5 178.5" stroke="white" stroke-opacity="0.4" stroke-width="2"/>
</svg>
