<svg width="322" height="524" viewBox="0 0 322 524" fill="none" xmlns="http://www.w3.org/2000/svg">
<path d="M197.671 3.1685L192.896 3.14046L186.262 2.23572C180.938 1.50958 175.532 1.63264 170.246 2.60029C160.047 4.46754 150.663 9.41073 143.354 16.7661L136.066 24.1013C125.485 34.7495 117.959 48.0444 114.275 62.5962L110.703 76.7021C108.132 86.8545 106.802 97.2811 106.74 107.754L106.229 194.738L107.443 204.93C107.818 208.078 106.382 211.167 103.733 212.91C102.779 213.538 101.706 213.964 100.581 214.161L90.3175 215.965C89.0024 216.196 87.8727 217.033 87.2685 218.224C86.6542 219.434 85.498 220.277 84.1579 220.493L82.3398 220.785C78.1368 221.46 74.1605 218.666 73.371 214.483L65.7735 174.233C65.5951 173.288 65.2159 172.392 64.6615 171.607C63.231 169.579 60.7993 168.506 58.3374 168.815L17.3804 173.959C15.1679 174.236 13.2888 175.711 12.4935 177.795C12.0679 178.909 11.9822 180.125 12.2474 181.289L16.2054 198.655C17.6319 204.915 14.2703 211.277 8.29541 213.626L5.56588 214.699C3.74209 215.416 2.32647 216.9 1.69575 218.755C1.08829 220.542 1.26729 222.503 2.18828 224.15L10.0127 238.146C10.9853 239.886 11.6743 241.769 12.0537 243.726L12.6195 246.643C13.085 249.043 12.6985 251.53 11.5266 253.676C9.83803 256.768 9.81213 260.5 11.4576 263.615L17.0887 274.274C17.8902 275.791 18.572 277.368 19.1277 278.992L25.9309 298.865C27.1065 302.298 27.6959 305.905 27.6746 309.535L27.6716 310.052C27.6478 314.094 28.4455 318.098 30.0162 321.823C30.9442 324.023 31.6047 326.327 31.9835 328.685L33.2608 336.634L36.2613 369.201L36.1705 384.673C36.1337 390.931 36.8153 397.173 38.2018 403.275C39.7088 409.908 42.0373 416.328 45.1335 422.384L49.3068 430.548L53.5739 438.934C57.3514 446.358 63.5078 452.302 71.0599 455.816L74.0577 457.211C74.4735 457.405 74.8673 457.642 75.2326 457.919C76.5142 458.892 77.3846 460.31 77.6719 461.894L78.6821 467.46C78.9148 468.743 78.2261 470.015 77.0251 470.521C75.6647 471.094 74.989 472.63 75.4854 474.021L76.5938 477.125C76.9217 478.043 77.6509 478.761 78.574 479.075L79.5767 479.415C81.6852 480.132 82.047 482.96 80.1868 484.184C79.4393 484.676 78.9872 485.509 78.982 486.404L78.9607 490.018C78.9507 491.727 79.4054 493.407 80.2763 494.877L80.8417 495.832C82.0825 497.928 82.7304 500.321 82.7161 502.756L82.6368 516.266C82.6202 519.086 84.8927 521.385 87.7124 521.402L297.047 522.631C299.539 522.646 301.278 520.167 300.417 517.829C300.347 517.639 300.262 517.457 300.161 517.282L297.93 513.406C296.697 511.264 296.891 508.587 298.42 506.645C299.654 505.078 300.036 503.005 299.443 501.101L296.766 492.515C296.26 490.893 295.577 489.333 294.73 487.861L292.259 483.568C291.815 482.797 291.584 481.922 291.589 481.032L291.598 479.583C291.61 477.609 293.219 476.018 295.194 476.03C295.78 476.033 296.359 475.892 296.878 475.619L299.814 474.076C303.591 472.09 306.474 468.744 307.88 464.714L312.262 452.147C313.506 448.582 314.346 444.888 314.768 441.136L317.501 416.805L320.388 360.02L318.555 287.791C318.395 281.482 317.774 275.193 316.698 268.975L311.919 241.368C311.25 237.5 309.831 233.8 307.743 230.476C304.061 224.616 298.474 220.202 291.921 217.975L285.018 215.629C283.659 215.167 282.455 214.335 281.542 213.227C280.396 211.836 278.8 210.889 277.031 210.551L263.442 207.952C262.863 207.842 262.331 207.558 261.916 207.138C261.139 206.353 260.873 205.196 261.229 204.15L266.067 189.918C268.028 184.15 267.998 177.891 265.982 172.142L264.913 169.091C263.524 165.132 262.827 160.963 262.852 156.768L262.98 135.027L263.024 127.505C263.067 120.194 262.491 112.892 261.303 105.678L260.672 101.848C259.409 94.1822 257.46 86.6459 254.847 79.3297L244.064 49.1325C242.151 43.7739 239.777 38.591 236.969 33.642L230.651 22.5057C228.017 17.8635 224.44 13.8252 220.149 10.6513C213.639 5.83654 205.767 3.21605 197.671 3.1685Z" fill="black" stroke="white" stroke-width="2.59209"/>
</svg>
