<svg width="165" height="207" viewBox="0 0 165 207" fill="none" xmlns="http://www.w3.org/2000/svg">
<path d="M93.4377 3.72499L94.6804 4.92199C96.6983 6.86573 97.5294 9.73704 96.8623 12.4609C96.4512 14.1401 96.6036 15.9072 97.2963 17.4898L99.8997 23.4381C101.4 26.867 102.173 30.5707 102.169 34.3153L102.167 35.6256L106.752 36.8197C107.665 37.0575 108.605 37.1778 109.549 37.1777C111.411 37.1775 113.242 37.6455 114.874 38.5385L115.822 39.0577C116.367 39.3558 116.944 39.591 117.542 39.7587C120.404 40.5613 122.605 42.85 123.295 45.7405L124.421 50.4546C124.899 52.455 125.747 54.3476 126.923 56.0344L131.096 62.0223L161.184 115.225C162.988 118.415 162.407 122.423 159.77 124.975C158.267 126.429 156.258 127.243 154.167 127.243L141.801 127.244C139.734 127.245 137.676 126.987 135.673 126.478L123.734 123.441C121.688 122.92 119.524 123.629 118.181 125.26C117.144 126.518 115.6 127.247 113.971 127.247L113.812 127.247C110.617 127.248 108.024 129.838 108.02 133.033L107.965 182.077C107.963 183.814 108.297 185.534 108.949 187.143C112.536 195.995 106.012 205.671 96.4571 205.672L42.7543 205.678C33.1264 205.679 25.3302 197.875 25.341 188.247L25.3448 184.853C25.3469 183.007 24.7077 181.219 23.5365 179.793C23.0457 179.196 22.4704 178.673 21.8287 178.242L7.72688 168.764C6.99593 168.272 6.33189 167.688 5.7514 167.026C4.12184 165.167 3.22482 162.778 3.22759 160.304L3.25176 138.77C3.25275 137.89 2.79486 137.075 2.04385 136.618C1.22158 136.118 0.756992 135.193 0.846943 134.234L3.28603 108.236L5.22431 97.9166C6.2007 92.7183 8.49383 87.8556 11.8845 83.7935C13.828 81.4651 16.1031 79.4348 18.6366 77.7676L23.0951 74.8338C27.741 71.7767 33.0285 69.8323 38.5458 69.1521L42.6913 68.641C44.8195 68.3786 46.8727 67.686 48.7257 66.6053L50.5188 65.5596C54.2663 63.3742 56.5735 59.3644 56.5784 55.0285L56.5817 52.0968C56.584 50.0442 55.6055 48.1153 53.9485 46.9061C52.8947 46.137 52.1006 45.0649 51.6718 43.8325L49.3588 37.1842L47.5442 28.6616C46.5238 23.8692 47.1317 18.8715 49.2716 14.4596C51.2877 10.3029 54.5588 6.88347 58.6222 4.6849L60.0101 3.93391C63.9468 1.80391 68.3511 0.688215 72.8248 0.687728L85.8989 0.686306C88.7114 0.686 91.4133 1.77508 93.4377 3.72499Z" fill="black"/>
<path d="M134.025 108.222L132.545 99.0984M132.545 99.0984L132.378 98.0666C131.508 92.7081 129.772 87.528 127.236 82.7298L125.115 78.717L119.311 70.5027C117.543 68.0008 115.143 66.013 112.355 64.742V64.742L105.97 62.025L98.3779 58.0162C98.0972 57.868 97.7497 57.9561 97.573 58.2202L94.0427 63.4991C92.7492 65.4333 90.4311 66.4155 88.1438 65.9986L85.2231 65.4663C83.1638 65.091 81.2653 66.6733 81.2629 68.7671L81.2619 69.697C81.2604 71.0362 82.3448 72.1217 83.6839 72.1215V72.1215C84.05 72.1215 84.4113 72.2043 84.7406 72.3639L94.4802 77.0824C96.7169 78.166 99.1242 78.8554 101.596 79.1203L102.796 79.2488C108.803 79.8925 114.154 83.3261 117.239 88.5175V88.5175C119.303 91.9896 122.41 94.7208 126.119 96.3226L132.545 99.0984ZM49.3588 37.1842L47.5442 28.6616C46.5238 23.8692 47.1317 18.8715 49.2716 14.4596V14.4596C51.2877 10.3029 54.5588 6.88347 58.6222 4.6849L60.0101 3.93391C63.9468 1.80391 68.3511 0.688215 72.8248 0.687728L85.8989 0.686306C88.7114 0.686 91.4133 1.77508 93.4376 3.72499L94.6804 4.92199C96.6983 6.86573 97.5294 9.73704 96.8623 12.4609V12.4609C96.4512 14.1401 96.6036 15.9072 97.2963 17.4898L99.8997 23.4381C101.4 26.867 102.173 30.5707 102.169 34.3153L102.167 35.6256L106.752 36.8197C107.665 37.0575 108.605 37.1778 109.549 37.1777V37.1777C111.411 37.1775 113.242 37.6455 114.874 38.5385L115.822 39.0577C116.367 39.3558 116.944 39.591 117.542 39.7587V39.7587C120.404 40.5613 122.605 42.85 123.295 45.7405L124.421 50.4546C124.899 52.455 125.747 54.3476 126.923 56.0344L131.096 62.0223L161.184 115.225C162.988 118.415 162.407 122.423 159.77 124.975V124.975C158.267 126.429 156.258 127.243 154.167 127.243L141.801 127.244C139.734 127.245 137.676 126.987 135.673 126.478L123.734 123.441C121.688 122.92 119.524 123.629 118.181 125.26V125.26C117.144 126.518 115.6 127.247 113.971 127.247L113.812 127.247C110.617 127.248 108.024 129.838 108.02 133.033L107.965 182.077C107.963 183.814 108.297 185.534 108.949 187.143V187.143C112.536 195.995 106.012 205.671 96.4571 205.672L42.7543 205.678C33.1264 205.679 25.3302 197.875 25.341 188.247L25.3448 184.853C25.3469 183.007 24.7077 181.219 23.5365 179.793V179.793C23.0457 179.196 22.4704 178.673 21.8287 178.242L7.72688 168.764C6.99593 168.272 6.33189 167.688 5.7514 167.026V167.026C4.12184 165.167 3.22482 162.778 3.22759 160.304L3.25176 138.77C3.25275 137.89 2.79486 137.075 2.04385 136.618V136.618C1.22158 136.118 0.756992 135.193 0.846943 134.234L3.28603 108.236L5.22431 97.9166C6.2007 92.7183 8.49383 87.8556 11.8845 83.7935V83.7935C13.828 81.4651 16.1031 79.4348 18.6366 77.7676L23.0951 74.8338C27.741 71.7767 33.0285 69.8323 38.5458 69.1521L42.6913 68.641C44.8196 68.3786 46.8727 67.686 48.7257 66.6053L50.5189 65.5596C54.2663 63.3742 56.5735 59.3644 56.5784 55.0285L56.5817 52.0968C56.584 50.0442 55.6055 48.1153 53.9485 46.9061V46.9061C52.8947 46.137 52.1006 45.0649 51.6718 43.8325L49.3588 37.1842Z" stroke="white"/>
<path d="M111.077 63.966L97.882 58.1439L94.8918 62.68C94.3327 63.528 93.5924 64.2414 92.7244 64.7687C91.9077 65.2648 90.9965 65.5848 90.0494 65.7083L89.5289 65.7761C88.848 65.8649 88.1594 65.8782 87.4757 65.816L85.4827 65.6345C84.6796 65.5613 83.874 65.748 83.1843 66.1669L83.1326 66.1983C82.2173 66.7543 81.593 67.6851 81.4261 68.7425L81.3626 69.1452C81.2958 69.5681 81.3515 70.001 81.523 70.3929C81.8796 71.2076 82.6845 71.7338 83.5743 71.7337L83.6618 71.7337C84.0412 71.7336 84.415 71.8245 84.7519 71.9986L92.4179 75.9603C95.4573 77.531 98.7335 78.5943 102.117 79.1081L106.607 80.185C108.975 80.753 111.181 81.8565 113.055 83.4108C114.269 84.4181 115.327 85.6006 116.193 86.9193L116.691 87.6769C118.03 89.7137 119.697 91.5134 121.626 93.0026L122.892 93.9794C123.792 94.6742 124.745 95.2975 125.743 95.8434L130.366 98.3731C130.538 98.4673 130.731 98.5167 130.927 98.5166C131.658 98.5166 132.211 97.8542 132.081 97.1352L130.84 90.3066C130.706 89.573 130.456 88.8658 130.098 88.2119L125.114 79.1056L121.835 73.9348C120.905 72.4678 119.843 71.0888 118.662 69.8151C116.737 67.7387 114.514 65.9605 112.064 64.539L111.077 63.966Z" fill="black" stroke="white"/>
</svg>
