<svg width="131" height="260" viewBox="0 0 131 260" fill="none" xmlns="http://www.w3.org/2000/svg">
<g clip-path="url(#clip0_164_62)">
<g filter="url(#filter0_f_164_62)">
<path d="M48.7078 60.4246L50.61 105.356L38.8656 90.0013L47.2986 133.634L37.8876 140.414L47.5504 164.517L51.0923 164.502L54.229 164.489L65.3979 164.443L88.6546 164.346L82.2829 152.646L92.9006 117.226L77.5727 123.928L89.3329 89.7912L76.1089 103.505L86.9796 66.1784L73.7965 89.8559L75.5744 37.9617L60.7417 85.091L48.7078 60.4246Z" fill="white" fill-opacity="0.47"/>
</g>
<path d="M106.347 171.511C106.493 172.79 105.752 174.271 103.89 175.887C102.05 177.484 99.2551 179.083 95.6787 180.577C88.5356 183.563 78.4378 186.067 67.0842 187.362C55.7307 188.657 45.3277 188.49 37.6947 187.19C33.8733 186.539 30.7902 185.611 28.6369 184.469C26.4578 183.314 25.4019 182.037 25.2558 180.759C25.1097 179.481 25.8505 177.999 27.713 176.383C29.5535 174.786 32.3479 173.188 35.9243 171.693C43.0672 168.708 53.165 166.203 64.5188 164.908C75.8723 163.613 86.2753 163.78 93.908 165.08C97.7295 165.731 100.813 166.659 102.966 167.801C105.145 168.956 106.201 170.233 106.347 171.511Z" stroke="white" stroke-width="5.18418"/>
<path d="M106.452 171.39C107.7 173.888 108.378 176.632 108.438 179.423L109.702 238.593V260M25.7569 260V256.477L23.2681 190.229C23.1236 186.384 23.7869 182.551 25.2153 178.978" stroke="white" stroke-width="5.18418"/>
<path d="M78.9305 147.46L78.7823 150.068C78.6714 152.024 77.8382 153.882 76.4587 155.274C73.35 158.411 68.2553 158.457 65.1236 155.343C63.7867 154.014 62.0219 153.2 60.1418 153.046L59.8716 153.024C57.4039 152.823 55.1381 151.583 53.6388 149.615L51.4768 146.777C49.4581 144.127 48.2774 140.935 48.086 137.611L47.7966 132.576C47.5468 128.239 48.1513 123.896 49.5751 119.791L52.9625 110.027L54.7008 104.868C55.7143 101.861 56.0064 98.6572 55.5533 95.5165C55.3607 94.1804 55.3024 92.8288 55.3788 91.4813L55.6854 86.0763C55.8783 82.68 56.3653 79.3067 57.1405 75.9941L59.5761 65.5894L61.1589 56.71C61.4337 55.1687 61.3517 53.5848 60.919 52.0796L60.4627 50.4922C60.4461 50.4351 60.4397 50.3756 60.4429 50.3161C60.4686 49.8649 61.0115 49.651 61.3386 49.9634L64.2381 52.7331C64.5071 52.9902 64.7122 53.3067 64.8368 53.6577L67.4419 61.0009C68.3968 63.6927 69.0197 66.4912 69.2963 69.3337L71.6362 93.3724L73.6748 110.314L75.9864 132.054L78.5722 143.261C78.89 144.636 79.0104 146.05 78.9305 147.46Z" stroke="white" stroke-width="5.18418"/>
</g>
<defs>
<filter id="filter0_f_164_62" x="-91.7168" y="-91.6427" width="314.222" height="385.764" filterUnits="userSpaceOnUse" color-interpolation-filters="sRGB">
<feFlood flood-opacity="0" result="BackgroundImageFix"/>
<feBlend mode="normal" in="SourceGraphic" in2="BackgroundImageFix" result="shape"/>
<feGaussianBlur stdDeviation="64.8022" result="effect1_foregroundBlur_164_62"/>
</filter>
<clipPath id="clip0_164_62">
<rect width="131" height="260" fill="white"/>
</clipPath>
</defs>
</svg>
