<svg width="1853" height="39" viewBox="0 0 1853 39" fill="none" xmlns="http://www.w3.org/2000/svg">
<path d="M1852.2 22.8964L1768.46 37.0838C1765.56 37.5747 1762.6 37.5137 1759.72 36.9039L1656.69 15.0529C1653.99 14.4802 1651.21 14.3912 1648.48 14.7903L1565.68 26.8864C1564.02 27.1288 1562.34 27.1916 1560.67 27.0737L1379.71 14.3179C1378.47 14.2308 1377.23 14.2423 1376 14.3525L1233.85 27.0322C1232.22 27.1777 1230.58 27.151 1228.95 26.9526L1114.93 13.0351C1110.02 12.435 1105.68 16.272 1105.68 21.2255V21.2255C1105.68 26.2596 1101.21 30.1204 1096.23 29.3893L975.63 11.6862C968.548 10.6466 961.38 12.916 956.187 17.8423L954.603 19.3447C949.348 24.3298 942.075 26.5908 934.919 25.4641L786.191 2.04528C784.052 1.70846 781.876 1.6711 779.727 1.93427L513.685 34.5088C509.261 35.0505 504.773 34.3133 500.755 32.3843L450.501 8.2625C445.897 6.05239 440.694 5.41436 435.692 6.44635L300.413 34.3565C297.274 35.0042 294.035 34.998 290.899 34.3384L164.578 7.7751C161.278 7.08113 157.867 7.11089 154.58 7.86232L35.0903 35.1742C27.8005 36.8404 20.1538 34.9111 14.527 29.986L1.45215 18.5417" stroke="#919191" stroke-width="2.59209"/>
</svg>
