<svg width="937" height="727" viewBox="0 0 937 727" fill="none" xmlns="http://www.w3.org/2000/svg">
<path d="M125.751 723.6L76.1089 629.922V618.663L841.496 520.031L920.021 366.903L841.496 209.272L797.637 189.455L748.53 328.171L55.3496 611.907L3 434.459L540.937 10.206L678.129 3L801.783 177.746L850.522 199.364L933.559 376.811L854.132 532.641L784.634 663.25L125.751 723.6Z" fill="#282828"/>
<path d="M76.1089 607.403V618.663M76.1089 629.922L125.751 723.6L784.634 663.25L854.132 532.641M76.1089 629.922L854.132 532.641M76.1089 629.922V618.663M854.132 532.641L933.559 376.811L850.522 199.364L801.783 177.746M801.783 177.746L678.129 3L540.937 10.206L3 434.459L55.3496 611.907L748.53 328.171L797.637 189.455M801.783 177.746L797.637 189.455M76.1089 618.663L841.496 520.031L920.021 366.903L841.496 209.272M841.496 209.272L797.637 189.455M841.496 209.272L825.25 294.843" stroke="white" stroke-width="5.18418"/>
<path d="M773.165 275.168L779.878 275.775C795.012 277.142 809.499 282.562 821.814 291.464V291.464C829.114 296.741 835.524 303.149 840.801 310.448L842.383 312.635C849.813 322.91 855.25 334.488 858.41 346.768L859.306 350.248C862.131 361.224 863.137 372.59 862.284 383.892L861.604 392.906C861.109 399.466 859.991 405.963 858.265 412.311L856.846 417.528C853.539 429.691 847.489 440.935 839.16 450.396L838.111 451.587C826.497 464.78 810.765 473.66 793.468 476.786V476.786C772.425 480.589 750.744 475.579 733.502 462.93L726.842 458.044C723.987 455.949 721.444 453.459 719.289 450.649L711.028 439.871C709.165 437.441 706.277 436.016 703.215 436.016V436.016C697.524 436.016 693.019 440.826 693.391 446.505L695.415 477.351L693.581 504.092C693.009 512.422 689.896 520.376 684.661 526.881V526.881C678.208 534.898 668.963 540.181 658.779 541.669L588.391 551.958C584.837 552.477 581.363 550.609 579.836 547.358V547.358C577.812 543.047 572.538 541.383 568.407 543.752L556.141 550.786C553.784 552.138 551.189 553.023 548.497 553.394L138.264 609.93C129.79 611.098 122.235 604.514 122.235 595.959V595.959C122.235 592.491 123.514 589.144 125.826 586.558L126.019 586.342C128.253 583.845 131.264 582.175 134.566 581.605L141.856 580.344C146.692 579.509 151.413 582.326 152.974 586.979V586.979M152.974 586.979L194.561 573.5L394.36 507.004L152.974 586.979ZM688.183 358.737V375.81M688.183 375.81L701.744 402.768M688.183 375.81V375.81C683.602 379.351 677.062 378.739 673.218 374.409L666.485 366.824" stroke="white" stroke-width="5.18418"/>
<path d="M648.43 481.003L625.13 507.314C624.708 507.791 624.32 508.297 623.97 508.83V508.83C617.702 518.373 603.116 516.111 600.033 505.118L595.798 490.018C595.294 488.221 595.038 486.363 595.038 484.496V477.439C595.038 468.818 598.723 460.607 605.164 454.877L605.858 454.259C611.858 448.921 615.29 441.274 615.29 433.243V418.743C615.29 416.078 613.677 413.678 611.209 412.672L607.459 411.143C605.759 410.449 603.838 411.417 603.384 413.196V413.196C602.565 416.401 597.934 416.158 597.456 412.884L595.068 396.526C595.048 396.387 595.038 396.247 595.038 396.106V396.106C595.038 394.049 592.961 392.643 591.051 393.406L564.815 403.886C555.941 407.43 550.361 416.289 550.996 425.824L552.419 447.17C552.601 449.901 553 452.613 553.614 455.28L560.977 487.309L573.865 539.562" stroke="white" stroke-width="5.18418"/>
<path d="M777.308 306.276C778.489 306.145 777.916 312.651 777.749 313.842C776.906 319.839 773.749 326.265 771.637 332C770.526 335.017 768.591 338.41 768.234 341.584C767.832 345.158 767.667 337.864 767.667 337.044" stroke="white" stroke-width="7.77626" stroke-linecap="round"/>
<path d="M780.624 384.037C784.849 384.037 789.639 387.196 793.158 389.064C795.35 390.228 797.665 391.143 799.883 392.264C802.235 393.451 803.85 395.645 805.936 397.177C807.796 398.542 808.875 401.094 810.339 402.804C810.75 403.285 812.65 404.239 813.334 404.604C814.815 405.394 814.19 403.228 814.19 402.033" stroke="white" stroke-width="7.77626" stroke-linecap="round"/>
<path d="M715.824 364.018C716.013 362.645 724.411 363.536 725.825 364.25C730.883 366.808 730.542 373.374 732.194 377.67C733.436 380.9 734.48 384.678 735.188 388.018C735.595 389.938 737.5 394.287 735.984 395.989C735.237 396.828 727.054 406.159 725.124 404.597C724.512 404.103 724.996 401.238 724.996 400.54" stroke="white" stroke-width="7.77626" stroke-linecap="round"/>
<path d="M773.387 392.726C773.071 389.989 768.309 394.258 767.689 394.45C765.586 395.102 764.472 398.051 765.409 400.339C766.24 402.366 766.738 404.206 767.989 405.902C768.492 406.585 773.496 407.366 774.466 407.366C778.159 407.366 786.107 407.118 785.802 401.51C785.779 401.087 780.554 399.566 779.864 398.257C779.377 397.332 778.175 396.584 777.585 395.784C776.908 394.866 776.708 393.738 776.086 392.726" stroke="white" stroke-width="7.77626" stroke-linecap="round"/>
<path d="M752.247 335.634C750.114 335.908 748.285 339.287 747.094 341.058C746.294 342.249 748.631 344.838 749.177 345.912C751.593 350.664 754.49 344.848 756.688 343.501C757.298 343.128 757.932 339.018 758.141 338.171C758.461 336.876 759.022 333.971 759.758 332.905C760.66 331.602 756.633 332.426 755.948 332.778C754.089 333.734 753.407 335.819 751.754 336.776" stroke="white" stroke-width="7.77626" stroke-linecap="round"/>
<path d="M647.979 373.667L658.799 407.966L617.325 422.917" stroke="white" stroke-width="5.18418"/>
<circle cx="643.247" cy="402.181" r="5.18417" fill="white"/>
<path d="M142.955 366.01C143.901 365.302 144.728 365.421 145.436 366.366C146.144 367.312 146.025 368.139 145.08 368.847C144.134 369.555 143.307 369.436 142.599 368.491C141.891 367.545 142.01 366.719 142.955 366.01ZM127.861 377.316C128.807 376.607 129.633 376.726 130.342 377.672C131.05 378.617 130.931 379.444 129.986 380.152C129.04 380.86 128.213 380.742 127.505 379.796C126.797 378.851 126.916 378.024 127.861 377.316ZM145.778 369.779C146.723 369.071 147.55 369.189 148.258 370.135C148.966 371.08 148.848 371.907 147.902 372.615C146.957 373.324 146.13 373.205 145.422 372.259C144.714 371.314 144.832 370.487 145.778 369.779ZM142.009 372.601C142.955 371.893 143.782 372.012 144.49 372.957C145.198 373.903 145.079 374.73 144.134 375.438C143.188 376.146 142.362 376.027 141.653 375.082C140.945 374.136 141.064 373.31 142.009 372.601ZM130.684 381.084C131.629 380.376 132.456 380.495 133.164 381.44C133.872 382.386 133.754 383.212 132.808 383.921C131.863 384.629 131.036 384.51 130.328 383.565C129.619 382.619 129.738 381.792 130.684 381.084ZM148.6 373.547C149.546 372.839 150.373 372.958 151.081 373.903C151.789 374.849 151.67 375.676 150.725 376.384C149.779 377.092 148.952 376.973 148.244 376.028C147.536 375.082 147.655 374.256 148.6 373.547ZM141.063 379.192C142.009 378.484 142.836 378.603 143.544 379.548C144.252 380.494 144.133 381.321 143.188 382.029C142.242 382.737 141.416 382.618 140.707 381.673C139.999 380.727 140.118 379.901 141.063 379.192ZM133.506 384.853C134.452 384.144 135.278 384.263 135.987 385.209C136.695 386.154 136.576 386.981 135.631 387.689C134.685 388.397 133.858 388.279 133.15 387.333C132.442 386.388 132.561 385.561 133.506 384.853ZM151.423 377.316C152.368 376.608 153.195 376.726 153.903 377.672C154.611 378.617 154.493 379.444 153.547 380.152C152.602 380.861 151.775 380.742 151.067 379.796C150.359 378.851 150.477 378.024 151.423 377.316ZM140.117 385.783C141.049 385.085 141.869 385.209 142.578 386.155C143.286 387.1 143.174 387.922 142.242 388.62C141.296 389.328 140.47 389.209 139.761 388.264C139.053 387.318 139.172 386.492 140.117 385.783ZM136.329 388.621C137.274 387.913 138.101 388.032 138.809 388.977C139.517 389.923 139.399 390.749 138.453 391.458C137.508 392.166 136.681 392.047 135.973 391.102C135.264 390.156 135.383 389.329 136.329 388.621ZM154.245 381.084C155.191 380.376 156.018 380.495 156.726 381.44C157.434 382.386 157.315 383.213 156.37 383.921C155.424 384.629 154.597 384.51 153.889 383.565C153.181 382.619 153.3 381.793 154.245 381.084ZM139.151 392.39C140.097 391.681 140.923 391.8 141.632 392.746C142.34 393.691 142.221 394.518 141.276 395.226C140.33 395.934 139.503 395.816 138.795 394.87C138.087 393.925 138.206 393.098 139.151 392.39ZM202.343 345.061C203.288 344.353 204.115 344.471 204.823 345.417C205.531 346.362 205.412 347.189 204.467 347.897C203.521 348.606 202.695 348.487 201.986 347.541C201.278 346.596 201.397 345.769 202.343 345.061ZM199.52 341.292C200.466 340.584 201.292 340.703 202 341.648C202.709 342.594 202.59 343.421 201.644 344.129C200.699 344.837 199.872 344.718 199.164 343.773C198.456 342.827 198.575 342.001 199.52 341.292ZM196.698 337.524C197.643 336.816 198.47 336.934 199.178 337.88C199.886 338.825 199.767 339.652 198.822 340.36C197.876 341.069 197.05 340.95 196.342 340.004C195.633 339.059 195.752 338.232 196.698 337.524ZM193.875 333.755C194.821 333.047 195.647 333.166 196.356 334.111C197.064 335.057 196.945 335.884 195.999 336.592C195.054 337.3 194.227 337.181 193.519 336.236C192.811 335.29 192.93 334.464 193.875 333.755ZM183.495 335.647C184.441 334.939 185.268 335.058 185.976 336.003C186.684 336.949 186.565 337.775 185.62 338.484C184.674 339.192 183.847 339.073 183.139 338.128C182.431 337.182 182.55 336.355 183.495 335.647ZM187.284 332.809C188.216 332.111 189.036 332.235 189.744 333.181C190.452 334.126 190.341 334.948 189.409 335.646C188.463 336.354 187.636 336.235 186.928 335.29C186.22 334.344 186.339 333.518 187.284 332.809ZM191.053 329.987C191.998 329.279 192.825 329.397 193.533 330.343C194.241 331.288 194.122 332.115 193.177 332.823C192.231 333.532 191.405 333.413 190.697 332.467C189.988 331.522 190.107 330.695 191.053 329.987ZM194.821 327.164C195.767 326.456 196.593 326.575 197.301 327.52C198.01 328.466 197.891 329.293 196.945 330.001C196 330.709 195.173 330.59 194.465 329.645C193.757 328.699 193.876 327.873 194.821 327.164ZM198.59 324.342C199.535 323.634 200.362 323.752 201.07 324.698C201.778 325.643 201.659 326.47 200.714 327.178C199.768 327.887 198.942 327.768 198.233 326.822C197.525 325.877 197.644 325.05 198.59 324.342ZM237.697 318.582C238.642 317.873 239.469 317.992 240.177 318.938C240.885 319.883 240.767 320.71 239.821 321.418C238.876 322.126 238.049 322.008 237.341 321.062C236.632 320.117 236.751 319.29 237.697 318.582ZM238.65 323.782C239.595 323.073 240.417 323.185 241.115 324.117C241.823 325.063 241.705 325.89 240.759 326.598C239.814 327.306 238.987 327.187 238.279 326.242C237.581 325.31 237.704 324.49 238.65 323.782ZM234.882 326.604C235.827 325.896 236.649 326.008 237.347 326.94C238.055 327.885 237.936 328.712 236.991 329.42C236.045 330.129 235.218 330.01 234.51 329.064C233.812 328.132 233.936 327.312 234.882 326.604ZM231.113 329.427C232.045 328.729 232.86 328.846 233.558 329.778C234.266 330.723 234.154 331.545 233.222 332.243C232.277 332.951 231.45 332.832 230.742 331.887C230.044 330.955 230.168 330.135 231.113 329.427ZM227.345 332.249C228.277 331.551 229.092 331.668 229.79 332.6C230.498 333.546 230.386 334.367 229.454 335.065C228.508 335.773 227.682 335.655 226.973 334.709C226.275 333.777 226.399 332.957 227.345 332.249ZM223.569 323.281C224.501 322.583 225.321 322.706 226.029 323.652C226.737 324.597 226.625 325.419 225.693 326.117C224.748 326.825 223.921 326.707 223.213 325.761C222.504 324.816 222.623 323.989 223.569 323.281ZM227.337 320.458C228.283 319.75 229.109 319.869 229.818 320.814C230.526 321.76 230.407 322.586 229.462 323.295C228.516 324.003 227.689 323.884 226.981 322.939C226.273 321.993 226.392 321.166 227.337 320.458ZM231.106 317.636C232.051 316.928 232.878 317.046 233.586 317.992C234.294 318.937 234.176 319.764 233.23 320.472C232.285 321.18 231.458 321.062 230.75 320.116C230.041 319.171 230.16 318.344 231.106 317.636ZM234.874 314.813C235.82 314.105 236.646 314.224 237.355 315.169C238.063 316.115 237.944 316.941 236.999 317.65C236.053 318.358 235.226 318.239 234.518 317.294C233.81 316.348 233.929 315.521 234.874 314.813ZM216.957 322.35C217.903 321.642 218.73 321.76 219.438 322.706C220.146 323.651 220.027 324.478 219.082 325.186C218.136 325.894 217.31 325.776 216.601 324.83C215.893 323.885 216.012 323.058 216.957 322.35ZM232.052 311.045C232.997 310.337 233.824 310.455 234.532 311.401C235.24 312.346 235.122 313.173 234.176 313.881C233.231 314.589 232.404 314.471 231.696 313.525C230.987 312.58 231.106 311.753 232.052 311.045ZM214.135 318.581C215.08 317.873 215.907 317.992 216.615 318.937C217.324 319.883 217.205 320.71 216.259 321.418C215.314 322.126 214.487 322.007 213.779 321.062C213.071 320.116 213.189 319.289 214.135 318.581ZM229.229 307.276C230.175 306.568 231.001 306.687 231.71 307.632C232.418 308.578 232.299 309.405 231.354 310.113C230.408 310.821 229.581 310.702 228.873 309.757C228.165 308.811 228.284 307.984 229.229 307.276ZM211.312 314.813C212.258 314.105 213.085 314.223 213.793 315.169C214.501 316.114 214.382 316.941 213.437 317.649C212.491 318.358 211.665 318.239 210.956 317.293C210.248 316.348 210.367 315.521 211.312 314.813ZM226.407 303.508C227.352 302.8 228.179 302.918 228.887 303.864C229.595 304.809 229.477 305.636 228.531 306.344C227.586 307.052 226.759 306.934 226.051 305.988C225.342 305.043 225.461 304.216 226.407 303.508ZM257.977 303.392C258.922 302.684 259.749 302.803 260.457 303.748C261.165 304.694 261.047 305.521 260.101 306.229C259.156 306.937 258.329 306.818 257.621 305.873C256.912 304.927 257.031 304.101 257.977 303.392ZM255.154 299.624C256.1 298.916 256.926 299.034 257.635 299.98C258.343 300.925 258.224 301.752 257.279 302.46C256.333 303.169 255.506 303.05 254.798 302.104C254.09 301.159 254.209 300.332 255.154 299.624ZM252.332 295.855C253.277 295.147 254.104 295.266 254.812 296.211C255.52 297.157 255.402 297.984 254.456 298.692C253.511 299.4 252.684 299.281 251.976 298.336C251.268 297.39 251.386 296.564 252.332 295.855ZM249.509 292.087C250.455 291.379 251.282 291.497 251.99 292.443C252.698 293.388 252.579 294.215 251.634 294.923C250.688 295.632 249.861 295.513 249.153 294.567C248.445 293.622 248.564 292.795 249.509 292.087ZM239.129 293.979C240.075 293.27 240.902 293.389 241.61 294.335C242.318 295.28 242.199 296.107 241.254 296.815C240.308 297.523 239.482 297.405 238.773 296.459C238.065 295.514 238.184 294.687 239.129 293.979ZM242.918 291.141C243.85 290.443 244.67 290.567 245.378 291.512C246.087 292.458 245.975 293.279 245.043 293.977C244.097 294.686 243.27 294.567 242.562 293.621C241.854 292.676 241.973 291.849 242.918 291.141ZM246.687 288.318C247.632 287.61 248.459 287.729 249.167 288.674C249.875 289.62 249.757 290.447 248.811 291.155C247.866 291.863 247.039 291.744 246.331 290.799C245.623 289.853 245.741 289.027 246.687 288.318ZM250.455 285.496C251.401 284.788 252.227 284.906 252.936 285.852C253.644 286.797 253.525 287.624 252.58 288.332C251.634 289.041 250.807 288.922 250.099 287.976C249.391 287.031 249.51 286.204 250.455 285.496ZM254.224 282.673C255.169 281.965 255.996 282.084 256.704 283.029C257.412 283.975 257.294 284.802 256.348 285.51C255.403 286.218 254.576 286.099 253.868 285.154C253.159 284.208 253.278 283.382 254.224 282.673ZM306.054 267.384C306.999 266.676 307.826 266.795 308.534 267.74C309.242 268.686 309.124 269.512 308.178 270.221C307.233 270.929 306.406 270.81 305.698 269.864C304.989 268.919 305.108 268.092 306.054 267.384ZM308.891 271.173C309.837 270.465 310.659 270.577 311.357 271.509C312.065 272.454 311.946 273.281 311.001 273.989C310.055 274.697 309.228 274.578 308.52 273.633C307.822 272.701 307.946 271.881 308.891 271.173ZM309.842 264.546C310.774 263.848 311.594 263.972 312.303 264.918C313.011 265.863 312.899 266.685 311.967 267.383C311.021 268.091 310.194 267.972 309.486 267.027C308.778 266.081 308.897 265.255 309.842 264.546ZM313.611 261.724C314.556 261.016 315.383 261.134 316.091 262.08C316.799 263.025 316.681 263.852 315.735 264.56C314.79 265.269 313.963 265.15 313.255 264.204C312.547 263.259 312.665 262.432 313.611 261.724ZM317.379 258.901C318.325 258.193 319.152 258.312 319.86 259.257C320.568 260.203 320.449 261.03 319.504 261.738C318.558 262.446 317.731 262.327 317.023 261.382C316.315 260.436 316.434 259.61 317.379 258.901ZM321.148 256.079C322.093 255.371 322.92 255.489 323.628 256.435C324.336 257.38 324.218 258.207 323.272 258.915C322.327 259.624 321.5 259.505 320.792 258.559C320.084 257.614 320.202 256.787 321.148 256.079ZM323.985 259.868C324.931 259.159 325.753 259.271 326.451 260.203C327.159 261.149 327.04 261.976 326.095 262.684C325.149 263.392 324.322 263.273 323.614 262.328C322.916 261.396 323.04 260.576 323.985 259.868ZM305.136 262.189C306.068 261.491 306.888 261.615 307.596 262.56C308.304 263.506 308.192 264.328 307.26 265.026C306.315 265.734 305.488 265.615 304.78 264.67C304.071 263.724 304.19 262.897 305.136 262.189ZM316.441 253.722C317.387 253.013 318.213 253.132 318.922 254.078C319.63 255.023 319.511 255.85 318.566 256.558C317.62 257.266 316.793 257.148 316.085 256.202C315.377 255.257 315.496 254.43 316.441 253.722ZM302.313 258.421C303.245 257.723 304.065 257.846 304.773 258.792C305.481 259.737 305.37 260.559 304.438 261.257C303.492 261.965 302.665 261.847 301.957 260.901C301.249 259.956 301.368 259.129 302.313 258.421ZM313.619 249.953C314.564 249.245 315.391 249.364 316.099 250.309C316.807 251.255 316.689 252.081 315.743 252.79C314.798 253.498 313.971 253.379 313.263 252.434C312.554 251.488 312.673 250.661 313.619 249.953ZM301.375 253.241C302.307 252.543 303.127 252.667 303.835 253.612C304.543 254.558 304.431 255.379 303.499 256.077C302.554 256.786 301.727 256.667 301.019 255.721C300.311 254.776 300.429 253.949 301.375 253.241ZM310.796 246.185C311.742 245.477 312.568 245.595 313.277 246.541C313.985 247.486 313.866 248.313 312.921 249.021C311.975 249.729 311.148 249.611 310.44 248.665C309.732 247.72 309.851 246.893 310.796 246.185ZM300.437 248.061C301.369 247.363 302.189 247.487 302.897 248.432C303.605 249.378 303.493 250.2 302.561 250.898C301.616 251.606 300.789 251.487 300.081 250.542C299.372 249.596 299.491 248.769 300.437 248.061ZM304.205 245.239C305.151 244.531 305.977 244.649 306.686 245.595C307.394 246.54 307.275 247.367 306.33 248.075C305.384 248.783 304.557 248.665 303.849 247.719C303.141 246.774 303.26 245.947 304.205 245.239ZM307.974 242.416C308.919 241.708 309.746 241.827 310.454 242.772C311.162 243.718 311.044 244.545 310.098 245.253C309.153 245.961 308.326 245.842 307.618 244.897C306.909 243.951 307.028 243.124 307.974 242.416ZM347.081 236.656C348.026 235.948 348.853 236.066 349.561 237.012C350.269 237.957 350.151 238.784 349.205 239.492C348.26 240.201 347.433 240.082 346.725 239.136C346.016 238.191 346.135 237.364 347.081 236.656ZM343.312 239.478C344.258 238.77 345.084 238.889 345.793 239.834C346.501 240.78 346.382 241.607 345.437 242.315C344.491 243.023 343.664 242.904 342.956 241.959C342.248 241.013 342.367 240.187 343.312 239.478ZM339.544 242.301C340.476 241.603 341.296 241.727 342.004 242.672C342.712 243.618 342.6 244.439 341.668 245.137C340.723 245.846 339.896 245.727 339.188 244.781C338.479 243.836 338.598 243.009 339.544 242.301ZM335.775 245.123C336.707 244.425 337.527 244.549 338.235 245.495C338.944 246.44 338.832 247.262 337.9 247.96C336.954 248.668 336.127 248.549 335.419 247.604C334.711 246.658 334.83 245.832 335.775 245.123ZM331.048 242.781C331.994 242.073 332.82 242.192 333.529 243.137C334.237 244.083 334.118 244.91 333.173 245.618C332.241 246.316 331.421 246.192 330.712 245.247C330.004 244.301 330.116 243.479 331.048 242.781ZM346.142 231.476C347.088 230.768 347.915 230.887 348.623 231.832C349.331 232.778 349.212 233.604 348.267 234.313C347.321 235.021 346.494 234.902 345.786 233.957C345.078 233.011 345.197 232.184 346.142 231.476ZM328.226 239.013C329.171 238.305 329.998 238.423 330.706 239.369C331.414 240.314 331.296 241.141 330.35 241.849C329.418 242.547 328.598 242.424 327.89 241.478C327.182 240.533 327.294 239.711 328.226 239.013ZM343.32 227.708C344.265 227 345.092 227.118 345.8 228.064C346.508 229.009 346.39 229.836 345.444 230.544C344.499 231.252 343.672 231.134 342.964 230.188C342.256 229.243 342.374 228.416 343.32 227.708ZM325.403 235.244C326.349 234.536 327.176 234.655 327.884 235.6C328.592 236.546 328.473 237.373 327.528 238.081C326.596 238.779 325.776 238.655 325.067 237.71C324.359 236.764 324.471 235.942 325.403 235.244ZM340.497 223.939C341.443 223.231 342.27 223.35 342.978 224.295C343.686 225.241 343.567 226.068 342.622 226.776C341.676 227.484 340.85 227.365 340.141 226.42C339.433 225.474 339.552 224.647 340.497 223.939ZM335.791 221.582C336.736 220.874 337.563 220.992 338.271 221.938C338.979 222.883 338.861 223.71 337.915 224.418C336.97 225.127 336.143 225.008 335.435 224.062C334.726 223.117 334.845 222.29 335.791 221.582ZM332.022 224.404C332.968 223.696 333.794 223.815 334.503 224.76C335.211 225.706 335.092 226.533 334.147 227.241C333.201 227.949 332.374 227.83 331.666 226.885C330.958 225.939 331.077 225.113 332.022 224.404ZM328.254 227.227C329.186 226.529 330.006 226.653 330.714 227.598C331.422 228.544 331.31 229.365 330.378 230.063C329.433 230.772 328.606 230.653 327.898 229.707C327.19 228.762 327.308 227.935 328.254 227.227ZM324.485 230.049C325.417 229.351 326.237 229.475 326.945 230.421C327.654 231.366 327.542 232.188 326.61 232.886C325.664 233.594 324.837 233.475 324.129 232.53C323.421 231.584 323.54 230.758 324.485 230.049ZM363.608 200.748C364.553 200.04 365.38 200.158 366.088 201.104C366.796 202.049 366.678 202.876 365.732 203.584C364.787 204.292 363.96 204.174 363.252 203.228C362.544 202.283 362.662 201.456 363.608 200.748ZM359.839 203.57C360.785 202.862 361.612 202.981 362.32 203.926C363.028 204.872 362.909 205.699 361.964 206.407C361.018 207.115 360.191 206.996 359.483 206.051C358.775 205.105 358.894 204.278 359.839 203.57ZM356.071 206.393C357.003 205.695 357.823 205.818 358.531 206.764C359.239 207.709 359.127 208.531 358.195 209.229C357.25 209.937 356.423 209.819 355.715 208.873C355.007 207.928 355.125 207.101 356.071 206.393ZM352.302 209.215C353.234 208.517 354.054 208.641 354.762 209.586C355.471 210.532 355.359 211.354 354.427 212.052C353.481 212.76 352.654 212.641 351.946 211.696C351.238 210.75 351.357 209.923 352.302 209.215ZM353.22 214.41C354.166 213.702 354.993 213.821 355.701 214.766C356.409 215.712 356.29 216.538 355.345 217.247C354.399 217.955 353.572 217.836 352.864 216.891C352.156 215.945 352.275 215.118 353.22 214.41ZM356.043 218.179C356.988 217.47 357.815 217.589 358.523 218.535C359.231 219.48 359.113 220.307 358.167 221.015C357.222 221.723 356.395 221.605 355.687 220.659C354.979 219.714 355.097 218.887 356.043 218.179ZM358.865 221.947C359.811 221.239 360.638 221.358 361.346 222.303C362.054 223.249 361.935 224.075 360.99 224.784C360.044 225.492 359.217 225.373 358.509 224.428C357.801 223.482 357.92 222.655 358.865 221.947ZM374.898 215.822C375.843 215.113 376.67 215.232 377.378 216.178C378.086 217.123 377.968 217.95 377.022 218.658C376.077 219.366 375.25 219.248 374.542 218.302C373.834 217.357 373.952 216.53 374.898 215.822ZM371.129 218.644C372.075 217.936 372.902 218.055 373.61 219C374.318 219.946 374.199 220.772 373.254 221.481C372.308 222.189 371.481 222.07 370.773 221.125C370.065 220.179 370.184 219.352 371.129 218.644ZM367.361 221.467C368.293 220.769 369.113 220.892 369.821 221.838C370.529 222.783 370.417 223.605 369.485 224.303C368.54 225.011 367.713 224.893 367.005 223.947C366.297 223.002 366.415 222.175 367.361 221.467ZM363.592 224.289C364.524 223.591 365.344 223.715 366.052 224.66C366.761 225.606 366.649 226.428 365.717 227.126C364.771 227.834 363.944 227.715 363.236 226.77C362.528 225.824 362.647 224.997 363.592 224.289ZM397.062 199.221C398.008 198.513 398.834 198.632 399.543 199.577C400.251 200.523 400.132 201.349 399.186 202.058C398.241 202.766 397.414 202.647 396.706 201.702C395.998 200.756 396.117 199.929 397.062 199.221ZM394.24 195.453C395.185 194.744 396.012 194.863 396.72 195.809C397.428 196.754 397.309 197.581 396.364 198.289C395.418 198.997 394.592 198.879 393.884 197.933C393.175 196.988 393.294 196.161 394.24 195.453ZM391.417 191.684C392.363 190.976 393.189 191.095 393.898 192.04C394.606 192.986 394.487 193.812 393.542 194.521C392.596 195.229 391.769 195.11 391.061 194.165C390.353 193.219 390.472 192.392 391.417 191.684ZM388.595 187.916C389.54 187.208 390.367 187.326 391.075 188.272C391.783 189.217 391.665 190.044 390.719 190.752C389.774 191.46 388.947 191.342 388.239 190.396C387.53 189.451 387.649 188.624 388.595 187.916ZM378.215 189.807C379.16 189.099 379.987 189.218 380.695 190.163C381.403 191.109 381.285 191.936 380.339 192.644C379.394 193.352 378.567 193.233 377.859 192.288C377.151 191.342 377.269 190.515 378.215 189.807ZM382.004 186.97C382.936 186.272 383.756 186.395 384.464 187.341C385.172 188.286 385.06 189.108 384.128 189.806C383.183 190.514 382.356 190.396 381.648 189.45C380.939 188.505 381.058 187.678 382.004 186.97ZM385.772 184.147C386.718 183.439 387.544 183.558 388.253 184.503C388.961 185.449 388.842 186.276 387.897 186.984C386.951 187.692 386.124 187.573 385.416 186.628C384.708 185.682 384.827 184.855 385.772 184.147ZM389.541 181.325C390.486 180.617 391.313 180.735 392.021 181.681C392.729 182.626 392.61 183.453 391.665 184.161C390.719 184.869 389.893 184.751 389.185 183.805C388.476 182.86 388.595 182.033 389.541 181.325ZM393.309 178.502C394.255 177.794 395.081 177.913 395.789 178.858C396.498 179.804 396.379 180.631 395.433 181.339C394.488 182.047 393.661 181.928 392.953 180.983C392.245 180.037 392.364 179.21 393.309 178.502ZM419.226 182.621C420.158 181.923 420.978 182.046 421.687 182.992C422.395 183.937 422.283 184.759 421.351 185.457C420.405 186.165 419.579 186.047 418.87 185.101C418.162 184.156 418.281 183.329 419.226 182.621ZM422.995 179.798C423.927 179.1 424.747 179.224 425.455 180.169C426.163 181.115 426.051 181.937 425.119 182.635C424.174 183.343 423.347 183.224 422.639 182.279C421.931 181.333 422.049 180.506 422.995 179.798ZM426.763 176.976C427.709 176.267 428.536 176.386 429.244 177.332C429.952 178.277 429.833 179.104 428.888 179.812C427.942 180.52 427.115 180.402 426.407 179.456C425.699 178.511 425.818 177.684 426.763 176.976ZM432.416 172.742C433.362 172.034 434.188 172.152 434.897 173.098C435.605 174.043 435.486 174.87 434.541 175.578C433.595 176.286 432.768 176.168 432.06 175.222C431.352 174.277 431.471 173.45 432.416 172.742ZM414.499 180.279C415.445 179.57 416.272 179.689 416.98 180.635C417.688 181.58 417.569 182.407 416.624 183.115C415.678 183.823 414.852 183.704 414.143 182.759C413.435 181.813 413.554 180.987 414.499 180.279ZM427.709 170.385C428.655 169.676 429.482 169.795 430.19 170.741C430.898 171.686 430.779 172.513 429.834 173.221C428.888 173.929 428.061 173.811 427.353 172.865C426.645 171.92 426.764 171.093 427.709 170.385ZM413.581 175.084C414.513 174.386 415.333 174.509 416.042 175.455C416.75 176.4 416.638 177.222 415.706 177.92C414.76 178.628 413.934 178.51 413.225 177.564C412.517 176.619 412.636 175.792 413.581 175.084ZM417.35 172.261C418.282 171.563 419.102 171.687 419.81 172.632C420.518 173.578 420.406 174.4 419.474 175.098C418.529 175.806 417.702 175.687 416.994 174.742C416.286 173.796 416.404 172.969 417.35 172.261ZM421.118 169.439C422.064 168.73 422.891 168.849 423.599 169.795C424.307 170.74 424.188 171.567 423.243 172.275C422.297 172.983 421.471 172.865 420.762 171.919C420.054 170.974 420.173 170.147 421.118 169.439ZM426.771 165.205C427.717 164.497 428.543 164.615 429.252 165.561C429.96 166.506 429.841 167.333 428.896 168.041C427.95 168.75 427.123 168.631 426.415 167.685C425.707 166.74 425.826 165.913 426.771 165.205ZM423.949 161.436C424.894 160.728 425.721 160.847 426.429 161.792C427.137 162.738 427.019 163.565 426.073 164.273C425.128 164.981 424.301 164.862 423.593 163.917C422.884 162.971 423.003 162.145 423.949 161.436ZM407.936 167.547C408.868 166.849 409.688 166.972 410.397 167.918C411.105 168.863 410.993 169.685 410.061 170.383C409.115 171.091 408.289 170.973 407.58 170.027C406.872 169.082 406.991 168.255 407.936 167.547ZM411.705 164.724C412.637 164.026 413.457 164.15 414.165 165.095C414.873 166.041 414.761 166.863 413.829 167.561C412.884 168.269 412.057 168.15 411.349 167.205C410.641 166.259 410.759 165.432 411.705 164.724ZM415.473 161.902C416.419 161.194 417.246 161.312 417.954 162.258C418.662 163.203 418.543 164.03 417.598 164.738C416.652 165.446 415.826 165.328 415.117 164.382C414.409 163.437 414.528 162.61 415.473 161.902ZM419.242 159.079C420.187 158.371 421.014 158.49 421.722 159.435C422.43 160.381 422.312 161.208 421.366 161.916C420.421 162.624 419.594 162.505 418.886 161.56C418.178 160.614 418.296 159.787 419.242 159.079ZM445.139 163.213C446.084 162.505 446.911 162.623 447.619 163.569C448.328 164.514 448.209 165.341 447.263 166.049C446.318 166.757 445.491 166.639 444.783 165.693C444.075 164.748 444.193 163.921 445.139 163.213ZM460.233 151.908C461.179 151.199 462.005 151.318 462.714 152.264C463.422 153.209 463.303 154.036 462.358 154.744C461.412 155.452 460.585 155.334 459.877 154.388C459.169 153.443 459.288 152.616 460.233 151.908ZM444.221 158.018C445.153 157.32 445.973 157.444 446.681 158.389C447.389 159.335 447.277 160.156 446.345 160.854C445.4 161.562 444.573 161.444 443.865 160.498C443.157 159.553 443.275 158.726 444.221 158.018ZM457.411 148.139C458.356 147.431 459.183 147.55 459.891 148.495C460.599 149.441 460.481 150.267 459.535 150.976C458.59 151.684 457.763 151.565 457.055 150.62C456.346 149.674 456.465 148.847 457.411 148.139ZM443.283 152.838C444.215 152.14 445.035 152.264 445.743 153.209C446.451 154.155 446.339 154.977 445.407 155.675C444.462 156.383 443.635 156.264 442.927 155.319C442.219 154.373 442.337 153.546 443.283 152.838ZM454.588 144.371C455.534 143.662 456.36 143.781 457.069 144.727C457.777 145.672 457.658 146.499 456.713 147.207C455.767 147.915 454.94 147.797 454.232 146.851C453.524 145.906 453.643 145.079 454.588 144.371ZM442.344 147.658C443.276 146.96 444.097 147.084 444.805 148.03C445.513 148.975 445.401 149.797 444.469 150.495C443.523 151.203 442.697 151.084 441.988 150.139C441.28 149.193 441.399 148.367 442.344 147.658ZM451.766 140.602C452.711 139.894 453.538 140.013 454.246 140.958C454.954 141.904 454.836 142.73 453.89 143.439C452.945 144.147 452.118 144.028 451.41 143.083C450.702 142.137 450.82 141.31 451.766 140.602ZM448.943 136.834C449.889 136.126 450.716 136.244 451.424 137.19C452.132 138.135 452.013 138.962 451.068 139.67C450.122 140.378 449.295 140.26 448.587 139.314C447.879 138.369 447.998 137.542 448.943 136.834ZM445.175 139.656C446.107 138.958 446.927 139.082 447.635 140.027C448.343 140.973 448.231 141.795 447.299 142.493C446.354 143.201 445.527 143.082 444.819 142.137C444.111 141.191 444.229 140.364 445.175 139.656ZM441.406 142.479C442.338 141.781 443.158 141.904 443.866 142.85C444.575 143.795 444.463 144.617 443.531 145.315C442.585 146.023 441.758 145.905 441.05 144.959C440.342 144.014 440.461 143.187 441.406 142.479ZM476.76 115.999C477.706 115.291 478.533 115.41 479.241 116.355C479.949 117.301 479.83 118.128 478.885 118.836C477.939 119.544 477.112 119.425 476.404 118.48C475.696 117.534 475.815 116.708 476.76 115.999ZM461.666 127.305C462.612 126.596 463.438 126.715 464.147 127.661C464.855 128.606 464.736 129.433 463.791 130.141C462.845 130.849 462.018 130.731 461.31 129.785C460.602 128.84 460.721 128.013 461.666 127.305ZM479.583 119.768C480.528 119.06 481.355 119.178 482.063 120.124C482.771 121.069 482.653 121.896 481.707 122.604C480.762 123.313 479.935 123.194 479.227 122.248C478.519 121.303 478.637 120.476 479.583 119.768ZM475.814 122.59C476.76 121.882 477.587 122.001 478.295 122.946C479.003 123.892 478.884 124.719 477.939 125.427C476.993 126.135 476.166 126.016 475.458 125.071C474.75 124.125 474.869 123.299 475.814 122.59ZM464.489 131.073C465.434 130.365 466.261 130.484 466.969 131.429C467.677 132.375 467.559 133.201 466.613 133.91C465.668 134.618 464.841 134.499 464.133 133.554C463.424 132.608 463.543 131.781 464.489 131.073ZM482.405 123.536C483.351 122.828 484.178 122.947 484.886 123.892C485.594 124.838 485.475 125.665 484.53 126.373C483.584 127.081 482.757 126.962 482.049 126.017C481.341 125.071 481.46 124.245 482.405 123.536ZM474.868 129.181C475.814 128.473 476.641 128.592 477.349 129.537C478.057 130.483 477.938 131.31 476.993 132.018C476.047 132.726 475.22 132.607 474.512 131.662C473.804 130.716 473.923 129.89 474.868 129.181ZM467.311 134.842C468.257 134.133 469.083 134.252 469.792 135.198C470.5 136.143 470.381 136.97 469.436 137.678C468.49 138.386 467.663 138.268 466.955 137.322C466.247 136.377 466.366 135.55 467.311 134.842ZM485.228 127.305C486.173 126.597 487 126.715 487.708 127.661C488.416 128.606 488.298 129.433 487.352 130.141C486.407 130.85 485.58 130.731 484.872 129.785C484.164 128.84 484.282 128.013 485.228 127.305ZM473.922 135.772C474.854 135.074 475.674 135.198 476.382 136.144C477.091 137.089 476.979 137.911 476.047 138.609C475.101 139.317 474.274 139.198 473.566 138.253C472.858 137.307 472.977 136.481 473.922 135.772ZM470.134 138.61C471.079 137.902 471.906 138.021 472.614 138.966C473.322 139.912 473.203 140.738 472.258 141.447C471.313 142.155 470.486 142.036 469.778 141.09C469.069 140.145 469.188 139.318 470.134 138.61ZM488.05 131.073C488.996 130.365 489.823 130.484 490.531 131.429C491.239 132.375 491.12 133.202 490.175 133.91C489.229 134.618 488.402 134.499 487.694 133.554C486.986 132.608 487.105 131.782 488.05 131.073ZM472.956 142.378C473.902 141.67 474.728 141.789 475.437 142.735C476.145 143.68 476.026 144.507 475.08 145.215C474.135 145.923 473.308 145.804 472.6 144.859C471.892 143.913 472.011 143.087 472.956 142.378Z" fill="white"/>
<path d="M225.203 431.47C226.135 430.772 226.955 430.896 227.663 431.841C228.372 432.787 228.26 433.608 227.328 434.306C226.382 435.014 225.555 434.896 224.847 433.95C224.139 433.005 224.258 432.178 225.203 431.47ZM228.972 428.647C229.917 427.939 230.744 428.058 231.452 429.003C232.16 429.949 232.042 430.776 231.096 431.484C230.151 432.192 229.324 432.073 228.616 431.128C227.908 430.182 228.026 429.356 228.972 428.647ZM232.74 425.825C233.686 425.117 234.513 425.235 235.221 426.181C235.929 427.126 235.81 427.953 234.865 428.661C233.919 429.37 233.092 429.251 232.384 428.305C231.676 427.36 231.795 426.533 232.74 425.825ZM226.149 424.879C227.095 424.171 227.922 424.289 228.63 425.235C229.338 426.18 229.219 427.007 228.274 427.715C227.328 428.424 226.501 428.305 225.793 427.359C225.085 426.414 225.204 425.587 226.149 424.879ZM223.327 421.11C224.272 420.402 225.099 420.521 225.807 421.466C226.515 422.412 226.397 423.239 225.451 423.947C224.506 424.655 223.679 424.536 222.971 423.591C222.263 422.645 222.381 421.819 223.327 421.11ZM220.504 417.342C221.45 416.634 222.277 416.752 222.985 417.698C223.693 418.643 223.574 419.47 222.629 420.178C221.683 420.887 220.856 420.768 220.148 419.822C219.44 418.877 219.559 418.05 220.504 417.342ZM217.682 413.573C218.627 412.865 219.454 412.984 220.162 413.929C220.87 414.875 220.752 415.702 219.806 416.41C218.861 417.118 218.034 416.999 217.326 416.054C216.618 415.108 216.736 414.282 217.682 413.573ZM211.091 412.627C212.023 411.929 212.843 412.053 213.551 412.999C214.249 413.931 214.132 414.746 213.2 415.444C212.255 416.152 211.433 416.04 210.735 415.108C210.027 414.162 210.145 413.336 211.091 412.627ZM214.859 409.805C215.805 409.097 216.632 409.215 217.34 410.161C218.038 411.093 217.914 411.913 216.969 412.621C216.023 413.329 215.201 413.217 214.503 412.285C213.795 411.34 213.914 410.513 214.859 409.805ZM212.022 406.016C212.967 405.308 213.794 405.427 214.502 406.372C215.21 407.318 215.092 408.145 214.146 408.853C213.201 409.561 212.374 409.442 211.666 408.497C210.957 407.551 211.076 406.724 212.022 406.016ZM245.732 385.196C244.786 385.904 243.959 385.785 243.251 384.84C242.543 383.894 242.662 383.068 243.607 382.359C244.553 381.651 245.379 381.77 246.088 382.715C246.796 383.661 246.677 384.488 245.732 385.196ZM241.963 388.018C241.018 388.727 240.191 388.608 239.483 387.662C238.774 386.717 238.893 385.89 239.839 385.182C240.784 384.474 241.611 384.592 242.319 385.538C243.027 386.483 242.909 387.31 241.963 388.018ZM238.195 390.841C237.249 391.549 236.422 391.43 235.714 390.485C235.006 389.539 235.125 388.713 236.07 388.004C237.002 387.306 237.822 387.43 238.53 388.376C239.239 389.321 239.127 390.143 238.195 390.841ZM234.426 393.663C233.481 394.372 232.654 394.253 231.946 393.307C231.238 392.362 231.356 391.535 232.302 390.827C233.234 390.129 234.054 390.253 234.762 391.198C235.47 392.144 235.358 392.965 234.426 393.663ZM250.438 387.553C249.493 388.261 248.671 388.149 247.973 387.217C247.265 386.272 247.384 385.445 248.329 384.737C249.275 384.029 250.101 384.147 250.81 385.093C251.508 386.025 251.384 386.845 250.438 387.553ZM235.344 398.858C234.399 399.566 233.577 399.455 232.879 398.523C232.171 397.577 232.289 396.75 233.235 396.042C234.18 395.334 235.007 395.453 235.715 396.398C236.413 397.33 236.29 398.15 235.344 398.858ZM253.276 391.342C252.33 392.05 251.504 391.931 250.796 390.986C250.087 390.04 250.206 389.214 251.152 388.505C252.097 387.797 252.924 387.916 253.632 388.861C254.34 389.807 254.221 390.634 253.276 391.342ZM238.182 402.647C237.236 403.355 236.409 403.237 235.701 402.291C234.993 401.346 235.112 400.519 236.057 399.811C237.003 399.102 237.83 399.221 238.538 400.167C239.246 401.112 239.127 401.939 238.182 402.647ZM254.214 396.522C253.269 397.23 252.442 397.111 251.734 396.166C251.026 395.22 251.144 394.393 252.09 393.685C253.035 392.977 253.862 393.096 254.57 394.041C255.278 394.987 255.16 395.813 254.214 396.522ZM250.446 399.344C249.5 400.052 248.673 399.934 247.965 398.988C247.257 398.043 247.376 397.216 248.321 396.508C249.267 395.799 250.094 395.918 250.802 396.864C251.51 397.809 251.391 398.636 250.446 399.344ZM246.677 402.167C245.732 402.875 244.905 402.756 244.197 401.811C243.489 400.865 243.607 400.038 244.553 399.33C245.485 398.632 246.305 398.756 247.013 399.701C247.721 400.647 247.609 401.469 246.677 402.167ZM242.909 404.989C241.963 405.697 241.136 405.579 240.428 404.633C239.72 403.688 239.839 402.861 240.784 402.153C241.716 401.455 242.536 401.578 243.245 402.524C243.953 403.469 243.841 404.291 242.909 404.989ZM255.152 401.701C254.207 402.41 253.38 402.291 252.672 401.345C251.964 400.4 252.083 399.573 253.028 398.865C253.974 398.157 254.8 398.275 255.509 399.221C256.217 400.166 256.098 400.993 255.152 401.701ZM256.091 406.881C255.145 407.589 254.318 407.471 253.61 406.525C252.902 405.58 253.021 404.753 253.966 404.045C254.912 403.336 255.739 403.455 256.447 404.401C257.155 405.346 257.036 406.173 256.091 406.881ZM257.029 412.061C256.083 412.769 255.257 412.65 254.549 411.705C253.84 410.759 253.959 409.932 254.905 409.224C255.85 408.516 256.677 408.635 257.385 409.58C258.093 410.526 257.974 411.353 257.029 412.061ZM273.549 364.362C272.603 365.07 271.776 364.951 271.068 364.006C270.36 363.06 270.479 362.233 271.424 361.525C272.37 360.817 273.197 360.936 273.905 361.881C274.613 362.827 274.494 363.654 273.549 364.362ZM269.78 367.184C268.835 367.892 268.008 367.774 267.3 366.828C266.592 365.883 266.71 365.056 267.656 364.348C268.601 363.64 269.428 363.758 270.136 364.704C270.844 365.649 270.726 366.476 269.78 367.184ZM266.012 370.007C265.066 370.715 264.239 370.596 263.531 369.651C262.823 368.705 262.942 367.878 263.887 367.17C264.819 366.472 265.639 366.596 266.347 367.541C267.056 368.487 266.944 369.309 266.012 370.007ZM262.243 372.829C261.298 373.537 260.471 373.419 259.763 372.473C259.055 371.528 259.173 370.701 260.119 369.993C261.051 369.295 261.871 369.418 262.579 370.364C263.287 371.309 263.175 372.131 262.243 372.829ZM278.255 366.719C277.31 367.427 276.488 367.315 275.79 366.383C275.082 365.438 275.201 364.611 276.146 363.903C277.092 363.195 277.918 363.313 278.627 364.259C279.325 365.191 279.201 366.011 278.255 366.719ZM263.161 378.024C262.216 378.732 261.394 378.62 260.696 377.688C259.988 376.743 260.106 375.916 261.052 375.208C261.997 374.5 262.824 374.618 263.532 375.564C264.23 376.496 264.107 377.316 263.161 378.024ZM281.093 370.508C280.148 371.216 279.321 371.097 278.613 370.152C277.904 369.206 278.023 368.379 278.969 367.671C279.914 366.963 280.741 367.082 281.449 368.027C282.157 368.973 282.039 369.8 281.093 370.508ZM265.999 381.813C265.053 382.521 264.227 382.402 263.518 381.457C262.81 380.511 262.929 379.684 263.874 378.976C264.82 378.268 265.647 378.387 266.355 379.332C267.063 380.278 266.944 381.105 265.999 381.813ZM282.031 375.687C281.086 376.396 280.259 376.277 279.551 375.331C278.843 374.386 278.961 373.559 279.907 372.851C280.852 372.143 281.679 372.261 282.387 373.207C283.095 374.152 282.977 374.979 282.031 375.687ZM278.263 378.51C277.317 379.218 276.491 379.099 275.782 378.154C275.074 377.208 275.193 376.382 276.138 375.673C277.084 374.965 277.911 375.084 278.619 376.029C279.327 376.975 279.208 377.802 278.263 378.51ZM274.494 381.332C273.549 382.041 272.722 381.922 272.014 380.976C271.306 380.031 271.424 379.204 272.37 378.496C273.302 377.798 274.122 377.922 274.83 378.867C275.538 379.813 275.426 380.634 274.494 381.332ZM270.726 384.155C269.78 384.863 268.954 384.744 268.245 383.799C267.537 382.853 267.656 382.027 268.601 381.318C269.533 380.62 270.353 380.744 271.062 381.69C271.77 382.635 271.658 383.457 270.726 384.155ZM282.97 380.867C282.024 381.575 281.197 381.457 280.489 380.511C279.781 379.566 279.9 378.739 280.845 378.031C281.791 377.322 282.617 377.441 283.326 378.387C284.034 379.332 283.915 380.159 282.97 380.867ZM283.908 386.047C282.962 386.755 282.135 386.636 281.427 385.691C280.719 384.745 280.838 383.919 281.783 383.21C282.729 382.502 283.556 382.621 284.264 383.566C284.972 384.512 284.853 385.339 283.908 386.047ZM284.846 391.227C283.901 391.935 283.074 391.816 282.366 390.871C281.657 389.925 281.776 389.098 282.722 388.39C283.667 387.682 284.494 387.801 285.202 388.746C285.91 389.692 285.792 390.518 284.846 391.227ZM306.77 370.378C307.702 369.68 308.522 369.804 309.23 370.75C309.939 371.695 309.827 372.517 308.895 373.215C307.949 373.923 307.122 373.804 306.414 372.859C305.706 371.913 305.825 371.086 306.77 370.378ZM310.539 367.556C311.484 366.848 312.311 366.966 313.019 367.912C313.727 368.857 313.609 369.684 312.663 370.392C311.718 371.1 310.891 370.982 310.183 370.036C309.475 369.091 309.593 368.264 310.539 367.556ZM314.307 364.733C315.253 364.025 316.079 364.144 316.788 365.089C317.496 366.035 317.377 366.862 316.432 367.57C315.486 368.278 314.659 368.159 313.951 367.214C313.243 366.268 313.362 365.441 314.307 364.733ZM318.076 361.911C319.021 361.203 319.848 361.321 320.556 362.267C321.264 363.212 321.146 364.039 320.2 364.747C319.255 365.455 318.428 365.337 317.72 364.391C317.011 363.446 317.13 362.619 318.076 361.911ZM302.063 368.021C302.995 367.323 303.816 367.447 304.524 368.392C305.232 369.338 305.12 370.16 304.188 370.858C303.242 371.566 302.416 371.447 301.707 370.502C300.999 369.556 301.118 368.729 302.063 368.021ZM319.022 355.32C319.967 354.612 320.794 354.73 321.502 355.676C322.21 356.621 322.092 357.448 321.146 358.156C320.201 358.865 319.374 358.746 318.666 357.8C317.957 356.855 318.076 356.028 319.022 355.32ZM297.336 365.679C298.282 364.971 299.109 365.09 299.817 366.035C300.525 366.981 300.406 367.807 299.461 368.516C298.515 369.224 297.689 369.105 296.98 368.159C296.272 367.214 296.391 366.387 297.336 365.679ZM303.009 361.43C303.941 360.732 304.762 360.856 305.47 361.801C306.178 362.747 306.066 363.569 305.134 364.267C304.188 364.975 303.362 364.856 302.653 363.911C301.945 362.965 302.064 362.138 303.009 361.43ZM316.199 351.551C317.145 350.843 317.971 350.962 318.68 351.907C319.388 352.853 319.269 353.68 318.324 354.388C317.378 355.096 316.551 354.977 315.843 354.032C315.135 353.086 315.254 352.26 316.199 351.551ZM294.514 361.911C295.459 361.202 296.286 361.321 296.994 362.267C297.703 363.212 297.584 364.039 296.638 364.747C295.693 365.455 294.866 365.337 294.158 364.391C293.45 363.446 293.568 362.619 294.514 361.911ZM303.955 354.839C304.901 354.131 305.728 354.25 306.436 355.195C307.144 356.141 307.025 356.967 306.08 357.676C305.134 358.384 304.308 358.265 303.599 357.32C302.891 356.374 303.01 355.547 303.955 354.839ZM313.377 347.783C314.322 347.075 315.149 347.193 315.857 348.139C316.565 349.084 316.447 349.911 315.501 350.619C314.556 351.328 313.729 351.209 313.021 350.263C312.312 349.318 312.431 348.491 313.377 347.783ZM291.691 358.142C292.637 357.434 293.464 357.553 294.172 358.498C294.88 359.444 294.761 360.27 293.816 360.979C292.87 361.687 292.044 361.568 291.335 360.623C290.627 359.677 290.746 358.85 291.691 358.142ZM304.901 348.248C305.847 347.54 306.674 347.659 307.382 348.604C308.09 349.55 307.971 350.376 307.026 351.085C306.08 351.793 305.254 351.674 304.545 350.729C303.837 349.783 303.956 348.956 304.901 348.248ZM310.554 344.014C311.5 343.306 312.326 343.425 313.035 344.37C313.743 345.316 313.624 346.143 312.679 346.851C311.733 347.559 310.906 347.44 310.198 346.495C309.49 345.549 309.609 344.723 310.554 344.014ZM290.773 352.947C291.705 352.249 292.526 352.373 293.234 353.318C293.932 354.25 293.815 355.065 292.883 355.763C291.937 356.472 291.116 356.36 290.417 355.428C289.709 354.482 289.828 353.655 290.773 352.947ZM305.847 341.657C306.793 340.949 307.62 341.068 308.328 342.013C309.026 342.945 308.902 343.765 307.957 344.473C307.011 345.182 306.189 345.07 305.491 344.138C304.783 343.192 304.902 342.365 305.847 341.657ZM289.82 347.747C290.752 347.049 291.572 347.173 292.28 348.118C292.988 349.064 292.877 349.886 291.945 350.584C290.999 351.292 290.172 351.173 289.464 350.228C288.756 349.282 288.875 348.455 289.82 347.747ZM293.589 344.925C294.534 344.217 295.361 344.335 296.069 345.281C296.777 346.226 296.659 347.053 295.713 347.761C294.768 348.469 293.941 348.351 293.233 347.405C292.524 346.46 292.643 345.633 293.589 344.925ZM297.357 342.102C298.303 341.394 299.129 341.513 299.838 342.458C300.546 343.404 300.427 344.231 299.481 344.939C298.536 345.647 297.709 345.528 297.001 344.583C296.293 343.637 296.412 342.81 297.357 342.102ZM301.126 339.28C302.071 338.572 302.898 338.69 303.606 339.636C304.314 340.581 304.195 341.408 303.25 342.116C302.304 342.824 301.478 342.706 300.77 341.76C300.061 340.815 300.18 339.988 301.126 339.28ZM337.425 329.771C338.371 329.063 339.198 329.182 339.906 330.127C340.614 331.073 340.495 331.899 339.55 332.608C338.604 333.316 337.777 333.197 337.069 332.252C336.361 331.306 336.48 330.479 337.425 329.771ZM333.657 332.594C334.602 331.885 335.429 332.004 336.137 332.95C336.845 333.895 336.727 334.722 335.781 335.43C334.836 336.138 334.009 336.02 333.301 335.074C332.593 334.129 332.711 333.302 333.657 332.594ZM329.888 335.416C330.834 334.708 331.661 334.827 332.369 335.772C333.077 336.718 332.958 337.544 332.013 338.253C331.067 338.961 330.24 338.842 329.532 337.897C328.824 336.951 328.943 336.124 329.888 335.416ZM326.12 338.239C327.052 337.541 327.872 337.664 328.58 338.61C329.288 339.555 329.176 340.377 328.244 341.075C327.299 341.783 326.472 341.665 325.764 340.719C325.056 339.774 325.174 338.947 326.12 338.239ZM322.331 341.076C323.277 340.368 324.103 340.487 324.812 341.432C325.52 342.378 325.401 343.205 324.456 343.913C323.51 344.621 322.683 344.502 321.975 343.557C321.267 342.611 321.386 341.784 322.331 341.076ZM358.616 331.547C359.561 330.839 360.388 330.958 361.096 331.903C361.804 332.849 361.686 333.676 360.74 334.384C359.795 335.092 358.968 334.973 358.26 334.028C357.551 333.082 357.67 332.256 358.616 331.547ZM362.404 328.71C363.336 328.012 364.156 328.136 364.865 329.081C365.573 330.026 365.461 330.848 364.529 331.546C363.583 332.254 362.756 332.136 362.048 331.19C361.34 330.245 361.459 329.418 362.404 328.71ZM366.173 325.887C367.118 325.179 367.945 325.298 368.653 326.243C369.361 327.189 369.243 328.016 368.297 328.724C367.352 329.432 366.525 329.313 365.817 328.368C365.109 327.422 365.227 326.595 366.173 325.887ZM369.941 323.065C370.887 322.357 371.714 322.475 372.422 323.421C373.13 324.366 373.011 325.193 372.066 325.901C371.12 326.609 370.293 326.491 369.585 325.545C368.877 324.6 368.996 323.773 369.941 323.065ZM373.71 320.242C374.655 319.534 375.482 319.653 376.19 320.598C376.898 321.544 376.78 322.371 375.834 323.079C374.889 323.787 374.062 323.668 373.354 322.723C372.646 321.777 372.764 320.95 373.71 320.242ZM359.582 324.941C360.514 324.243 361.334 324.367 362.042 325.313C362.75 326.258 362.638 327.08 361.706 327.778C360.761 328.486 359.934 328.367 359.226 327.422C358.518 326.476 358.636 325.649 359.582 324.941ZM360.528 318.35C361.473 317.642 362.3 317.761 363.008 318.706C363.716 319.652 363.598 320.479 362.652 321.187C361.707 321.895 360.88 321.776 360.172 320.831C359.464 319.885 359.582 319.059 360.528 318.35ZM361.474 311.759C362.419 311.051 363.246 311.17 363.954 312.115C364.662 313.061 364.544 313.888 363.598 314.596C362.653 315.304 361.826 315.185 361.118 314.24C360.41 313.294 360.528 312.468 361.474 311.759ZM362.42 305.168C363.365 304.46 364.192 304.579 364.9 305.524C365.608 306.47 365.49 307.297 364.544 308.005C363.599 308.713 362.772 308.594 362.064 307.649C361.356 306.703 361.474 305.877 362.42 305.168ZM344.503 312.705C345.449 311.997 346.275 312.116 346.984 313.061C347.682 313.993 347.558 314.813 346.612 315.521C345.667 316.229 344.845 316.118 344.147 315.186C343.439 314.24 343.558 313.413 344.503 312.705ZM359.597 301.4C360.543 300.692 361.37 300.81 362.078 301.756C362.776 302.688 362.652 303.508 361.707 304.216C360.761 304.924 359.939 304.812 359.241 303.88C358.533 302.935 358.652 302.108 359.597 301.4ZM343.57 307.49C344.502 306.792 345.322 306.916 346.03 307.861C346.738 308.807 346.626 309.628 345.694 310.326C344.749 311.035 343.922 310.916 343.214 309.97C342.506 309.025 342.624 308.198 343.57 307.49ZM347.338 304.667C348.27 303.969 349.091 304.093 349.799 305.039C350.507 305.984 350.395 306.806 349.463 307.504C348.517 308.212 347.691 308.093 346.982 307.148C346.274 306.202 346.393 305.376 347.338 304.667ZM351.107 301.845C352.052 301.137 352.879 301.255 353.587 302.201C354.296 303.146 354.177 303.973 353.231 304.681C352.286 305.39 351.459 305.271 350.751 304.325C350.043 303.38 350.161 302.553 351.107 301.845ZM354.875 299.022C355.821 298.314 356.648 298.433 357.356 299.378C358.064 300.324 357.945 301.151 357 301.859C356.054 302.567 355.228 302.448 354.519 301.503C353.811 300.557 353.93 299.731 354.875 299.022ZM390.221 307.876C391.153 307.178 391.973 307.301 392.682 308.247C393.39 309.192 393.278 310.014 392.346 310.712C391.4 311.42 390.574 311.302 389.865 310.356C389.157 309.411 389.276 308.584 390.221 307.876ZM393.99 305.053C394.935 304.345 395.762 304.464 396.47 305.409C397.179 306.355 397.06 307.181 396.114 307.89C395.169 308.598 394.342 308.479 393.634 307.534C392.926 306.588 393.044 305.761 393.99 305.053ZM397.758 302.231C398.704 301.522 399.531 301.641 400.239 302.587C400.947 303.532 400.828 304.359 399.883 305.067C398.937 305.775 398.111 305.657 397.402 304.711C396.694 303.766 396.813 302.939 397.758 302.231ZM401.527 299.408C402.472 298.7 403.299 298.819 404.007 299.764C404.716 300.71 404.597 301.536 403.651 302.245C402.706 302.953 401.879 302.834 401.171 301.889C400.463 300.943 400.581 300.116 401.527 299.408ZM385.515 305.518C386.447 304.82 387.267 304.944 387.975 305.89C388.683 306.835 388.571 307.657 387.639 308.355C386.694 309.063 385.867 308.944 385.159 307.999C384.451 307.053 384.569 306.226 385.515 305.518ZM402.473 292.817C403.418 292.109 404.245 292.228 404.953 293.173C405.661 294.119 405.543 294.945 404.597 295.654C403.652 296.362 402.825 296.243 402.117 295.298C401.409 294.352 401.527 293.525 402.473 292.817ZM380.788 303.176C381.733 302.468 382.56 302.587 383.268 303.532C383.976 304.478 383.858 305.305 382.912 306.013C381.967 306.721 381.14 306.602 380.432 305.657C379.724 304.711 379.842 303.884 380.788 303.176ZM386.461 298.927C387.393 298.229 388.213 298.353 388.921 299.299C389.629 300.244 389.517 301.066 388.585 301.764C387.64 302.472 386.813 302.353 386.105 301.408C385.397 300.462 385.515 299.635 386.461 298.927ZM399.65 289.049C400.596 288.34 401.423 288.459 402.131 289.405C402.839 290.35 402.72 291.177 401.775 291.885C400.829 292.593 400.003 292.475 399.294 291.529C398.586 290.584 398.705 289.757 399.65 289.049ZM377.965 299.408C378.911 298.7 379.738 298.818 380.446 299.764C381.154 300.709 381.035 301.536 380.09 302.244C379.144 302.952 378.317 302.834 377.609 301.888C376.901 300.943 377.02 300.116 377.965 299.408ZM387.407 292.336C388.352 291.628 389.179 291.747 389.887 292.692C390.595 293.638 390.477 294.465 389.531 295.173C388.586 295.881 387.759 295.762 387.051 294.817C386.343 293.871 386.461 293.045 387.407 292.336ZM396.828 285.28C397.773 284.572 398.6 284.691 399.308 285.636C400.017 286.582 399.898 287.408 398.952 288.117C398.007 288.825 397.18 288.706 396.472 287.761C395.764 286.815 395.882 285.988 396.828 285.28ZM375.143 295.639C376.088 294.931 376.915 295.05 377.623 295.995C378.331 296.941 378.213 297.768 377.267 298.476C376.322 299.184 375.495 299.065 374.787 298.12C374.079 297.174 374.197 296.347 375.143 295.639ZM388.353 285.745C389.298 285.037 390.125 285.156 390.833 286.101C391.541 287.047 391.423 287.874 390.477 288.582C389.532 289.29 388.705 289.171 387.997 288.226C387.288 287.28 387.407 286.454 388.353 285.745ZM394.005 281.512C394.951 280.803 395.778 280.922 396.486 281.868C397.194 282.813 397.075 283.64 396.13 284.348C395.184 285.056 394.358 284.938 393.649 283.992C392.941 283.047 393.06 282.22 394.005 281.512ZM374.225 290.444C375.157 289.746 375.977 289.87 376.685 290.816C377.383 291.748 377.266 292.563 376.334 293.261C375.389 293.969 374.567 293.857 373.869 292.925C373.161 291.979 373.279 291.153 374.225 290.444ZM389.299 279.154C390.244 278.446 391.071 278.565 391.779 279.51C392.477 280.442 392.353 281.262 391.408 281.971C390.462 282.679 389.641 282.567 388.943 281.635C388.234 280.689 388.353 279.863 389.299 279.154ZM373.271 285.244C374.203 284.546 375.023 284.67 375.732 285.616C376.44 286.561 376.328 287.383 375.396 288.081C374.45 288.789 373.623 288.67 372.915 287.725C372.207 286.779 372.326 285.953 373.271 285.244ZM377.04 282.422C377.985 281.714 378.812 281.832 379.52 282.778C380.228 283.723 380.11 284.55 379.164 285.258C378.219 285.967 377.392 285.848 376.684 284.902C375.976 283.957 376.094 283.13 377.04 282.422ZM380.808 279.599C381.754 278.891 382.581 279.01 383.289 279.955C383.997 280.901 383.878 281.728 382.933 282.436C381.987 283.144 381.16 283.025 380.452 282.08C379.744 281.134 379.863 280.308 380.808 279.599ZM384.577 276.777C385.522 276.069 386.349 276.187 387.057 277.133C387.765 278.078 387.647 278.905 386.701 279.613C385.756 280.322 384.929 280.203 384.221 279.257C383.513 278.312 383.631 277.485 384.577 276.777ZM414.25 289.879C415.195 289.171 416.022 289.289 416.73 290.235C417.438 291.18 417.32 292.007 416.374 292.715C415.429 293.424 414.602 293.305 413.894 292.359C413.186 291.414 413.304 290.587 414.25 289.879ZM418.039 287.041C418.971 286.343 419.791 286.467 420.499 287.412C421.207 288.358 421.095 289.18 420.163 289.878C419.217 290.586 418.391 290.467 417.682 289.522C416.974 288.576 417.093 287.749 418.039 287.041ZM421.807 284.219C422.752 283.511 423.579 283.629 424.287 284.575C424.996 285.52 424.877 286.347 423.931 287.055C422.986 287.763 422.159 287.645 421.451 286.699C420.743 285.754 420.861 284.927 421.807 284.219ZM425.575 281.396C426.521 280.688 427.348 280.807 428.056 281.752C428.764 282.698 428.645 283.525 427.7 284.233C426.754 284.941 425.928 284.822 425.219 283.877C424.511 282.931 424.63 282.104 425.575 281.396ZM429.344 278.574C430.289 277.866 431.116 277.984 431.824 278.93C432.533 279.875 432.414 280.702 431.468 281.41C430.523 282.118 429.696 282 428.988 281.054C428.28 280.109 428.398 279.282 429.344 278.574ZM415.216 283.273C416.148 282.575 416.968 282.699 417.676 283.644C418.384 284.59 418.272 285.411 417.34 286.109C416.395 286.817 415.568 286.699 414.86 285.753C414.152 284.808 414.271 283.981 415.216 283.273ZM416.162 276.682C417.108 275.974 417.934 276.092 418.642 277.038C419.351 277.983 419.232 278.81 418.286 279.518C417.341 280.226 416.514 280.108 415.806 279.162C415.098 278.217 415.217 277.39 416.162 276.682ZM417.108 270.091C418.053 269.383 418.88 269.501 419.588 270.447C420.297 271.392 420.178 272.219 419.232 272.927C418.287 273.636 417.46 273.517 416.752 272.571C416.044 271.626 416.162 270.799 417.108 270.091ZM418.054 263.5C418.999 262.792 419.826 262.91 420.534 263.856C421.243 264.801 421.124 265.628 420.178 266.336C419.233 267.045 418.406 266.926 417.698 265.98C416.99 265.035 417.108 264.208 418.054 263.5ZM400.137 271.037C401.083 270.328 401.91 270.447 402.618 271.393C403.316 272.325 403.192 273.145 402.247 273.853C401.301 274.561 400.479 274.449 399.781 273.517C399.073 272.572 399.192 271.745 400.137 271.037ZM415.231 259.731C416.177 259.023 417.004 259.142 417.712 260.087C418.41 261.019 418.286 261.839 417.341 262.548C416.395 263.256 415.574 263.144 414.875 262.212C414.167 261.266 414.286 260.44 415.231 259.731ZM399.204 265.821C400.136 265.123 400.956 265.247 401.664 266.193C402.372 267.138 402.261 267.96 401.329 268.658C400.383 269.366 399.556 269.247 398.848 268.302C398.14 267.356 398.259 266.53 399.204 265.821ZM402.973 262.999C403.905 262.301 404.725 262.425 405.433 263.37C406.141 264.316 406.029 265.137 405.097 265.835C404.152 266.544 403.325 266.425 402.617 265.479C401.908 264.534 402.027 263.707 402.973 262.999ZM406.741 260.176C407.687 259.468 408.513 259.587 409.222 260.532C409.93 261.478 409.811 262.305 408.866 263.013C407.92 263.721 407.093 263.602 406.385 262.657C405.677 261.711 405.796 260.885 406.741 260.176ZM410.51 257.354C411.455 256.646 412.282 256.764 412.99 257.71C413.698 258.655 413.58 259.482 412.634 260.19C411.689 260.899 410.862 260.78 410.154 259.834C409.445 258.889 409.564 258.062 410.51 257.354ZM436.442 237.931C437.388 237.223 438.215 237.341 438.923 238.287C439.631 239.232 439.512 240.059 438.567 240.767C437.621 241.476 436.795 241.357 436.086 240.411C435.378 239.466 435.497 238.639 436.442 237.931ZM432.674 240.753C433.619 240.045 434.446 240.164 435.154 241.109C435.863 242.055 435.744 242.882 434.798 243.59C433.853 244.298 433.026 244.179 432.318 243.234C431.61 242.288 431.728 241.462 432.674 240.753ZM439.28 241.72C440.226 241.011 441.052 241.13 441.761 242.076C442.459 243.008 442.335 243.828 441.389 244.536C440.444 245.244 439.622 245.132 438.924 244.2C438.216 243.255 438.335 242.428 439.28 241.72ZM433.627 245.953C434.559 245.255 435.379 245.379 436.088 246.325C436.786 247.257 436.669 248.072 435.737 248.77C434.791 249.478 433.969 249.366 433.271 248.434C432.563 247.488 432.682 246.662 433.627 245.953ZM442.103 245.488C443.048 244.78 443.875 244.899 444.583 245.844C445.291 246.79 445.173 247.616 444.227 248.325C443.282 249.033 442.455 248.914 441.747 247.969C441.038 247.023 441.157 246.196 442.103 245.488ZM434.566 251.133C435.498 250.435 436.318 250.559 437.026 251.504C437.734 252.45 437.622 253.272 436.69 253.97C435.745 254.678 434.918 254.559 434.21 253.614C433.501 252.668 433.62 251.841 434.566 251.133ZM444.925 249.257C445.871 248.548 446.697 248.667 447.406 249.613C448.114 250.558 447.995 251.385 447.05 252.093C446.104 252.801 445.277 252.683 444.569 251.737C443.861 250.792 443.98 249.965 444.925 249.257ZM435.504 256.313C436.436 255.615 437.256 255.739 437.964 256.684C438.672 257.63 438.56 258.451 437.628 259.149C436.683 259.857 435.856 259.739 435.148 258.793C434.44 257.848 434.558 257.021 435.504 256.313ZM451.516 250.203C452.462 249.494 453.288 249.613 453.997 250.559C454.705 251.504 454.586 252.331 453.64 253.039C452.695 253.747 451.868 253.629 451.16 252.683C450.452 251.738 450.571 250.911 451.516 250.203ZM447.748 253.025C448.693 252.317 449.52 252.436 450.228 253.381C450.936 254.327 450.818 255.153 449.872 255.862C448.927 256.57 448.1 256.451 447.392 255.506C446.683 254.56 446.802 253.733 447.748 253.025ZM443.979 255.848C444.925 255.139 445.751 255.258 446.46 256.204C447.168 257.149 447.049 257.976 446.104 258.684C445.158 259.392 444.331 259.274 443.623 258.328C442.915 257.383 443.034 256.556 443.979 255.848ZM440.211 258.67C441.143 257.972 441.963 258.096 442.671 259.041C443.379 259.987 443.267 260.809 442.335 261.507C441.39 262.215 440.563 262.096 439.855 261.151C439.146 260.205 439.265 259.378 440.211 258.67ZM450.57 256.794C451.516 256.085 452.342 256.204 453.051 257.15C453.759 258.095 453.64 258.922 452.695 259.63C451.749 260.338 450.922 260.22 450.214 259.274C449.506 258.329 449.625 257.502 450.57 256.794ZM453.393 260.562C454.338 259.854 455.165 259.973 455.873 260.918C456.581 261.864 456.462 262.69 455.517 263.399C454.572 264.107 453.745 263.988 453.037 263.043C452.328 262.097 452.447 261.27 453.393 260.562ZM436.422 261.508C437.367 260.8 438.194 260.918 438.902 261.864C439.61 262.809 439.492 263.636 438.546 264.344C437.601 265.052 436.774 264.934 436.066 263.988C435.358 263.043 435.476 262.216 436.422 261.508Z" fill="white"/>
</svg>
