<svg width="434" height="502" viewBox="0 0 434 502" fill="none" xmlns="http://www.w3.org/2000/svg">
<path d="M79.992 263.916C79.992 259.535 75.7867 253.169 71.9716 250.366C67.1608 246.833 65.1548 241.438 61.5273 237.275C57.5983 232.766 56.2402 225.429 54.9328 220.027C54.4488 218.028 54.2986 215.401 53.3644 213.514C52.5426 211.854 52.9665 209.708 52.0811 208.245C51.2958 206.947 51.158 199.685 52.4019 199.114" stroke="#F6F6F6" stroke-width="7.77626" stroke-linecap="round"/>
<path d="M51.6712 199.114C51.6712 187.948 51.6712 176.782 51.6712 165.616C51.6712 159.491 50.7561 152.683 52.9192 146.774C54.054 143.673 53.0252 139.798 54.8143 136.904C55.4905 135.81 54.1635 133.767 55.1841 132.849C56.3085 131.839 56.6632 130.459 56.6632 129.127" stroke="#F6F6F6" stroke-width="7.77626" stroke-linecap="round"/>
<path d="M56.6626 129.126C56.6626 126.046 56.674 123.195 57.3299 120.378C58.0862 117.13 59.722 114.027 60.491 110.725C62.0049 104.224 61.5268 97.2512 64.7409 91.1167C67.714 85.4422 68.4547 78.9315 71.8358 73.2849C73.3214 70.8038 74.0161 67.8744 76.1208 65.6427C77.11 64.5938 78.5253 62.7087 79.2819 61.5535C80.2854 60.0212 82.5835 61.0351 82.5835 59.1401" stroke="#F6F6F6" stroke-width="7.77626" stroke-linecap="round"/>
<path d="M82.5845 60.6663C85.3543 60.3523 87.4523 55.3467 88.3462 53.5226C89.9189 50.3132 91.7389 46.7615 94.7278 44.5929C96.2327 43.501 97.4901 41.0669 98.8485 39.6981C100.373 38.1615 101.967 35.6921 103.079 33.8773C105.794 29.4447 111.515 27.5075 116.389 25.5429C120.375 23.9362 123.601 21.1806 127.547 19.5898C132.505 17.5915 137.609 15.5457 142.754 13.6367C153.318 9.7172 164.859 5.89765 176.303 5.89765C181.575 5.89765 186.88 4.70703 192.202 4.70703C199.957 4.70703 207.713 4.70703 215.468 4.70703C221.546 4.70703 227.623 4.70703 233.701 4.70703C236.968 4.70703 240.284 5.30234 243.401 5.30234C246.066 5.30234 248.359 7.08828 250.95 7.08828C253.501 7.08828 255.94 8.64221 258.498 8.87421C261.706 9.16514 265.583 10.5009 268.599 11.5531C273.892 13.3994 279.712 14.3148 284.754 16.481C294.017 20.4604 301.434 24.8222 308.384 31.4961C311.081 34.0854 314.278 37.8745 316.115 41.0211C318.109 44.4366 321.841 47.5725 322.788 51.439C324.978 60.3763 327.293 69.5268 329.425 78.228C330.345 81.981 332.344 85.6746 333.291 89.539C334.333 93.7941 335.953 99.1312 335.953 103.529C335.953 113.466 336.609 123.794 336.609 133.89C336.609 141.688 335.953 149.343 335.953 157.107C335.953 164.329 333.092 171.057 332.051 178.141C331.289 183.324 328.076 188.83 328.076 194.016C328.076 199.343 326.826 204.691 324.794 209.759C322.93 214.409 322.466 219.765 321.475 224.708C321.079 226.684 320.199 228.958 320.199 230.926C320.199 232.883 320.565 235.09 319.689 236.879C318.75 238.794 318.969 240.31 317.209 241.906C315.536 243.423 313.163 244.198 311.994 246.106C310.205 249.028 309.115 253.547 305.102 253.547" stroke="#F6F6F6" stroke-width="7.77626" stroke-linecap="round"/>
<path d="M308.178 253.546C307.975 255.371 306.171 257.061 306.171 258.681C306.171 260.646 305.502 262.335 305.502 264.349C305.502 268.991 310.047 270.546 311.523 274.519C312.936 278.323 318.603 280.898 320.739 284.156C323.678 288.638 328.033 292.602 331.219 297.094C334.038 301.068 338.055 304.961 341.959 308.464C347.656 313.576 352.737 319.188 358.348 324.37C360.579 326.43 362.772 329.002 364.74 331.272C366.669 333.498 369.079 335.465 371.094 337.574C375.053 341.718 378.969 346.031 381.909 350.779C384.715 355.311 388.55 359.138 390.605 364.116C392.859 369.577 395.788 374.981 398.149 380.489C403.714 393.472 407.736 407.914 410.524 421.669C411.995 428.928 414.537 437.078 414.537 444.444C414.537 448.553 415.875 452.658 415.875 456.815C415.875 461.227 415.693 465.675 415.875 470.086C416.138 476.46 421.831 489.426 429.923 489.426" stroke="#F6F6F6" stroke-width="7.77626" stroke-linecap="round"/>
<path d="M79.9908 266.508C79.6138 269.894 76.4396 272.12 74.828 274.854C74.3303 275.698 73.2957 276.428 72.5416 277.106C71.3204 278.202 70.835 279.618 69.8865 280.682C66.1888 284.833 63.0182 290.199 61.3678 295.386C60.4531 298.261 57.0185 300.562 56.0944 303.467C55.4439 305.512 52.9991 307.088 52.0747 309.163C51.0943 311.364 49.119 313.842 47.797 315.952C42.2758 324.767 38.8659 334.219 34.1893 343.407C31.6999 348.297 29.7255 353.677 27.6989 358.773C25.2047 365.045 25.0919 371.957 22.241 377.981C19.2414 384.319 18.7675 391.612 17.0782 398.249C15.4274 404.735 13.059 411.956 12.2473 418.517C11.1954 427.018 8.3014 434.79 8.3014 443.487C8.3014 453.15 6.47626 462.783 5.68311 472.399C5.22682 477.931 3.84357 484.087 5.97813 489.454C6.6103 491.044 6.49969 492.882 7.01069 494.488C7.39639 495.7 8.96519 495.687 8.96519 497.204" stroke="#F6F6F6" stroke-width="7.77626" stroke-linecap="round"/>
<path d="M170.713 128.697C179.86 128.697 188.946 129.129 198.057 129.129C199.939 129.129 202.053 128.697 203.754 128.697C205.818 128.697 207.656 127.401 209.613 127.401C211.157 127.401 218.331 123.478 217.263 121.353" stroke="#F6F6F6" stroke-width="7.77626" stroke-linecap="round"/>
<path d="M230.331 136.904C230.464 135.706 232.422 134.394 233.083 133.432C234.127 131.913 235.373 130.134 236.667 128.84C237.573 127.934 238.361 126.807 239.131 125.816C239.493 125.351 240.274 124.157 240.699 123.944" stroke="#F6F6F6" stroke-width="7.77626" stroke-linecap="round"/>
<path d="M271.804 126.536C271.915 127.004 277.061 128.169 277.978 128.276C280.672 128.592 283.656 128.53 286.328 128.947C288.773 129.329 292.278 128.986 294.861 128.986C296.022 128.986 297.183 128.986 298.344 128.986C299.17 128.986 301.413 128.92 299.671 128.461" stroke="#F6F6F6" stroke-width="7.77626" stroke-linecap="round"/>
<path d="M203.699 139.497C202.907 139.497 202.116 139.497 201.324 139.497C200.489 139.497 199.757 139.753 198.934 139.753C198.376 139.753 197.55 139.803 197.042 140.009C196.441 140.253 195.653 140.166 195.08 140.457C194.588 140.707 193.604 140.852 193.048 140.905C192.168 140.99 191.258 141.408 190.416 141.645C188.958 142.055 187.065 142.389 185.831 143.266C184.809 143.992 182.65 144.788 182.389 146.096C182.274 146.675 181.635 147.079 181.556 147.689C181.466 148.388 181.136 149.092 181.136 149.865C181.136 150.987 180.879 152.515 181.486 153.513C181.766 153.972 181.92 154.981 181.977 155.497C182.059 156.251 182.829 157.39 183.347 157.957C184.812 159.562 186.337 160.772 188.532 161.513C191.35 162.464 194.347 162.792 197.33 162.792C198.385 162.792 199.572 162.933 200.585 162.636C201.418 162.391 202.275 161.887 203.138 161.768C203.889 161.666 204.838 161.128 205.521 160.816C206.526 160.357 207.452 159.735 208.464 159.273C211.178 158.033 213.275 155.542 214.28 152.994C214.762 151.771 214.77 150.504 214.77 149.225C214.77 147.979 214.886 146.743 214.287 145.584C213.213 143.505 211.321 141.881 208.892 141.104C207.643 140.705 206.389 140.292 205.131 139.91C204.351 139.672 203.823 139.374 202.998 139.625" stroke="#F6F6F6" stroke-width="7.77626" stroke-linecap="round"/>
<path d="M212.45 147.27C209.806 147.27 207.612 148.247 206.364 150.053C205.687 151.032 204.488 151.759 203.792 152.719C203.2 153.534 201.858 154.305 201.858 155.321C201.858 156.053 201.569 157.117 202.539 157.53C202.947 157.704 203.741 157.588 204.204 157.588C205.038 157.588 206.087 157.728 206.852 157.472C208.151 157.038 209.596 156.869 210.668 156.107C211.722 155.357 212.812 154.664 213.694 153.762C214.5 152.939 215.641 150.693 213.745 150.278C212.63 150.034 212.058 151.017 211.299 151.637C210.4 152.37 209.522 153.14 208.667 153.904C207.965 154.532 207.115 155.043 206.414 155.669C205.963 156.073 205.342 156.371 204.918 156.777C204.734 156.953 204.554 157.126 204.363 157.298C204.307 157.349 204.119 157.685 204.052 157.633C203.826 157.46 203.912 156.407 203.834 156.139C203.592 155.304 203.825 154.217 203.825 153.363C203.825 152.895 203.825 152.427 203.825 151.959C203.825 151.437 204.092 151.013 204.128 150.516C204.2 149.519 206.225 149.621 206.818 148.893C206.871 148.828 207.565 148.017 207.457 148.017C207.391 148.017 206.508 149.261 206.398 149.409C205.776 150.242 204.146 150.428 203.523 151.263C203.32 151.535 202.872 151.652 202.758 151.959C202.614 152.346 202.179 152.773 202.766 152.023" stroke="#F6F6F6" stroke-width="7.77626" stroke-linecap="round"/>
<path d="M209.595 147.33C208.71 147.33 207.603 147.191 206.74 147.338C205.889 147.483 205.136 148.179 204.621 148.673C204.053 149.219 203.034 149.617 202.37 150.127C201.75 150.602 201.507 151.294 200.978 151.745C200.414 152.226 200.182 153.297 200.005 153.906C199.752 154.78 199.463 155.524 199.463 156.451C199.463 157.273 198.961 158.27 199.422 159.067C199.621 159.411 200.618 160.998 200.937 159.774" stroke="#F6F6F6" stroke-width="7.77626" stroke-linecap="round"/>
<path d="M270.932 148.009C271.083 146.724 272.881 146.514 273.561 145.706C273.878 145.329 274.606 145.029 275.013 144.719C275.454 144.383 275.82 144.056 276.327 143.827C277.768 143.178 279.294 142.931 280.822 142.548C282.12 142.223 283.266 142.088 284.626 142.088C287.509 142.088 289.485 143.888 291.404 145.713C292.508 146.763 293.122 148.138 293.955 149.383C294.546 150.266 294.632 151.49 294.893 152.482C295.171 153.539 295.242 155.502 294.924 156.539C294.481 157.983 293.28 159.078 292.718 160.443C292.484 161.011 292.012 161.741 291.573 162.19C291.093 162.682 290.832 163.389 290.405 163.93C289.414 165.186 288.167 166.109 286.809 166.956C285.908 167.517 285.09 168.009 283.996 168.009C283.166 168.009 282.446 167.789 281.652 167.621C280.854 167.452 280.073 167.559 279.263 167.321C278.681 167.151 277.905 166.956 277.295 166.956C276.383 166.956 275.545 166.377 274.736 166.035C274.209 165.812 273.837 165.435 273.353 165.18C272.818 164.897 272.531 164.366 272.039 164.09C271.026 163.524 270.22 162.757 269.956 161.627C269.889 161.339 269.704 161.038 269.58 160.772C269.41 160.408 269.481 159.958 269.342 159.588C269.115 158.985 269.273 158.125 269.273 157.482C269.273 156.411 269.119 155.218 269.303 154.164C269.562 152.686 270.281 151.53 270.725 150.121C270.888 149.605 271.46 147.666 272.039 147.482" stroke="#F6F6F6" stroke-width="7.77626" stroke-linecap="round"/>
<path d="M292.542 149.99C292.567 149.986 291.663 149.827 291.343 149.871C290.716 149.955 290.121 150.569 289.713 150.968C288.524 152.134 286.943 153.618 286.277 155.122C285.667 156.498 285.027 157.8 284.944 159.303C284.918 159.765 284.605 160.413 284.877 160.876C285.301 161.596 285.977 161.739 286.81 161.827C287.79 161.929 289.433 162.546 290.217 161.666C291.335 160.41 291.91 158.595 292.128 157.002C292.239 156.189 292.276 155.344 292.276 154.52C292.276 154.013 292.415 153.314 292.268 152.828C292.159 152.468 291.399 153.143 291.343 153.199C290.586 153.945 289.963 154.798 289.343 155.653C288.547 156.749 287.362 157.632 286.736 158.813C286.292 159.652 286.143 160.474 285.847 161.344C285.747 161.639 285.61 162.079 285.61 162.386C285.61 162.598 285.372 163.038 285.61 162.701" stroke="#F6F6F6" stroke-width="7.77626" stroke-linecap="round"/>
<path d="M287.356 246.831C282.787 246.831 278.426 246.05 273.867 246.05C272.156 246.05 270.604 245.79 268.904 245.79C267.333 245.79 265.157 245.643 263.686 246.18C262.042 246.781 259.569 246.993 257.832 247.091C256.261 247.181 253.926 247.16 252.488 247.814C251.825 248.116 250.269 248.133 249.561 248.133C248.421 248.133 247.281 248.753 246.139 248.899C244.214 249.145 242.05 249.312 240.144 249.825C238.035 250.392 235.327 250.476 233.145 250.476C231.406 250.476 229.666 250.476 227.927 250.476C224.097 250.476 220.223 250.736 216.347 250.736C214.523 250.736 212.699 250.736 210.875 250.736C209.089 250.736 207.064 251.257 205.276 251.257C203.398 251.257 201.644 252.038 199.804 252.038C199.398 252.038 197.882 252.36 197.569 252.616C197.33 252.812 195.998 254.026 197.004 253.339" stroke="#F6F6F6" stroke-width="7.77626" stroke-linecap="round"/>
<path d="M196.635 253.546C194.231 253.546 192.068 254.199 189.706 254.199C187.591 254.199 185.475 254.199 183.359 254.199C181.29 254.199 179.147 253.872 177.012 253.872C174.662 253.872 172.311 253.872 169.961 253.872C167.798 253.872 165.756 253.709 163.56 253.709C161.326 253.709 159.098 253.872 156.928 253.872C155.971 253.872 154.854 254.026 153.951 254.235C153.189 254.412 152.114 254.79 151.326 254.852C150.725 254.899 149.485 255.352 148.89 255.541C148.495 255.666 147.708 255.842 147.428 256.076C147.218 256.252 147.843 255.995 148.159 255.995" stroke="#F6F6F6" stroke-width="7.77626" stroke-linecap="round"/>
<path d="M178.491 255.108C181.634 255.108 184.599 256.086 187.567 256.815C190.268 257.478 193.216 257.996 195.779 258.891C198.687 259.905 201.857 260.346 204.855 261.174C206.45 261.615 208.307 261.737 209.81 262.327C211.259 262.896 213.151 262.52 214.57 263.042C215.61 263.425 216.791 263.191 217.828 263.573C218.524 263.829 220.584 263.827 221.335 263.827C222.774 263.827 224.212 263.827 225.65 263.827C227.001 263.827 228.89 264.112 230.104 263.665C231.152 263.279 232.557 263.638 233.612 263.25C234.144 263.054 234.834 263.353 235.366 263.158C235.814 262.993 236.635 262.811 237.12 262.789C239.824 262.664 242.562 261.751 245.263 261.751C247.593 261.751 249.686 260.92 252.028 260.92C254.183 260.92 256.303 259.467 258.542 259.467C259.518 259.467 260.789 258.834 261.799 258.648C263.197 258.391 263.929 257.86 263.929 256.665C263.929 255.707 264.166 254.487 263.915 253.551C263.681 252.678 259.952 253.461 259.307 253.655C254.73 255.034 248.622 254.277 243.759 254.277C242.859 254.277 243.521 253.862 244.135 253.862C245.175 253.862 246.214 253.862 247.253 253.862C248.904 253.862 251.065 254.166 252.64 253.759C253.643 253.499 255.573 252.409 256.537 252.409C256.816 252.409 257.56 252.141 257.651 251.879C257.86 251.274 257.12 251.299 256.913 250.956" stroke="#F6F6F6" stroke-width="7.77626" stroke-linecap="round"/>
<path d="M258.846 256.14C257.887 256.14 257.058 256.14 256.134 256.14C255.278 256.14 254.535 256.14 253.662 256.14" stroke="#F6F6F6" stroke-width="7.77626" stroke-linecap="round"/>
<path d="M247.46 254.602C250.233 254.602 252.637 254.392 254.997 255.567C255.193 255.665 256.974 256.103 255.924 256.103C255.012 256.103 254.015 256.194 253.112 256.091C252.408 256.011 251.362 255.483 250.824 255.15C250.107 254.705 249.337 254.638 248.477 254.435C247.22 254.139 245.517 253.65 244.23 253.53C243.032 253.417 241.814 252.661 240.596 252.445C238.014 251.988 235.602 250.956 232.924 250.956" stroke="#F6F6F6" stroke-width="7.77626" stroke-linecap="round"/>
<path d="M258.845 276.877C255.993 276.877 254.037 279.83 251.49 280.782C250.374 281.199 249.246 281.673 248.134 282.192C247.678 282.405 246.891 282.529 246.514 282.782C245.98 283.141 245.258 282.772 244.65 282.999C243.999 283.243 243.383 283.023 242.729 283.18C242.145 283.32 241.473 283.606 240.836 283.771C239.674 284.071 237.995 283.819 236.779 283.819C234.053 283.819 231.404 283.602 228.649 283.602C223.783 283.602 218.477 285.684 213.938 283.988C212.92 283.607 211.324 283.319 210.526 282.782C209.769 282.274 207.531 282.565 206.97 281.975C206.593 281.58 204.375 281.433 203.744 281.433C202.238 281.433 200.733 281.433 199.227 281.433" stroke="#F6F6F6" stroke-width="7.77626" stroke-linecap="round"/>
</svg>
