<svg width="568" height="501" viewBox="0 0 568 501" fill="none" xmlns="http://www.w3.org/2000/svg">
<path d="M209.735 198.407C209.735 194.993 209.81 191.828 208.721 188.561C207.31 184.332 206.338 179.561 204.258 175.496C202.487 172.036 201.29 168.116 199.714 164.546C198.055 160.787 195.908 157.257 194.035 153.597C191.203 148.063 191.312 141.35 189.653 135.515C187.502 127.946 188.193 119.588 188.193 111.819C188.193 103.883 189.213 95.9779 192.209 88.4969C195.682 79.8248 199.539 71.6953 204.988 63.9019C206.47 61.7831 207.756 59.4803 209.005 57.2384C210.746 54.1118 213.484 51.3126 215.009 48.123C216.125 45.7887 217.957 43.9047 219.39 41.7403C220.254 40.436 220.806 38.9002 221.784 37.6973" stroke="#F6F6F6" stroke-width="7.77626" stroke-linecap="round"/>
<path d="M221.784 37.6962C222.845 37.6962 224.575 34.6161 225.314 33.7419C226.724 32.0742 228.098 29.9379 229.862 28.5651C232.11 26.8156 234.304 25.2081 236.735 23.7703C239.456 22.1613 242.4 20.9146 245.125 19.3194C249.083 17.0019 253.8 13.6268 258.788 13.6268C262.761 13.6268 266.789 11.9491 270.77 11.5828C275.72 11.1274 280.723 10.5114 285.68 10.2074C289.067 9.99968 292.858 9.45855 296.083 8.54546C298.656 7.81733 301.324 7.65707 303.933 6.82622C308.408 5.40107 313.89 3.99902 318.593 3.99902C322.912 3.99902 327.571 4.34287 331.676 4.34287C333.358 4.34287 335.42 4.76629 336.909 5.45083C337.711 5.82012 340.603 7.8604 341.02 7.09366" stroke="#F6F6F6" stroke-width="7.77626" stroke-linecap="round"/>
<path d="M341.021 6.59082C344.035 6.59082 345.923 8.11721 348.64 8.97662C350.473 9.55626 352.158 10.5131 354.039 11.0973C355.844 11.6584 357.653 12.2065 359.415 12.8772C362.024 13.87 364.099 15.4021 366.511 16.6263C368.253 17.5103 371.098 18.7628 372.389 20.0725C374.185 21.8957 376.644 23.3538 378.636 24.9955C380.944 26.8974 382.672 29.1877 384.905 31.1304C387.053 32.9985 388.301 35.3971 389.999 37.5304C391.757 39.74 393.68 41.9311 395.571 44.0819C402.648 52.1324 408.414 60.2995 408.414 70.9884C408.414 74.7817 408.414 78.575 408.414 82.3683C408.414 85.4683 408.494 89.217 407.543 92.2144C406.152 96.603 404.771 100.695 406.455 105.09" stroke="#F6F6F6" stroke-width="7.77626" stroke-linecap="round"/>
<path d="M405.823 105.091C405.823 109.305 405.55 113.735 404.082 117.785C403.488 119.426 403.115 122.039 403.115 123.771C403.115 125.385 402.265 127.21 401.761 128.775C400.095 133.948 398.863 139.009 396.925 144.12C395.8 147.086 394.593 150.25 393.808 153.294C393.025 156.334 391.433 159.167 390.649 162.208C389.983 164.793 388.531 167.161 387.941 169.806C387.361 172.407 386.318 175.489 385.146 177.942C384.204 179.915 382.969 182.104 382.309 184.151C381.623 186.281 379.724 188.121 379.128 190.174C378.524 192.256 376.538 194.351 375.453 196.327C374.591 197.895 373.318 199.278 372.465 200.83C371.873 201.908 371.171 202.923 370.617 203.999C370.312 204.59 368.927 207.475 369.843 205.5" stroke="#F6F6F6" stroke-width="7.77626" stroke-linecap="round"/>
<path d="M369.534 208.773C369.534 210.972 372.664 212.966 374.19 214.352C376.248 216.22 378.191 218.322 380.335 220.268C385.568 225.019 390.566 229.895 395.79 234.637C397.357 236.06 398.627 237.685 400.156 239.127C401.615 240.502 403.684 242.406 404.459 244.198C405.836 247.379 408.985 249.858 410.129 253.233C410.723 254.987 412.336 256.459 413.025 258.21C413.718 259.971 414.339 261.721 415.053 263.47C415.589 264.784 416.415 266.317 417.205 267.527C418.252 269.132 418.56 271.164 419.439 272.861C420.832 275.548 422.023 278.334 422.977 281.107C423.712 283.24 425.504 285.713 425.771 287.888C426.048 290.154 428.175 292.218 428.729 294.481C429.376 297.125 430.728 299.604 431.378 302.257C432.158 305.443 431.729 309.017 431.729 312.306C431.729 318.15 432.001 324.052 431.709 329.887C431.375 336.561 430.24 343.066 430.24 349.76C430.24 351.74 431.591 356.522 434.336 356.522" stroke="#F6F6F6" stroke-width="7.77626" stroke-linecap="round"/>
<path d="M208.826 198.406C208.826 202.552 206.317 206.2 204.368 209.834C203.223 211.968 201.697 214.003 200.654 216.144C199.471 218.57 197.498 220.41 196.031 222.647C193.657 226.269 190.565 229.412 188.189 233.037C185.535 237.086 182.746 241.315 179.77 245.158C174.002 252.603 169.588 261.055 165.551 269.419C164.288 272.036 163.817 275.019 162.579 277.557C161.778 279.2 162.394 282.134 162.394 283.944" stroke="#F6F6F6" stroke-width="7.77626" stroke-linecap="round"/>
<path d="M162.169 283.944C162.169 289.666 159.821 295.171 159.186 300.843C158.669 305.465 156.985 310.137 156.985 314.799C156.985 320.862 156.096 326.978 155.874 333.04C155.705 337.653 154.393 342.231 154.393 346.85C154.393 348.759 154.318 350.706 153.735 352.532C153.1 354.518 153.536 356.722 152.727 358.747C152.118 360.269 152.171 362.259 152.171 363.877C152.171 365.779 151.801 367.664 151.801 369.596C151.801 371.111 151.765 377.726 153.282 372.979" stroke="#F6F6F6" stroke-width="7.77626" stroke-linecap="round"/>
<path d="M202.965 98.6698C203.55 98.4475 204.072 98.2323 204.618 97.9419C205.647 97.3949 206.687 96.4852 207.774 96.0727C208.793 95.6858 209.812 95.2989 210.831 94.9121C211.736 94.5684 212.883 94.9388 213.821 94.934C214.788 94.929 216.262 95.4148 217.08 95.8186C217.458 96.0056 217.982 96.0034 218.402 96.0951C218.882 96.2 219.326 96.4644 219.79 96.6257C220.764 96.9643 221.545 97.6792 222.3 98.2729C222.685 98.5757 223.153 99.4611 223.316 99.8801C223.511 100.381 223.966 100.763 224.161 101.266C224.561 102.294 225.762 103.631 225.399 104.84C224.966 106.284 223.824 107.759 222.906 109.044C222.183 110.055 221.217 111.414 219.895 111.915C217.62 112.779 215.298 113.095 212.948 113.517C211.845 113.715 210.687 113.806 209.554 113.941C208.476 114.069 207.302 114.249 206.257 114.007C205.431 113.815 204.74 112.797 204.282 112.185C203.422 111.036 202.435 109.884 201.917 108.554C201.453 107.359 200.653 106.209 200.36 104.923C200.004 103.357 200.381 101.505 200.977 99.9385C201.198 99.3592 201.629 98.1836 202.349 97.8747C203.23 97.4972 204.159 97.0592 205.037 96.7257C205.342 96.61 206.396 95.8363 206.772 95.967C206.959 96.032 206.546 96.7133 206.553 96.8648C206.604 98.0369 207.361 99.0969 207.819 100.141C208.074 100.723 208.539 101.204 208.774 101.808C209.057 102.536 209.34 103.264 209.624 103.992C210.193 105.455 210.762 106.918 211.331 108.38C211.568 108.988 211.805 109.596 212.041 110.204C212.249 110.737 211.339 110.643 210.973 110.516C210.477 110.344 210.291 109.908 209.831 109.721C209.491 109.583 209.036 109.625 208.817 109.363C208.526 109.015 208.428 108.386 208.267 107.972C208.003 107.294 207.445 106.44 206.956 105.869C206.115 104.887 204.894 104.021 204.423 102.809C204.017 101.766 204.399 102.748 204.585 103.226C204.965 104.204 205.346 105.181 205.726 106.158C205.993 106.844 206.116 107.554 206.382 108.237C206.497 108.532 206.527 108.764 206.562 109.069C206.581 109.238 206.509 109.686 206.23 109.331C205.884 108.891 205.598 108.162 205.389 107.65C205.024 106.757 204.57 105.904 204.209 105.012C203.56 103.408 202.764 101.801 202.936 99.9948C202.976 99.5813 203.164 98.7031 203.78 98.6247C203.984 98.5986 204.363 99.9061 204.428 100.072C205.009 101.564 205.239 103.268 205.229 104.882" stroke="#F6F6F6" stroke-width="7.77626" stroke-linecap="round"/>
<path d="M203.64 110.274C203.846 110.478 203.7 110.708 203.791 110.946C203.929 111.309 204.423 111.612 204.744 111.84C205.231 112.187 205.683 112.626 206.232 112.866" stroke="#F6F6F6" stroke-width="7.77626" stroke-linecap="round"/>
<path d="M263.811 115.457C261.987 115.457 260.267 114.885 258.48 114.802C257.811 114.77 256.276 114.203 255.908 113.708C255.288 112.874 253.551 112.272 253.409 111.194C253.299 110.365 252.889 109.561 252.889 108.68C252.889 107.668 252.889 106.656 252.889 105.644C252.889 104.997 253.147 104.346 253.38 103.737C253.682 102.948 253.918 102.151 254.449 101.442C255.847 99.5758 258.191 98.7202 260.43 97.8836C261.614 97.4414 263.039 97.3128 264.331 97.3128C264.961 97.3128 265.35 97.3049 265.891 97.5071C266.409 97.7004 266.832 97.9343 267.321 98.1629C267.868 98.418 268.307 98.8182 268.752 99.171C269.255 99.5707 269.856 99.837 270.211 100.373C270.471 100.767 271.124 101.023 271.323 101.442C271.538 101.894 271.848 102.349 272.103 102.778C272.424 103.317 272.606 103.863 272.884 104.418C273.279 105.207 273.261 106.045 273.534 106.847C273.776 107.561 273.492 108.397 273.201 109.033C272.971 109.536 272.69 110.414 272.262 110.818C271.801 111.254 271.308 111.669 270.803 112.093C270.162 112.632 269.528 113.399 268.781 113.818C267.888 114.318 266.649 115.457 265.501 115.457" stroke="#F6F6F6" stroke-width="7.77626" stroke-linecap="round"/>
<path d="M256.08 98.4496C256.668 99.5678 257.257 100.686 257.845 101.804C258.506 103.059 259.421 104.17 260.185 105.346C261.175 106.873 261.985 108.524 262.835 110.14C263.484 111.373 263.085 112.06 262.303 112.462C261.823 112.708 261.536 112.83 260.952 112.336C260.593 112.033 259.822 111.392 259.425 111.318C258.695 111.181 257.898 108.952 257.57 108.391C256.876 107.203 256.213 106.029 255.571 104.811C255.146 104.002 254.424 102.901 254.663 102.054C254.725 101.833 255.836 101.065 255.891 101.169C255.896 101.178 255.964 102.148 255.985 102.277C256.091 102.912 256.301 103.513 256.485 104.141C256.942 105.71 257.804 107.22 258.571 108.678C259.303 110.069 260.019 110.732 261.307 111.243C262.039 111.534 262.466 112.042 263.129 112.53" stroke="#F6F6F6" stroke-width="7.77626" stroke-linecap="round"/>
<path d="M291.772 159.525C292.646 159.525 293.519 159.525 294.392 159.525C295.486 159.525 296.352 159.613 297.384 159.761C298.294 159.892 299.15 160.458 299.923 160.818C300.553 161.111 301.444 161.657 301.896 162.117C302.415 162.645 303.123 163.141 303.78 163.557C304.476 163.998 305.28 164.9 305.712 165.515C306.028 165.966 308.224 169.893 306.909 169.893" stroke="#F6F6F6" stroke-width="7.77626" stroke-linecap="round"/>
<path d="M203.64 169.894C205.594 169.894 207.462 169.894 209.418 169.894C211.832 169.894 214.23 169.894 216.641 169.894C219.445 169.894 222.266 169.894 225.084 169.894C226.845 169.894 228.605 169.894 230.365 169.894C232.076 169.894 233.792 169.894 235.502 169.894C245.511 169.894 255.556 169.894 265.542 169.894C272.188 169.894 278.884 169.894 285.55 169.894C287.301 169.894 289.121 169.894 290.823 169.894C292.282 169.894 293.122 169.894 294.363 169.894" stroke="#F6F6F6" stroke-width="7.77626" stroke-linecap="round"/>
<path d="M219.195 188.037C219.232 187.929 219.88 187.623 220.041 187.577C220.476 187.452 220.932 187.38 221.341 187.208C222.209 186.843 223.313 186.78 224.27 186.609C225.539 186.382 226.829 186.198 228.107 185.987C229.198 185.807 230.262 185.445 231.388 185.445C233.161 185.445 234.933 185.445 236.706 185.445C237.714 185.445 238.818 185.734 239.807 185.883C240.893 186.047 242.111 186.259 243.158 186.534C244.03 186.763 245.081 186.662 245.978 186.845C246.841 187.022 247.912 187.033 248.805 187.098C251.154 187.271 253.654 187.104 256.017 187.104C256.861 187.104 257.711 187.126 258.554 187.104C259.629 187.076 260.597 186.754 261.624 186.586C263.007 186.36 264.641 185.891 265.853 185.445" stroke="#F6F6F6" stroke-width="7.77626" stroke-linecap="round"/>
<path d="M237.538 186.93C236.528 186.93 239.625 186.958 240.529 187.365C241.368 187.744 242.386 187.735 243.287 187.883C244.395 188.065 245.549 188.01 246.693 188.01C247.943 188.01 249.266 188.125 250.473 187.883C250.952 187.787 251.5 187.997 251.96 187.808C252.45 187.607 253.221 187.662 253.755 187.598C254.262 187.537 254.775 187.424 255.267 187.343C255.739 187.265 256.388 187.338 256.829 187.17C257.843 186.785 259.1 186.535 260.193 186.383C260.805 186.298 261.396 185.956 261.996 185.858C262.328 185.803 263.109 185.716 263.259 185.445" stroke="#F6F6F6" stroke-width="7.77626" stroke-linecap="round"/>
<path d="M229.562 188.065C231.174 187.867 233.168 188.765 234.722 189.364C236.84 190.181 238.952 191.091 241.136 191.706C242.924 192.209 244.737 192.676 246.557 193.085C247.825 193.371 249.467 193.118 250.773 193.118C253.488 193.118 255.859 192.161 258.424 191.417C259.434 191.125 260.126 190.579 261.061 190.118C261.528 189.888 263.259 189.427 263.259 188.931" stroke="#F6F6F6" stroke-width="7.77626" stroke-linecap="round"/>
<path d="M226.971 187.884C226.996 188.498 227.891 187.071 228.13 187.071C228.581 187.071 229.075 186.665 229.563 186.665C230.007 186.665 230.477 186.206 230.866 185.874C231.204 185.587 231.99 186.43 232.155 185.445" stroke="#F6F6F6" stroke-width="7.77626" stroke-linecap="round"/>
<path d="M262.566 185.445C264.491 185.445 266.522 185.545 268.351 185.545C269.604 185.545 270.702 185.806 271.891 185.844C272.281 185.857 274.469 186.143 273.273 186.143C272.093 186.143 270.913 186.143 269.732 186.143C268.71 186.143 267.483 186.576 266.538 186.819C265.703 187.033 264.796 187.337 263.87 187.434C262.778 187.548 261.821 188.037 260.666 188.037" stroke="#F6F6F6" stroke-width="7.77626" stroke-linecap="round"/>
<path d="M37.3972 423.437C47.033 414.616 57.9525 404.955 69.7866 399.122C74.5398 396.779 78.7504 396.936 83.9031 396.996C89.5293 397.061 95.3492 397.757 100.921 398.542C105.056 399.124 111.74 399.91 115.351 402.175C116.827 403.101 119.689 404.466 120.684 405.693C124.475 410.364 126.7 403.341 127.194 401.016C127.688 398.689 129.28 396.109 130.723 394.212C132.183 392.293 135.26 390.411 136.212 388.298C137.887 384.584 143.841 383.737 147.349 382.383C151.826 380.656 157.248 379.208 161.073 376.276C161.309 376.095 168.674 380.271 169.347 380.644C172.374 382.322 175.031 383.775 178.562 383.775C183.328 383.775 188.887 378.941 193.07 377.126C198.781 374.649 204.117 371.247 209.932 369.163C220.858 365.246 232.619 364.292 244.203 364.292C250.02 364.292 252.535 372.642 259.026 372.642C265.874 372.642 271.377 367.913 277.534 365.452C282.301 363.547 286.871 359.421 292.199 359.421C307.87 359.421 322.658 358.993 337.725 363.944C345.721 366.572 354.417 373.741 363.174 371.521C371.97 369.291 378.622 360.745 387.643 358.571C391.439 357.656 395.704 356.638 399.642 356.638C407.39 356.638 413.478 355.441 419.248 360.813C423.684 364.944 431.074 362.205 436.58 362.205C444.808 362.205 453.473 361.411 461.597 362.746C466.551 363.56 472.751 363.904 476.772 367.075C477.842 367.919 479.017 369.699 479.596 370.902C481.133 374.102 484.287 376.714 486.615 379.368C491.328 384.744 495.804 390.216 501.123 394.908C501.916 395.607 502.957 396.43 503.947 396.841C505.066 397.306 506.641 397.134 507.829 397.382C510.424 397.925 512.756 399.242 515.24 400.127C527.521 404.499 542.919 410.408 552.648 419.262C556.829 423.066 563.942 428.657 563.942 434.917C563.942 437.701 563.942 440.484 563.942 443.267C563.942 446.164 561.601 446.927 560.256 449.182C557.225 454.261 552.223 460.564 547.59 464.18C537.359 472.165 529.124 476.2 515.789 477.555C502.562 478.9 489.764 481.189 476.419 481.189C472.65 481.189 469.476 481.528 466.224 479.488C465.593 479.092 463.887 476.628 463.715 476.628C462.388 476.628 459.968 479.253 458.617 479.798C454.578 481.426 449.615 482.111 445.324 482.89C431.372 485.424 417.031 485.918 403.053 488.457C383.368 492.031 358.777 495.462 340.039 487.181C335.401 485.132 331.948 481.209 327.491 479.256C326.682 478.902 325.065 479.735 324.314 480.145C321.675 481.591 318.281 482.005 315.335 482.426C289.368 486.142 263.892 496.497 237.381 496.497C226.978 496.497 218.595 494.764 209.03 490.273C200.978 486.494 193.04 480.154 186.718 473.922C184.562 471.797 177.999 475.656 175.346 476.318C164.735 478.971 154.668 481.709 143.624 481.151C131.222 480.524 118.789 474.571 106.725 472.144C97.9009 470.368 88.9759 466.916 80.5308 463.832C72.0698 460.743 63.5157 457.94 55.0428 454.903C51.644 453.684 47.5705 451.965 43.9064 451.965C42.2876 451.965 41.0329 452.661 39.4754 452.661C36.6315 452.661 33.8222 453.682 31.0055 454.052C26.3307 454.667 21.7965 454.748 17.0851 454.748C12.0411 454.748 4.22345 456.951 4.22345 450.225C4.22345 445.778 3.41919 440.7 5.28219 436.618C7.23537 432.339 9.04359 429.164 12.5365 426.065C14.1701 424.616 21.2847 423.345 23.5552 422.818C29.991 421.325 37.1361 422.045 43.7496 422.045" stroke="#F6F6F6" stroke-width="7.77626" stroke-linecap="round"/>
</svg>
