<svg width="550" height="562" viewBox="0 0 550 562" fill="none" xmlns="http://www.w3.org/2000/svg">
<g filter="url(#filter0_f_34_512)">
<path d="M260.632 132.888L222.608 229.348L187.77 173.372L179.239 280.705L131.689 275.144L148.552 344.817L163.838 352.134L177.376 358.614L225.576 381.685L325.945 429.725L310.51 392.418L392.728 341.51L319.748 323.518L405.571 277.621L334.448 278.428L419.718 224.12L338.521 245.528L399.574 142.363L287.139 208.638L260.632 132.888Z" fill="white"/>
<path d="M260.632 132.888L222.608 229.348L187.77 173.372L179.239 280.705L131.689 275.144L148.552 344.817L163.838 352.134L177.376 358.614L225.576 381.685L325.945 429.725L310.51 392.418L392.728 341.51L319.748 323.518L405.571 277.621L334.448 278.428L419.718 224.12L338.521 245.528L399.574 142.363L287.139 208.638L260.632 132.888Z" stroke="white" stroke-width="2.10879"/>
</g>
<defs>
<filter id="filter0_f_34_512" x="0.704224" y="0.259415" width="549.184" height="561.209" filterUnits="userSpaceOnUse" color-interpolation-filters="sRGB">
<feFlood flood-opacity="0" result="BackgroundImageFix"/>
<feBlend mode="normal" in="SourceGraphic" in2="BackgroundImageFix" result="shape"/>
<feGaussianBlur stdDeviation="64.8022" result="effect1_foregroundBlur_34_512"/>
</filter>
</defs>
</svg>
