<svg width="519" height="822" viewBox="0 0 519 822" fill="none" xmlns="http://www.w3.org/2000/svg">
<path d="M476.025 297.639L325.905 50.7416C322.758 45.5661 318.826 40.9115 314.249 36.9445C301.04 25.4967 283.4 20.5639 266.17 23.4998L264.467 23.7899C256.743 25.1061 249.337 27.8727 242.642 31.9436L-381.205 411.258C-391.36 417.432 -400.315 425.391 -407.639 434.751L-413.485 442.224C-419.786 450.277 -423.972 459.778 -425.662 469.862C-428.094 484.37 -425.227 499.268 -417.584 511.837L-264.284 763.966C-258.535 773.421 -250.499 781.279 -240.917 786.814C-228.008 794.271 -212.955 797.135 -198.21 794.94L-195.396 794.521C-185.625 793.067 -176.244 789.674 -167.804 784.542L457.426 404.387C469.563 397.007 479.114 386.047 484.765 373.015C491.206 358.164 492.195 341.514 487.558 326.004L485.343 318.596C483.145 311.241 480.013 304.198 476.025 297.639Z" stroke="white" stroke-width="5.18418"/>
<path d="M357.853 160.473L294.957 57.0298C294.384 56.0871 293.743 55.1873 293.039 54.3377L291.742 52.7719C287.634 47.8136 281.294 45.2747 274.899 46.0273C272.191 46.3461 269.583 47.2443 267.253 48.661L167.397 109.376C164.526 111.122 162.081 113.486 160.241 116.298L159.948 116.745C157.011 121.232 155.884 126.666 156.793 131.951C157.244 134.577 158.187 137.095 159.572 139.372L224.884 246.79C225.89 248.445 227.096 249.97 228.474 251.331L229.197 252.046C233.856 256.65 240.354 258.886 246.859 258.125C249.94 257.765 252.907 256.744 255.557 255.133L352.492 196.194C356.887 193.522 360.225 189.414 361.942 184.564C363.873 179.11 363.612 173.12 361.214 167.854L357.853 160.473Z" stroke="white" stroke-width="5.18418"/>
<ellipse cx="267.741" cy="106.316" rx="38.9547" ry="36.9739" transform="rotate(58.6994 267.741 106.316)" fill="#D9D9D9"/>
<ellipse cx="254.701" cy="199.244" rx="38.9547" ry="36.9739" transform="rotate(58.6994 254.701 199.244)" fill="#D9D9D9"/>
<ellipse cx="327.566" cy="170.394" rx="19.1472" ry="17.8267" transform="rotate(58.6994 327.566 170.394)" fill="#D9D9D9"/>
<circle cx="181.711" cy="130.034" r="10.564" transform="rotate(58.6994 181.711 130.034)" fill="#D9D9D9"/>
</svg>
