<svg width="544" height="583" viewBox="0 0 544 583" fill="none" xmlns="http://www.w3.org/2000/svg">
<g filter="url(#filter0_f_34_510)">
<path d="M132.021 237.239L188.039 324.488L122.259 320.02L204.343 389.7L172.029 425.022L238.41 452.082L253.284 443.96L266.456 436.766L313.356 411.154L411.016 357.821L371.726 348.528L378.502 252.063L321.233 300.747L334.182 204.288L293.25 262.457L299.052 161.528L268.942 239.916L220.95 130.065L208.971 260.029L132.021 237.239Z" fill="white"/>
<path d="M132.021 237.239L188.039 324.488L122.259 320.02L204.343 389.7L172.029 425.022L238.41 452.082L253.284 443.96L266.456 436.766L313.356 411.154L411.016 357.821L371.726 348.528L378.502 252.063L321.233 300.747L334.182 204.288L293.25 262.457L299.052 161.528L268.942 239.916L220.95 130.065L208.971 260.029L132.021 237.239Z" stroke="white" stroke-width="2.10879"/>
</g>
<defs>
<filter id="filter0_f_34_510" x="-10.4696" y="0.038208" width="554.01" height="582.814" filterUnits="userSpaceOnUse" color-interpolation-filters="sRGB">
<feFlood flood-opacity="0" result="BackgroundImageFix"/>
<feBlend mode="normal" in="SourceGraphic" in2="BackgroundImageFix" result="shape"/>
<feGaussianBlur stdDeviation="64.8022" result="effect1_foregroundBlur_34_510"/>
</filter>
</defs>
</svg>
