<svg width="569" height="561" viewBox="0 0 569 561" fill="none" xmlns="http://www.w3.org/2000/svg">
<g filter="url(#filter0_f_34_509)">
<path d="M133.329 260.393L214.228 325.245L150.453 341.97L250.461 381.863L231.087 425.64L302.63 430.138L314.14 417.7L324.334 406.684L360.628 367.463L436.204 285.792L396 289.503L371.686 195.907L332.914 260.301L314.453 164.743L294.189 232.923L267.529 135.406L263.966 219.302L183.473 130.469L213.529 257.476L133.329 260.393Z" fill="white"/>
<path d="M133.329 260.393L214.228 325.245L150.453 341.97L250.461 381.863L231.087 425.64L302.63 430.138L314.14 417.7L324.334 406.684L360.628 367.463L436.204 285.792L396 289.503L371.686 195.907L332.914 260.301L314.453 164.743L294.189 232.923L267.529 135.406L263.966 219.302L183.473 130.469L213.529 257.476L133.329 260.393Z" stroke="white" stroke-width="2.10879"/>
</g>
<defs>
<filter id="filter0_f_34_509" x="0.852661" y="0.156769" width="567.597" height="560.67" filterUnits="userSpaceOnUse" color-interpolation-filters="sRGB">
<feFlood flood-opacity="0" result="BackgroundImageFix"/>
<feBlend mode="normal" in="SourceGraphic" in2="BackgroundImageFix" result="shape"/>
<feGaussianBlur stdDeviation="64.8022" result="effect1_foregroundBlur_34_509"/>
</filter>
</defs>
</svg>
