<svg width="537" height="876" viewBox="0 0 537 876" fill="none" xmlns="http://www.w3.org/2000/svg">
<path d="M213.074 65.0236L36.4409 293.705C32.7383 298.499 29.8037 303.839 27.7421 309.534C21.7931 325.97 23.5149 344.205 32.4352 359.237L33.3167 360.722C37.3156 367.461 42.5541 373.381 48.7554 378.171L626.574 824.477C635.98 831.742 646.622 837.247 657.986 840.726L667.058 843.504C676.835 846.497 687.205 846.997 697.225 844.958C711.639 842.025 724.518 834.006 733.51 822.364L913.885 588.838C920.65 580.08 925.102 569.761 926.833 558.83C929.164 544.106 926.439 529.027 919.102 516.05L917.702 513.574C912.84 504.975 906.308 497.435 898.49 491.396L319.39 44.1006C308.149 35.4178 294.492 30.4327 280.301 29.8314C264.127 29.1461 248.231 34.194 235.416 44.0848L229.294 48.8095C223.217 53.4995 217.766 58.9486 213.074 65.0236Z" stroke="white" stroke-width="5.18418"/>
<path d="M127.414 224.528L53.4096 320.34C52.7351 321.213 52.1252 322.134 51.5845 323.096L50.5881 324.868C47.4329 330.481 47.3368 337.31 50.3328 343.009C51.6016 345.423 53.3754 347.535 55.5334 349.202L148.022 420.64C150.681 422.694 153.766 424.128 157.05 424.837L157.573 424.95C162.815 426.083 168.291 425.187 172.899 422.442C175.188 421.079 177.2 419.296 178.829 417.187L255.677 317.695C256.861 316.162 257.852 314.49 258.629 312.715L259.037 311.783C261.663 305.784 261.421 298.915 258.377 293.116C256.936 290.369 254.919 287.966 252.464 286.07L162.682 216.722C158.61 213.578 153.579 211.935 148.436 212.071C142.652 212.225 137.154 214.617 133.098 218.744L127.414 224.528Z" stroke="white" stroke-width="5.18418"/>
<ellipse cx="109.179" cy="328.066" rx="38.9547" ry="36.9739" transform="rotate(-52.3176 109.179 328.066)" fill="#D9D9D9"/>
<ellipse cx="200.603" cy="306.911" rx="38.9547" ry="36.9739" transform="rotate(-52.3176 200.603 306.911)" fill="#D9D9D9"/>
<ellipse cx="147.537" cy="249.241" rx="19.1472" ry="17.8267" transform="rotate(-52.3176 147.537 249.241)" fill="#D9D9D9"/>
<circle cx="162.175" cy="399.869" r="10.564" transform="rotate(-52.3176 162.175 399.869)" fill="#D9D9D9"/>
</svg>
