<svg width="466" height="738" viewBox="0 0 466 738" fill="none" xmlns="http://www.w3.org/2000/svg">
<path d="M330.058 662.258L442.573 396.11C444.931 390.531 446.408 384.619 446.95 378.586C448.513 361.177 442.2 343.983 429.744 331.721L428.513 330.509C422.928 325.013 416.354 320.623 409.137 317.572L-263.351 33.2759C-274.298 28.6482 -285.991 26.0373 -297.866 25.5691L-307.347 25.1954C-317.564 24.7927 -327.719 26.9523 -336.888 31.4777C-350.079 37.9881 -360.489 49.0254 -366.217 62.5745L-481.115 334.361C-485.424 344.554 -487.1 355.667 -485.987 366.677C-484.489 381.509 -478.01 395.396 -467.608 406.074L-465.623 408.112C-458.73 415.188 -450.492 420.814 -441.394 424.661L232.586 709.587C245.669 715.118 260.145 716.458 274.021 713.422C289.835 709.962 303.919 701.03 313.791 688.199L318.506 682.07C323.187 675.986 327.069 669.328 330.058 662.258Z" stroke="white" stroke-width="5.18418"/>
<path d="M372.236 486.188L419.377 374.679C419.806 373.663 420.161 372.617 420.439 371.549L420.951 369.581C422.571 363.349 420.924 356.721 416.574 351.974C414.732 349.963 412.478 348.373 409.967 347.311L302.325 301.805C299.23 300.497 295.882 299.896 292.526 300.047L291.991 300.072C286.634 300.313 281.566 302.575 277.81 306.403C275.944 308.305 274.453 310.542 273.416 312.996L224.464 428.789C223.71 430.573 223.177 432.443 222.878 434.357L222.721 435.362C221.711 441.833 223.696 448.412 228.117 453.245C230.211 455.533 232.773 457.343 235.63 458.551L340.123 502.725C344.861 504.728 350.146 505.034 355.083 503.592C360.637 501.969 365.344 498.254 368.214 493.23L372.236 486.188Z" stroke="white" stroke-width="5.18418"/>
<ellipse cx="363.479" cy="381.422" rx="38.9547" ry="36.9739" transform="rotate(112.916 363.479 381.422)" fill="#D9D9D9"/>
<ellipse cx="280.47" cy="425.178" rx="38.9547" ry="36.9739" transform="rotate(112.916 280.47 425.178)" fill="#D9D9D9"/>
<ellipse cx="346.48" cy="467.422" rx="19.1472" ry="17.8267" transform="rotate(112.916 346.48 467.422)" fill="#D9D9D9"/>
<circle cx="293.935" cy="325.498" r="10.564" transform="rotate(112.916 293.935 325.498)" fill="#D9D9D9"/>
</svg>
