<svg width="482" height="759" viewBox="0 0 482 759" fill="none" xmlns="http://www.w3.org/2000/svg">
<path d="M35.2497 442.277L156.778 704.432C159.325 709.928 162.712 714.993 166.816 719.448C178.659 732.303 195.636 739.18 213.087 738.192L214.812 738.094C222.635 737.651 230.304 735.731 237.413 732.436L899.811 425.366C910.594 420.367 920.384 413.461 928.709 404.98L935.356 398.209C942.519 390.912 947.742 381.94 950.551 372.108C954.592 357.964 953.411 342.838 947.224 329.492L823.122 61.7833C818.468 51.7433 811.362 43.0356 802.46 36.462C790.468 27.6067 775.829 23.0747 760.931 23.6047L758.088 23.7059C748.216 24.0571 738.514 26.3782 729.552 30.5327L65.6849 338.284C52.798 344.258 42.0796 354.079 35.0049 366.396C26.942 380.434 24.0949 396.867 26.9656 412.799L28.3369 420.409C29.6981 427.964 32.0213 435.313 35.2497 442.277Z" stroke="white" stroke-width="5.18418"/>
<path d="M137.318 591.815L188.235 701.65C188.699 702.651 189.235 703.617 189.84 704.54L190.953 706.242C194.48 711.629 200.496 714.862 206.935 714.83C209.662 714.816 212.354 714.216 214.828 713.069L320.855 663.918C323.903 662.504 326.597 660.428 328.741 657.841L329.082 657.429C332.503 653.299 334.232 648.026 333.92 642.672C333.765 640.012 333.11 637.404 331.99 634.987L279.116 520.931C278.302 519.174 277.275 517.523 276.058 516.016L275.419 515.224C271.305 510.128 265.098 507.178 258.549 507.206C255.447 507.219 252.385 507.901 249.571 509.205L146.646 556.918C141.979 559.082 138.202 562.79 135.953 567.417C133.423 572.621 133.011 578.603 134.805 584.104L137.318 591.815Z" stroke="white" stroke-width="5.18418"/>
<ellipse cx="220.797" cy="655.72" rx="38.9547" ry="36.9739" transform="rotate(-114.871 220.797 655.72)" fill="#D9D9D9"/>
<ellipse cx="244.163" cy="564.837" rx="38.9547" ry="36.9739" transform="rotate(-114.871 244.163 564.837)" fill="#D9D9D9"/>
<ellipse cx="168.526" cy="585.345" rx="19.1472" ry="17.8267" transform="rotate(-114.871 168.526 585.345)" fill="#D9D9D9"/>
<circle cx="308.945" cy="641.784" r="10.564" transform="rotate(-114.871 308.945 641.784)" fill="#D9D9D9"/>
</svg>
