<svg width="582" height="546" viewBox="0 0 582 546" fill="none" xmlns="http://www.w3.org/2000/svg">
<g filter="url(#filter0_f_34_508)">
<path d="M222.134 390.244L316.974 348.342L302.421 412.648L383.919 342.284L413.84 379.655L450.807 318.238L445.074 302.291L439.996 288.167L421.918 237.88L384.275 133.167L369.037 170.556L274.769 148.993L314.045 213.081L220.734 185.42L271.9 234.828L173.071 213.541L245.881 255.372L129.946 285.86L256.511 317.726L222.134 390.244Z" fill="white"/>
<path d="M222.134 390.244L316.974 348.342L302.421 412.648L383.919 342.284L413.84 379.655L450.807 318.238L445.074 302.291L439.996 288.167L421.918 237.88L384.275 133.167L369.037 170.556L274.769 148.993L314.045 213.081L220.734 185.42L271.9 234.828L173.071 213.541L245.881 255.372L129.946 285.86L256.511 317.726L222.134 390.244Z" stroke="white" stroke-width="2.10879"/>
</g>
<defs>
<filter id="filter0_f_34_508" x="0.0733643" y="0.617607" width="581.5" height="544.526" filterUnits="userSpaceOnUse" color-interpolation-filters="sRGB">
<feFlood flood-opacity="0" result="BackgroundImageFix"/>
<feBlend mode="normal" in="SourceGraphic" in2="BackgroundImageFix" result="shape"/>
<feGaussianBlur stdDeviation="64.8022" result="effect1_foregroundBlur_34_508"/>
</filter>
</defs>
</svg>
