<svg width="1115" height="664" viewBox="0 0 1115 664" fill="none" xmlns="http://www.w3.org/2000/svg">
<path d="M460.925 343.75H490.367C500.135 343.75 509.603 347.134 517.158 353.325V353.325C522.971 358.088 529.947 361.216 537.37 362.385L555.431 365.231C563.1 366.44 570.953 365.513 578.129 362.552L590.808 357.321C599.275 353.828 609.018 355.89 615.343 362.515V362.515C622.291 369.792 623.479 380.832 618.238 389.421L596.284 425.401M460.925 343.75L438.928 337.214C422.534 332.342 409.302 320.184 403.065 304.26V304.26C400.539 297.811 399.242 290.946 399.242 284.02V258.083C399.242 253.94 400.46 249.889 402.744 246.433L410.934 234.043C416.86 225.078 430.415 226.448 434.426 236.418V236.418C436.005 240.343 439.353 243.286 443.448 244.348L492.514 257.072C495.431 257.829 498.431 258.212 501.444 258.212V258.212C516.242 258.212 529.495 249.051 534.724 235.208L535.621 232.832C540.327 220.373 551.029 211.151 564.047 208.338L573.246 206.35C577.171 205.501 581.175 205.074 585.191 205.074H588.468C613.085 205.074 636.556 194.671 653.09 176.433L658.153 170.848C664.848 163.462 670.449 155.155 674.785 146.179L697.566 99.0175C699.711 94.578 702.531 90.4979 705.926 86.9227L778.672 10.3183C782.103 6.70516 788.187 9.13354 788.187 14.1162V14.1162C788.187 14.4085 788.164 14.7003 788.117 14.9889L784.661 36.5602C782.453 50.339 778.377 63.7526 772.547 76.431V76.431C769.271 83.5557 765.454 90.4191 761.13 96.961L757.345 102.686L743.815 123.155C735.753 135.352 729.687 148.757 725.847 162.864L721.565 178.598C720.298 183.254 718.247 187.66 715.5 191.627L703.933 208.33C702.01 211.107 701.794 214.724 703.373 217.71V217.71C705.73 222.167 711.275 223.837 715.701 221.423L760.297 197.104C773.789 189.747 789.614 187.925 804.426 192.024L846.75 203.736C849.957 204.624 853.27 205.074 856.598 205.074V205.074C868.506 205.074 879.684 210.817 886.617 220.5L887.845 222.213C894.243 231.148 903.958 237.142 914.813 238.853L921.027 239.832C932.688 241.67 943.472 247.143 951.84 255.471L952.301 255.929C964.478 268.049 981.416 274.125 998.521 272.507V272.507C1016.1 270.845 1033.48 277.309 1045.69 290.057L1055.98 300.79C1069.01 314.387 1077.37 331.785 1079.84 350.456L1081.68 364.379C1083.61 378.972 1088.63 392.985 1096.4 405.483L1100.92 412.743C1108.18 424.405 1112.02 437.864 1112.02 451.598V451.598C1112.02 470.552 1104.71 488.773 1091.6 502.464L1082.63 511.834C1078.25 516.413 1074.28 521.376 1070.79 526.665L1057.19 547.229L1046.15 563.94C1043.29 568.255 1039.23 571.628 1034.46 573.631V573.631C1029.2 575.842 1024.81 579.711 1021.95 584.651L1018.03 591.42C1015.6 595.634 1012.55 599.464 1008.99 602.787L995.578 615.322C988.696 621.753 981.19 627.481 973.172 632.423L949.222 647.185C942.517 651.317 934.797 653.505 926.921 653.505H908.518C902.084 653.505 896.309 649.554 893.977 643.557V643.557C891.254 636.552 883.922 632.485 876.537 633.881L847.258 639.418C843.301 640.166 839.446 641.376 835.772 643.023L827.187 646.871C806.128 656.311 782.954 660.034 759.998 657.667L757.318 657.39C732.65 654.846 709.101 645.791 689.083 631.154V631.154C675.309 621.083 663.493 608.577 654.219 594.255L638.639 570.194C631.16 558.644 620.183 549.788 607.313 544.92L598.892 541.735C597.168 541.083 595.34 540.749 593.496 540.749H585.887C574.83 540.749 569.453 527.237 577.488 519.64V519.64C580.64 516.659 585.137 515.573 589.302 516.785L616.451 524.683C621.79 526.236 627.126 522.232 627.126 516.671V516.671C627.126 515.457 626.861 514.258 626.349 513.156L604.852 466.875M460.925 343.75L432.445 369.04C425.169 375.5 417.436 381.428 409.306 386.775L401.812 391.704M604.852 466.875L596.284 425.401M604.852 466.875V466.875C587.834 454.86 568.953 445.73 548.968 439.852L517.467 430.585L497.413 427.085C481.145 424.245 464.59 423.409 448.119 424.596L436.937 425.401M596.284 425.401L560.093 414.934C545.431 410.693 530.335 408.127 515.094 407.283L467.778 404.664H424.943H405.692C398.683 404.664 395.956 395.556 401.812 391.704V391.704M436.937 425.401L380.247 427.443C370.079 427.809 359.954 428.942 349.957 430.833L255.315 448.73M436.937 425.401L255.315 440.954M421.516 527.789L467.616 518.847C481.317 516.19 494.422 511.064 506.29 503.719L524.107 492.692C525.379 491.905 526.482 490.871 527.349 489.653V489.653C532.227 482.8 528.128 473.215 519.805 472.007L412.949 456.506L255.315 440.954M421.516 527.789V528.843C421.516 536.529 424.249 543.965 429.227 549.821V549.821C434.204 555.678 436.937 563.114 436.937 570.8V608.624C436.937 619.195 433.205 629.427 426.4 637.517L419.256 646.008C415.258 650.761 409.364 653.505 403.152 653.505V653.505C391.53 653.505 382.108 644.083 382.108 632.46V608.143V588.893C382.108 569.363 376.128 550.3 364.974 534.269V534.269M421.516 527.789L407.578 494.987C406.609 492.708 405.021 490.745 402.994 489.321V489.321C394.206 483.148 382.108 489.435 382.108 500.175V504.74C382.108 507.932 381.13 511.049 379.307 513.67L364.974 534.269M364.974 534.269H360.656C343.049 534.269 325.517 531.969 308.506 527.427L275.876 518.716M275.876 518.716L255.315 509.644M275.876 518.716V540.749V540.749C275.876 552.527 272.059 563.989 264.997 573.415L252.858 589.619C248.793 595.046 244.256 600.103 239.302 604.732L235.12 608.64C223.505 619.493 210.503 628.76 196.453 636.199L183.911 642.84C161.04 654.95 135.554 661.281 109.675 661.281V661.281V661.281C88.942 661.281 73.8642 641.596 79.2649 621.579L85.6873 597.775L92.2789 575.837C98.9242 553.72 115.489 535.958 137.09 527.789V527.789L180.982 513.661C204.998 505.93 230.606 504.547 255.315 509.644V509.644M275.876 518.716L265.596 510.292M255.315 501.868L173.071 466.875M255.315 501.868V448.73M255.315 501.868L265.596 510.292M173.071 466.875L162.791 459.409M173.071 466.875L85.6873 481.131V481.131C77.1561 483.712 68.5531 477.327 68.5531 468.414V453.584C68.5531 442.981 75.4306 433.602 85.5439 430.414L109.675 422.809M109.675 422.809L130.236 435.769L162.791 459.409M109.675 422.809V422.809C109.675 409.909 121.244 400.087 133.974 402.18L149.084 404.664M149.084 404.664V404.664C158.05 407.208 167.542 407.246 176.529 404.774L200.486 398.184M149.084 404.664L186.779 367.079L217.62 329.494M200.486 398.184L287.728 388.757C300.461 387.381 311.386 379.068 316.108 367.163V367.163C317.826 362.832 320.403 358.893 323.684 355.584L340.953 338.167C346.462 332.611 349.553 325.104 349.553 317.28V317.28C349.553 311.711 351.12 306.254 354.076 301.534L363.913 285.826C364.606 284.719 364.974 283.44 364.974 282.134V282.134C364.974 276.732 359.087 273.391 354.449 276.161L304.869 305.768C301.55 307.75 297.96 309.237 294.212 310.182L217.62 329.494M200.486 398.184L235.377 425.401M255.315 440.954L235.377 425.401M255.315 440.954V448.73M255.315 440.954V509.644M102.821 398.184L99.7661 372.763C98.3988 361.386 94.1512 350.546 87.4254 341.269V341.269C75.4891 324.805 71.6313 303.829 76.9285 284.195L77.8271 280.864C82.8687 262.178 80.4479 242.264 71.0764 225.33L54.8458 196.001L7.56083 131.174C4.424 126.873 7.49572 120.831 12.8188 120.831V120.831C13.4193 120.831 14.017 120.914 14.5947 121.078L54.8458 132.495L87.2337 139.355C94.1574 140.821 100.814 143.345 106.97 146.837V146.837C114.419 151.063 122.591 153.865 131.067 155.098L138.581 156.191C154.524 158.51 169.757 164.323 183.192 173.215L195.173 181.144C209.992 190.953 222.73 203.589 232.657 218.329L252.118 247.224C259.651 258.409 262.437 272.127 259.863 285.365V285.365C256.981 300.188 247.666 312.965 234.436 320.243L217.62 329.494M217.62 329.494L216.181 323.617C211.455 304.312 203.908 285.809 193.783 268.705L181.143 247.351C165.68 221.23 144.534 198.925 119.273 182.093L85.6873 159.712M130.236 440.954V440.954C122.274 445.47 125.16 457.588 134.303 458.03L162.791 459.409M401.812 391.704L349.553 408.553L300.111 420.488C279.513 425.461 258.262 427.164 237.135 425.537L235.377 425.401M265.596 510.292L263.029 514.661C257.894 523.4 252.109 531.741 245.723 539.613L231.886 556.67C216.784 575.284 198.493 591.066 177.866 603.276L130.236 631.472" stroke="white" stroke-width="5.18418"/>
<path d="M806.154 475.865L813.14 425.846C814.187 418.343 814.029 410.721 812.67 403.268L812.265 401.048C808.427 379.998 814.927 358.385 829.74 342.944V342.944C835.664 336.769 842.722 331.792 850.528 328.285L872.232 318.534C893.278 309.08 917.482 309.713 938.004 320.257L953.022 327.972C969.1 336.233 979.209 352.791 979.209 370.867V370.867C979.209 378.955 981.243 386.913 985.124 394.008L994.297 410.779C995.658 413.267 996.774 415.88 997.631 418.583V418.583C1003.88 438.296 995.517 459.695 977.563 469.954L974.795 471.535C969.783 474.398 964.295 476.331 958.595 477.24L901.683 486.314C896.354 487.163 890.894 486.546 885.889 484.528L867.142 476.967C865.536 476.319 863.695 476.846 862.675 478.245V478.245C860.52 481.199 855.843 479.675 855.843 476.018V459.765C855.843 459.188 855.898 458.612 856.008 458.045L863.29 420.324C864.035 416.463 864.41 412.54 864.41 408.608V397.603C864.41 384.471 870.775 372.153 881.487 364.556L885.232 361.9C901.236 350.549 923.392 354.168 934.953 370.021V370.021C938.143 374.395 940.302 379.435 941.266 384.762L946.654 414.519M946.654 414.519L967.215 452.371M946.654 414.519V437.01C946.654 445.943 940.351 453.635 931.593 455.39V455.39C921.795 457.355 912.178 451.288 909.732 441.598L906.522 428.881C905.865 426.278 905.532 423.603 905.532 420.919V409.666C905.532 408.563 905.761 407.471 906.203 406.46V406.46C909.081 399.883 918.496 400.136 921.017 406.858L927.807 424.961" stroke="white" stroke-width="5.18418"/>
<path d="M705.063 223.219L654.031 271.99L633.678 289.395C613.854 306.346 600.592 329.705 596.195 355.415V355.415" stroke="white" stroke-width="5.18418"/>
<path d="M664.335 269.878L729.045 286.479C741.291 289.621 746.157 304.397 738.173 314.2V314.2C735.582 317.381 731.946 319.54 727.912 320.291L709.32 323.754C693.869 326.631 679.868 334.706 669.639 346.638L651.627 367.649C646.073 374.127 641.764 381.575 638.916 389.618L632.697 407.184C626.387 425.003 632.268 444.859 647.264 456.368L650.969 459.211C659.395 465.678 664.335 475.695 664.335 486.317V486.317V486.317C664.335 505.847 678.264 522.6 697.466 526.164L718.015 529.978C728.615 531.946 738.568 536.493 746.994 543.218L762.882 555.899C766.462 558.756 769.814 561.889 772.908 565.267L784.858 578.319C793.941 588.24 806.773 593.889 820.223 593.889V593.889H844.581H878.286C890.656 593.889 902.155 587.523 908.722 577.04V577.04C915.29 566.557 926.789 560.192 939.159 560.192H960.472C972.802 560.192 984.871 556.639 995.234 549.958V549.958C1011.86 539.241 1022.61 521.455 1024.37 501.754L1029.7 442.252L1034.08 404.333C1037.47 375.084 1027.24 345.901 1006.34 325.163V325.163C989.007 307.964 965.773 298.017 941.365 297.345L854.394 294.952C814.495 293.853 776.417 311.651 751.669 342.967L735.187 363.821C728.212 372.648 724.417 383.57 724.417 394.82V394.82C724.417 411.502 732.738 427.085 746.601 436.365L763.621 447.758C770.35 452.263 773.672 460.402 772.017 468.329V468.329C769.897 478.482 775.944 488.558 785.902 491.462L852.7 510.942L904.663 532.975" stroke="white" stroke-width="5.18418"/>
</svg>
