<svg width="138" height="195" viewBox="0 0 138 195" fill="none" xmlns="http://www.w3.org/2000/svg">
<path d="M54.5261 1.0178L56.9997 1.03233L59.94 0.713974C62.1164 0.478328 64.315 0.546723 66.4726 0.917192C70.8746 1.67305 74.9717 3.66287 78.2875 6.65531L80.4473 8.60454C85.2037 12.8972 88.6351 18.4591 90.3377 24.6358L91.3215 28.2048C92.451 32.3026 93.0112 36.5364 92.9862 40.787L92.8033 71.939C92.8011 72.3038 92.7731 72.6681 92.7194 73.029L92.28 75.9836C92.084 77.3011 92.7054 78.6061 93.8518 79.2844C94.201 79.491 94.5855 79.6309 94.9857 79.6971L99.5208 80.4464C100.027 80.53 100.467 80.8385 100.719 81.2852C100.974 81.7386 101.424 82.0492 101.938 82.1274L102.797 82.2577C104.594 82.5309 106.298 81.3712 106.703 79.5988L110.002 65.1712C110.097 64.757 110.287 64.3706 110.557 64.043C111.149 63.3261 112.065 62.9601 112.988 63.0719L130.754 65.2246C131.546 65.3206 132.226 65.8338 132.536 66.5693C132.73 67.0285 132.763 67.5394 132.632 68.02L131.055 73.785C130.345 76.3799 131.754 79.0835 134.288 79.9877L135.513 80.4248C136.164 80.6572 136.679 81.165 136.922 81.8127C137.183 82.5127 137.096 83.2955 136.686 83.9206L133.304 89.0803C132.905 89.6886 132.616 90.3621 132.45 91.0701L132.2 92.1392C131.988 93.0404 132.139 93.9886 132.619 94.78C133.309 95.9171 133.302 97.3453 132.601 98.4758L130.149 102.431C129.817 102.967 129.531 103.53 129.295 104.115L126.301 111.502C125.796 112.749 125.532 114.082 125.524 115.428L125.524 115.552C125.515 117.089 125.155 118.602 124.471 119.978C124.071 120.783 123.781 121.638 123.608 122.52L123.033 125.447L121.61 137.51L121.577 143.162C121.563 145.538 121.24 147.901 120.615 150.193C119.956 152.606 118.97 154.918 117.683 157.063L115.801 160.198L114.204 162.872C112.407 165.879 109.666 168.207 106.407 169.493L105.167 169.982C105.01 170.044 104.86 170.122 104.718 170.213C104.159 170.576 103.765 171.144 103.622 171.795L103.21 173.665C103.097 174.18 103.377 174.701 103.87 174.889C104.433 175.104 104.706 175.743 104.472 176.298L104.028 177.348C103.887 177.684 103.6 177.938 103.249 178.038L102.727 178.187C101.907 178.421 101.765 179.523 102.499 179.958C102.796 180.134 102.978 180.454 102.976 180.8L102.968 182.087C102.965 182.735 102.765 183.367 102.395 183.9L102.145 184.261C101.612 185.028 101.324 185.939 101.318 186.874L101.289 191.83C101.283 192.875 100.431 193.718 99.3848 193.712L10.241 193.189C9.32144 193.183 8.70688 192.239 9.07385 191.396C9.10505 191.325 9.14277 191.256 9.18652 191.191L10.1305 189.792C10.6602 189.007 10.5939 187.963 9.96917 187.251C9.46443 186.676 9.31539 185.871 9.5809 185.153L10.75 181.994C10.9643 181.415 11.2471 180.863 11.5924 180.352L12.6738 178.749C12.8743 178.452 12.9824 178.102 12.9845 177.743L12.9861 177.474C12.9911 176.619 12.302 175.922 11.4469 175.917C11.2205 175.916 10.9971 175.865 10.7926 175.768L9.6606 175.231C7.99118 174.439 6.69051 173.036 6.02829 171.311L4.42985 167.147C3.87813 165.71 3.50959 164.209 3.33291 162.68L2.31286 153.851L1.3554 132.78L2.44163 106.649C2.55665 103.881 2.90141 101.129 3.47231 98.4184L5.43615 89.0961C5.77549 87.4853 6.45583 85.9658 7.43139 84.6398C8.94465 82.5829 11.0979 81.0866 13.5533 80.3855L17.0504 79.387C17.5992 79.2303 18.0968 78.9312 18.4927 78.5201C18.9827 78.0111 19.626 77.6766 20.3241 77.5676L26.2419 76.6436C26.4451 76.6119 26.6352 76.5237 26.7907 76.3892C27.1377 76.089 27.2612 75.6046 27.1005 75.1749L25.1598 69.9853C24.3556 67.8346 24.3975 65.4588 25.2771 63.3378L25.7393 62.2234C26.3408 60.773 26.6548 59.2197 26.6641 57.6496L26.7113 49.6131L26.7232 47.578C26.7421 44.3663 27.0718 41.1566 27.7049 38.0079C28.366 34.7202 29.3577 31.4998 30.662 28.4103L35.0288 18.0665C35.9248 15.9442 37.0178 13.9106 38.2935 11.9925L40.6992 8.37537C41.9839 6.44367 43.6618 4.80481 45.6231 3.56587C48.2865 1.88353 51.376 0.999304 54.5261 1.0178Z" fill="black" stroke="white"/>
</svg>
