<svg width="146" height="195" viewBox="0 0 146 195" fill="none" xmlns="http://www.w3.org/2000/svg">
<path d="M63.7248 3.5312L62.8812 4.38409C61.0149 6.27098 60.2343 8.9769 60.8081 11.5703C61.1575 13.1491 61.0093 14.7967 60.3839 16.2867L58.0491 21.8495C56.6946 25.0768 55.9852 28.5388 55.9611 32.0401L55.9523 33.3113L51.8986 34.4026C51.0919 34.6198 50.2594 34.7265 49.4238 34.7198C47.7882 34.7066 46.179 35.128 44.7605 35.9407L43.9032 36.4319C43.406 36.7169 42.8766 36.9416 42.3262 37.1015C39.8152 37.831 37.8948 39.859 37.3031 42.4061L36.1913 47.1915C35.7678 49.0147 35.0202 50.7465 33.9841 52.3047L30.2362 57.9411L3.14963 108.053C1.60247 110.915 2.07718 114.451 4.32517 116.808C5.72944 118.28 7.6702 119.121 9.70363 119.137L20.2698 119.222C22.1159 119.237 23.9556 119.007 25.7406 118.538L36.1504 115.802C38.0173 115.312 39.9971 115.995 41.1658 117.533C42.0611 118.711 43.4518 119.408 44.9308 119.42L45.0615 119.421C47.8435 119.444 50.0832 121.717 50.064 124.499L49.7424 171.14C49.7315 172.71 49.4342 174.265 48.8651 175.728C45.5884 184.15 51.7655 193.255 60.806 193.327L105.853 193.69C115.029 193.763 122.519 186.385 122.582 177.209L122.604 174.122C122.615 172.451 123.18 170.831 124.21 169.516C124.665 168.936 125.202 168.425 125.804 168L138.207 159.259C138.894 158.775 139.514 158.203 140.052 157.558C141.487 155.841 142.28 153.677 142.296 151.438L142.437 130.976C142.442 130.181 142.85 129.443 143.521 129.016C144.252 128.55 144.666 127.717 144.597 126.852L142.634 102.309L140.952 92.2898C140.161 87.5821 138.223 83.1402 135.31 79.3564C133.562 77.0856 131.487 75.0853 129.154 73.4204L125.285 70.6592C121.297 67.8132 116.681 65.9733 111.831 65.2965L108.398 64.8174C106.375 64.535 104.434 63.8235 102.708 62.7304L101.56 62.0037C98.0875 59.806 95.9938 55.9729 96.0222 51.8659L96.0421 48.9806C96.0548 47.1329 96.9199 45.3956 98.3862 44.2729C99.3331 43.548 100.041 42.5563 100.42 41.4253L102.524 35.1468L104.242 26.8868C105.146 22.5372 104.66 18.0116 102.851 13.9504C101.051 9.90765 98.0316 6.52821 94.216 4.28598L93.5567 3.89857C89.9885 1.80177 85.9324 0.680403 81.7959 0.647136L70.927 0.559725C68.2227 0.537976 65.6255 1.60952 63.7248 3.5312Z" fill="black"/>
<path d="M27.3069 101.382L28.6809 92.8094M28.6809 92.8094L28.8232 91.9218C29.6394 86.8294 31.2388 81.895 33.5647 77.2935L35.3872 73.688L40.6449 65.8883C42.1727 63.6218 44.2799 61.8064 46.7476 60.6306V60.6306L52.4001 58.1194L59.1088 54.4116C59.3643 54.2704 59.686 54.3551 59.8393 54.6039L62.9518 59.656C64.0452 61.4308 66.1178 62.3502 68.1657 61.969L70.4319 61.5472C72.37 61.1864 74.1581 62.6832 74.1445 64.655L74.1375 65.6748C74.1294 66.8432 73.1757 67.7828 72.0073 67.7734V67.7734C71.6695 67.7707 71.3361 67.8489 71.0349 68.0015L62.4497 72.3512C60.4528 73.3629 58.2881 74.0027 56.0614 74.2393L55.548 74.2938C49.9599 74.8876 45.0024 78.1357 42.2286 83.0208V83.0208C40.4042 86.2338 37.6063 88.7836 34.238 90.3029L28.6809 92.8094ZM102.524 35.1468L104.242 26.8868C105.146 22.5372 104.66 18.0116 102.851 13.9504V13.9504C101.051 9.90765 98.0316 6.52821 94.216 4.28598L93.5567 3.89857C89.9885 1.80177 85.9324 0.680403 81.7959 0.647136L70.927 0.559725C68.2227 0.537976 65.6255 1.60952 63.7248 3.5312L62.8812 4.38409C61.0149 6.27098 60.2343 8.9769 60.8081 11.5703V11.5703C61.1575 13.1491 61.0093 14.7967 60.3839 16.2867L58.0491 21.8495C56.6946 25.0768 55.9852 28.5388 55.9611 32.0401L55.9523 33.3113L51.8986 34.4026C51.0919 34.6198 50.2594 34.7265 49.4238 34.7198V34.7198C47.7883 34.7066 46.179 35.128 44.7605 35.9407L43.9032 36.4319C43.406 36.7169 42.8766 36.9416 42.3262 37.1015V37.1015C39.8152 37.831 37.8948 39.859 37.3031 42.4061L36.1913 47.1915C35.7678 49.0147 35.0202 50.7465 33.9841 52.3047L30.2362 57.9411L3.14962 108.053C1.60247 110.915 2.07719 114.451 4.32517 116.808V116.808C5.72943 118.28 7.67021 119.121 9.70364 119.137L20.2698 119.222C22.1159 119.237 23.9556 119.007 25.7406 118.538L36.1504 115.802C38.0173 115.312 39.9971 115.995 41.1658 117.533V117.533C42.0611 118.711 43.4518 119.408 44.9308 119.42L45.0615 119.421C47.8435 119.444 50.0832 121.717 50.064 124.499L49.7424 171.14C49.7315 172.71 49.4342 174.265 48.8651 175.728V175.728C45.5884 184.15 51.7655 193.255 60.806 193.327L105.853 193.69C115.029 193.764 122.519 186.385 122.582 177.209L122.604 174.122C122.615 172.451 123.18 170.831 124.21 169.516V169.516C124.665 168.936 125.202 168.425 125.804 168L138.207 159.259C138.894 158.775 139.514 158.203 140.052 157.558V157.558C141.487 155.841 142.28 153.677 142.296 151.438L142.437 130.976C142.442 130.181 142.85 129.443 143.521 129.016V129.016C144.252 128.55 144.666 127.717 144.597 126.852L142.634 102.309L140.952 92.2898C140.161 87.5821 138.223 83.1402 135.31 79.3564V79.3564C133.562 77.0856 131.487 75.0853 129.154 73.4204L125.285 70.6592C121.297 67.8132 116.681 65.9733 111.831 65.2965L108.398 64.8174C106.375 64.535 104.434 63.8235 102.708 62.7304L101.56 62.0037C98.0875 59.806 95.9938 55.9729 96.0222 51.8659L96.0421 48.9806C96.0548 47.1329 96.9199 45.3956 98.3862 44.2729V44.2729C99.3331 43.5479 100.041 42.5563 100.42 41.4253L102.524 35.1468Z" stroke="white"/>
<path d="M59.01 58.6303L70.693 53.2461L73.3342 57.5955C73.7965 58.3568 74.4221 59.0061 75.1658 59.4963C75.8998 59.9801 76.7309 60.2972 77.6003 60.4251L77.9958 60.4833C78.6014 60.5724 79.2153 60.5899 79.8249 60.5356L81.5011 60.3863C82.2557 60.3191 83.011 60.5096 83.6439 60.9268C84.4489 61.4575 84.9869 62.3088 85.1205 63.2633L85.1889 63.7524C85.241 64.1247 85.1917 64.5041 85.0463 64.8506L85.0296 64.8904C84.712 65.6472 83.9686 66.1369 83.1475 66.1303C82.8056 66.1275 82.4687 66.2113 82.1681 66.3739L75.3289 70.0725C72.672 71.5093 69.7874 72.4786 66.801 72.9378L62.967 73.8861C60.7875 74.4251 58.768 75.4747 57.0751 76.9483C56.0265 77.8612 55.1181 78.9237 54.3794 80.1016L53.8829 80.8933C52.6858 82.8021 51.1816 84.4997 49.4309 85.9178L48.3244 86.814C47.5519 87.4397 46.7304 88.0024 45.8678 88.4966L41.7482 90.857C41.5898 90.9477 41.4101 90.9948 41.2274 90.9933C40.5879 90.9881 40.1064 90.4084 40.2188 89.779L41.3871 83.235C41.5061 82.569 41.7261 81.9253 42.0397 81.326L46.5154 72.7738L49.4828 67.8712C50.2895 66.5384 51.2141 65.2807 52.2455 64.1131C53.9787 62.1512 55.9978 60.4618 58.2348 59.1016L59.01 58.6303Z" fill="black"/>
</svg>
