<svg width="145" height="233" viewBox="0 0 145 233" fill="none" xmlns="http://www.w3.org/2000/svg">
<path d="M75.502 2.36227L75.1095 2.51136L74.3282 2.77989C71.6221 3.71003 69.0971 5.10098 66.8648 6.89129L65.1402 8.27439C63.2309 9.8056 61.7093 11.7651 60.6987 13.9941L57.5243 20.9951C57.0012 22.1488 57.1833 23.4998 57.993 24.4739C58.4865 25.0676 58.7567 25.8153 58.7567 26.5874V27.8242C58.7567 29.15 59.1484 30.4463 59.8825 31.5503L60.1484 31.9501C61.056 33.3149 61.5401 34.9173 61.5401 36.5562V38.2552C61.5401 40.7936 62.2332 43.2838 63.5445 45.4572L66.7591 50.7854C68.6754 53.3979 68.0927 57.0719 65.4621 58.9634L61.8236 61.5796C60.7179 62.3746 59.465 62.9418 58.138 63.2479L36.4541 68.2506C35.3409 68.5075 34.3246 69.0776 33.5251 69.8936L23.6063 80.0179C23.4825 80.1443 23.2676 80.0566 23.2676 79.8796C23.2676 79.8319 23.2503 79.7857 23.2189 79.7497L21.128 77.3542C20.9311 77.1286 20.7146 76.9209 20.4811 76.7336C19.5823 76.0128 18.4646 75.6199 17.3124 75.6199H3.19401C2.48594 75.6199 1.83541 76.0099 1.50169 76.6344C1.18963 77.2184 1.20069 77.922 1.53094 78.4958L6.74944 87.5638C7.0524 88.0902 6.96491 88.7544 6.53596 89.1844C6.13674 89.5846 6.0304 90.1918 6.26984 90.7039L7.95864 94.3157L8.74031 96.6665C9.12979 97.8379 9.02089 99.1178 8.4391 100.207C7.70741 101.576 7.73333 103.225 8.50769 104.571L8.67173 104.856C9.11635 105.629 9.35036 106.505 9.35036 107.396V111.058L10.1509 121.973C10.3129 124.181 10.633 126.375 11.1088 128.537L11.6815 131.14C12.2125 133.553 13.0723 135.882 14.2368 138.061C15.1517 139.773 16.2486 141.381 17.5085 142.858L20.1363 145.938L23.5856 149.1C24.5 149.938 25.6954 150.403 26.9358 150.403C27.7263 150.403 28.5053 150.214 29.2079 149.852L32.9758 147.909C32.9984 147.897 33.0197 147.883 33.0395 147.868C33.3361 147.63 33.7599 147.926 33.6384 148.286L30.8154 156.663C30.661 157.121 30.6955 157.622 30.9113 158.055C31.1398 158.513 31.1645 159.046 30.9794 159.523L27.6814 168.025C26.8317 170.215 26.3313 172.525 26.1984 174.871L25.7032 183.609L23.9635 194.77L21.2978 218.554C21.2234 219.218 21.4548 219.88 21.9268 220.353C22.3397 220.767 22.9004 221 23.485 221H122.776C123.975 221 124.994 220.121 125.169 218.935L126.856 207.533C127.149 205.553 127.062 203.536 126.602 201.589L124.678 193.463C123.04 186.545 124.706 179.259 129.187 173.74L129.878 172.888C131.164 171.305 132.152 169.502 132.796 167.567C133.074 166.729 133.418 165.914 133.824 165.13L138.887 155.348C140.2 152.81 141.118 150.086 141.608 147.271L142.373 142.87C142.755 140.679 142.525 138.426 141.711 136.357C141.154 134.944 140.869 133.439 140.869 131.92V128.917L141.912 117.476V114.709C141.912 113.997 142.268 113.332 142.86 112.936C143.554 112.472 143.914 111.645 143.78 110.821L142.956 105.756L142.081 87.5055C141.97 85.1922 141.339 82.9298 140.238 80.8922C138.407 77.5043 135.373 74.917 131.737 73.6491L122.059 70.2745C121.655 70.1335 121.384 69.7524 121.384 69.3245C121.384 68.9134 121.635 68.5437 122.016 68.3907L122.08 68.3649C122.501 68.1963 122.776 67.789 122.776 67.3361V64.5673C122.776 63.9468 122.934 63.3365 123.235 62.7937C123.819 61.7396 123.847 60.4655 123.309 59.3871L122.049 56.8625C121.609 55.9795 121.027 55.1747 120.326 54.4803L109.555 43.8093L105.759 40.5481C105.23 40.0929 105.301 39.2527 105.899 38.8927C106.015 38.8227 106.117 38.7302 106.197 38.6206L108.253 35.818C109.111 34.6483 109.707 33.3079 110.003 31.8877L110.362 30.1584C110.517 29.4148 110.457 28.6427 110.191 27.9314L109.91 27.1801C109.684 26.576 109.729 25.9038 110.033 25.3349C110.386 24.6736 110.386 23.8795 110.033 23.2181L109.177 21.6165C108.74 20.7981 108.511 19.8845 108.511 18.9565V17.9866C108.511 16.6153 108.215 15.2601 107.642 14.014L106.993 12.601C106.384 11.2751 105.603 10.0352 104.67 8.91317L104.404 8.59327C102.304 6.06674 99.6075 4.10334 96.5581 2.88053L95.3539 2.39766C93.2335 1.54737 91.0061 0.992973 88.7345 0.750065L88.3343 0.707267C83.9862 0.242314 79.5898 0.809328 75.502 2.36227Z" fill="#D9D9D9"/>
<path d="M75.502 2.36227L75.1095 2.51136L74.3282 2.77989C71.6221 3.71003 69.0971 5.10098 66.8648 6.89129L65.1402 8.27439C63.2309 9.8056 61.7093 11.7651 60.6987 13.9941L57.5243 20.9951C57.0012 22.1488 57.1833 23.4998 57.993 24.4739C58.4865 25.0676 58.7567 25.8153 58.7567 26.5874V27.8242C58.7567 29.15 59.1484 30.4463 59.8825 31.5503L60.1484 31.9501C61.056 33.3149 61.5401 34.9173 61.5401 36.5562V38.2552C61.5401 40.7936 62.2332 43.2838 63.5445 45.4572L66.7591 50.7854C68.6754 53.3979 68.0927 57.0719 65.4621 58.9634L61.8236 61.5796C60.7179 62.3746 59.465 62.9418 58.138 63.2479L36.4541 68.2506C35.3409 68.5075 34.3246 69.0776 33.5251 69.8936L23.6063 80.0179C23.4825 80.1443 23.2676 80.0566 23.2676 79.8796C23.2676 79.8319 23.2503 79.7857 23.2189 79.7497L21.128 77.3542C20.9311 77.1286 20.7146 76.9209 20.4811 76.7336C19.5823 76.0128 18.4646 75.6199 17.3124 75.6199H3.19401C2.48594 75.6199 1.83541 76.0099 1.50169 76.6344C1.18963 77.2184 1.20069 77.922 1.53094 78.4958L6.74944 87.5638C7.0524 88.0902 6.96491 88.7544 6.53596 89.1844C6.13674 89.5846 6.0304 90.1918 6.26984 90.7039L7.95864 94.3157L8.74031 96.6665C9.12979 97.8379 9.02089 99.1178 8.4391 100.207C7.70741 101.576 7.73333 103.225 8.50769 104.571L8.67173 104.856C9.11635 105.629 9.35036 106.505 9.35036 107.396V111.058L10.1509 121.973C10.3129 124.181 10.633 126.375 11.1088 128.537L11.6815 131.14C12.2125 133.553 13.0723 135.882 14.2368 138.061C15.1517 139.773 16.2486 141.381 17.5085 142.858L20.1363 145.938L23.5856 149.1C24.5 149.938 25.6954 150.403 26.9358 150.403C27.7263 150.403 28.5053 150.214 29.2079 149.852L32.9758 147.909C32.9984 147.897 33.0197 147.883 33.0395 147.868C33.3361 147.63 33.7599 147.926 33.6384 148.286L30.8154 156.663C30.661 157.121 30.6955 157.622 30.9113 158.055C31.1398 158.513 31.1645 159.046 30.9794 159.523L27.6814 168.025C26.8317 170.215 26.3313 172.525 26.1984 174.871L25.7032 183.609L23.9635 194.77L21.2978 218.554C21.2234 219.218 21.4548 219.88 21.9268 220.353C22.3397 220.767 22.9004 221 23.485 221H122.776C123.975 221 124.994 220.121 125.169 218.935L126.856 207.533C127.149 205.553 127.062 203.536 126.602 201.589L124.678 193.463C123.04 186.545 124.706 179.259 129.187 173.74L129.878 172.888C131.164 171.305 132.152 169.502 132.796 167.567C133.074 166.729 133.418 165.914 133.824 165.13L138.887 155.348C140.2 152.81 141.118 150.086 141.608 147.271L142.373 142.87C142.755 140.679 142.525 138.426 141.711 136.357C141.154 134.944 140.869 133.439 140.869 131.92V128.917L141.912 117.476V114.709C141.912 113.997 142.268 113.332 142.86 112.936C143.554 112.472 143.914 111.645 143.78 110.821L142.956 105.756L142.081 87.5055C141.97 85.1922 141.339 82.9298 140.238 80.8922C138.407 77.5043 135.373 74.917 131.737 73.6491L122.059 70.2745C121.655 70.1335 121.384 69.7524 121.384 69.3245C121.384 68.9134 121.635 68.5437 122.016 68.3907L122.08 68.3649C122.501 68.1963 122.776 67.789 122.776 67.3361V64.5673C122.776 63.9468 122.934 63.3365 123.235 62.7937C123.819 61.7396 123.847 60.4655 123.309 59.3871L122.049 56.8625C121.609 55.9795 121.027 55.1747 120.326 54.4803L109.555 43.8093L105.759 40.5481C105.23 40.0929 105.301 39.2527 105.899 38.8927C106.015 38.8227 106.117 38.7302 106.197 38.6206L108.253 35.818C109.111 34.6483 109.707 33.3079 110.003 31.8877L110.362 30.1584C110.517 29.4148 110.457 28.6427 110.191 27.9314L109.91 27.1801C109.684 26.576 109.729 25.9038 110.033 25.3349C110.386 24.6736 110.386 23.8795 110.033 23.2181L109.177 21.6165C108.74 20.7981 108.511 19.8845 108.511 18.9565V17.9866C108.511 16.6153 108.215 15.2601 107.642 14.014L106.993 12.601C106.384 11.2751 105.603 10.0352 104.67 8.91317L104.404 8.59327C102.304 6.06674 99.6075 4.10334 96.5581 2.88053L95.3539 2.39766C93.2335 1.54737 91.0061 0.992973 88.7345 0.750065L88.3343 0.707267C83.9862 0.242314 79.5898 0.809328 75.502 2.36227Z" fill="black"/>
<path d="M75.502 2.36227L75.1095 2.51136L74.3282 2.77989C71.6221 3.71003 69.0971 5.10098 66.8648 6.89129L65.1402 8.27439C63.2309 9.8056 61.7093 11.7651 60.6987 13.9941L57.5243 20.9951C57.0012 22.1488 57.1833 23.4998 57.993 24.4739C58.4865 25.0676 58.7567 25.8153 58.7567 26.5874V27.8242C58.7567 29.15 59.1484 30.4463 59.8825 31.5503L60.1484 31.9501C61.056 33.3149 61.5401 34.9173 61.5401 36.5562V38.2552C61.5401 40.7936 62.2332 43.2838 63.5445 45.4572L66.7591 50.7854C68.6754 53.3979 68.0927 57.0719 65.4621 58.9634L61.8236 61.5796C60.7179 62.3746 59.465 62.9418 58.138 63.2479L36.4541 68.2506C35.3409 68.5075 34.3246 69.0776 33.5251 69.8936L23.6063 80.0179C23.4825 80.1443 23.2676 80.0566 23.2676 79.8796C23.2676 79.8319 23.2503 79.7857 23.2189 79.7497L21.128 77.3542C20.9311 77.1286 20.7146 76.9209 20.4811 76.7336C19.5823 76.0128 18.4646 75.6199 17.3124 75.6199H3.19401C2.48594 75.6199 1.83541 76.0099 1.50169 76.6344C1.18963 77.2184 1.20069 77.922 1.53094 78.4958L6.74944 87.5638C7.0524 88.0902 6.96491 88.7544 6.53596 89.1844C6.13674 89.5846 6.0304 90.1918 6.26984 90.7039L7.95864 94.3157L8.74031 96.6665C9.12979 97.8379 9.02089 99.1178 8.4391 100.207C7.70741 101.576 7.73333 103.225 8.50769 104.571L8.67173 104.856C9.11635 105.629 9.35036 106.505 9.35036 107.396V111.058L10.1509 121.973C10.3129 124.181 10.633 126.375 11.1088 128.537L11.6815 131.14C12.2125 133.553 13.0723 135.882 14.2368 138.061C15.1517 139.773 16.2486 141.381 17.5085 142.858L20.1363 145.938L23.5856 149.1C24.5 149.938 25.6954 150.403 26.9358 150.403C27.7263 150.403 28.5053 150.214 29.2079 149.852L32.9758 147.909C32.9984 147.897 33.0197 147.883 33.0395 147.868C33.3361 147.63 33.7599 147.926 33.6384 148.286L30.8154 156.663C30.661 157.121 30.6955 157.622 30.9113 158.055C31.1398 158.513 31.1645 159.046 30.9794 159.523L27.6814 168.025C26.8317 170.215 26.3313 172.525 26.1984 174.871L25.7032 183.609L23.9635 194.77L21.2978 218.554C21.2234 219.218 21.4548 219.88 21.9268 220.353C22.3397 220.767 22.9004 221 23.485 221H122.776C123.975 221 124.994 220.121 125.169 218.935L126.856 207.533C127.149 205.553 127.062 203.536 126.602 201.589L124.678 193.463C123.04 186.545 124.706 179.259 129.187 173.74L129.878 172.888C131.164 171.305 132.152 169.502 132.796 167.567C133.074 166.729 133.418 165.914 133.824 165.13L138.887 155.348C140.2 152.81 141.118 150.086 141.608 147.271L142.373 142.87C142.755 140.679 142.525 138.426 141.711 136.357C141.154 134.944 140.869 133.439 140.869 131.92V128.917L141.912 117.476V114.709C141.912 113.997 142.268 113.332 142.86 112.936C143.554 112.472 143.914 111.645 143.78 110.821L142.956 105.756L142.081 87.5055C141.97 85.1922 141.339 82.9298 140.238 80.8922C138.407 77.5043 135.373 74.917 131.737 73.6491L122.059 70.2745C121.655 70.1335 121.384 69.7524 121.384 69.3245C121.384 68.9134 121.635 68.5437 122.016 68.3907L122.08 68.3649C122.501 68.1963 122.776 67.789 122.776 67.3361V64.5673C122.776 63.9468 122.934 63.3365 123.235 62.7937C123.819 61.7396 123.847 60.4655 123.309 59.3871L122.049 56.8625C121.609 55.9795 121.027 55.1747 120.326 54.4803L109.555 43.8093L105.759 40.5481C105.23 40.0929 105.301 39.2527 105.899 38.8927C106.015 38.8227 106.117 38.7302 106.197 38.6206L108.253 35.818C109.111 34.6483 109.707 33.3079 110.003 31.8877L110.362 30.1584C110.517 29.4148 110.457 28.6427 110.191 27.9314L109.91 27.1801C109.684 26.576 109.729 25.9038 110.033 25.3349C110.386 24.6736 110.386 23.8795 110.033 23.2181L109.177 21.6165C108.74 20.7981 108.511 19.8845 108.511 18.9565V17.9866C108.511 16.6153 108.215 15.2601 107.642 14.014L106.993 12.601C106.384 11.2751 105.603 10.0352 104.67 8.91317L104.404 8.59327C102.304 6.06674 99.6075 4.10334 96.5581 2.88053L95.3539 2.39766C93.2335 1.54737 91.0061 0.992973 88.7345 0.750065L88.3343 0.707267C83.9862 0.242314 79.5898 0.809328 75.502 2.36227Z" stroke="white"/>
<g filter="url(#filter0_f_1606_190)">
<path d="M22 213H124V228H22V213Z" fill="black"/>
</g>
<defs>
<filter id="filter0_f_1606_190" x="17" y="208" width="112" height="25" filterUnits="userSpaceOnUse" color-interpolation-filters="sRGB">
<feFlood flood-opacity="0" result="BackgroundImageFix"/>
<feBlend mode="normal" in="SourceGraphic" in2="BackgroundImageFix" result="shape"/>
<feGaussianBlur stdDeviation="2.5" result="effect1_foregroundBlur_1606_190"/>
</filter>
</defs>
</svg>
