<svg width="144" height="233" viewBox="0 0 144 233" fill="none" xmlns="http://www.w3.org/2000/svg">
<path d="M69.0154 2.36087L69.4088 2.51136L70.1634 2.77258C72.8645 3.70751 75.3829 5.10399 77.6065 6.89989L79.289 8.25875C81.1977 9.80031 82.7171 11.7692 83.7243 14.0064L86.8728 20.9992C87.3916 22.1515 87.2107 23.4985 86.4062 24.4731C85.9156 25.0675 85.6472 25.8143 85.6472 26.585V27.8247C85.6472 29.1505 85.2577 30.4471 84.5271 31.5535L84.2652 31.9501C83.3638 33.3152 82.8832 34.915 82.8832 36.5509V38.2556C82.8832 40.7943 82.1941 43.2853 80.8894 45.4631L77.7007 50.7854C75.7941 53.4031 76.376 57.0715 78.999 58.9708L82.586 61.5682C83.6943 62.3707 84.9518 62.9436 86.2846 63.2533L107.79 68.2499C108.898 68.5072 109.908 69.0772 110.701 69.8921L120.55 80.0163C120.673 80.1429 120.888 80.0557 120.888 79.879C120.888 79.8316 120.905 79.7859 120.936 79.7501L123.014 77.3524C123.209 77.128 123.423 76.9213 123.654 76.7348C124.547 76.0134 125.66 75.6199 126.808 75.6199H140.809C141.52 75.6199 142.172 76.0121 142.504 76.6394C142.813 77.2208 142.802 77.9196 142.475 78.4911L137.29 87.5654C136.989 88.0917 137.076 88.7538 137.503 89.1844C137.9 89.5851 138.005 90.1905 137.768 90.7021L136.09 94.3157L135.313 96.668C134.927 97.8391 135.035 99.1172 135.613 100.207C136.34 101.577 136.314 103.224 135.545 104.571L135.382 104.855C134.94 105.629 134.708 106.504 134.708 107.394V111.058L133.913 121.977C133.752 124.182 133.435 126.373 132.963 128.534L132.391 131.149C131.865 133.556 131.013 135.88 129.858 138.057C128.948 139.772 127.856 141.383 126.601 142.865L123.998 145.938L120.567 149.104C119.663 149.939 118.477 150.403 117.246 150.403C116.461 150.403 115.687 150.214 114.99 149.852L111.248 147.909C111.225 147.897 111.204 147.883 111.185 147.868C110.89 147.63 110.468 147.923 110.588 148.282L113.393 156.663C113.547 157.122 113.512 157.622 113.298 158.055C113.071 158.513 113.046 159.046 113.23 159.523L116.505 168.024C117.349 170.215 117.846 172.525 117.978 174.869L118.47 183.609L120.197 194.77L122.845 218.563C122.918 219.222 122.69 219.879 122.223 220.35C121.811 220.766 121.25 221 120.664 221H22.0754C20.8848 221 19.8742 220.127 19.7011 218.949L18.0212 207.513C17.7323 205.546 17.8175 203.543 18.2724 201.608L20.1952 193.43C21.8176 186.528 20.1641 179.265 15.7145 173.746L15.0278 172.894C13.748 171.307 12.765 169.502 12.1257 167.566C11.8493 166.729 11.508 165.914 11.105 165.13L6.0818 155.356C4.77454 152.813 3.8618 150.085 3.37494 147.267L2.61465 142.867C2.23642 140.677 2.46414 138.426 3.27316 136.357C3.82585 134.944 4.1095 133.44 4.1095 131.922V128.917L3.073 117.476V114.704C3.073 113.995 2.72011 113.332 2.13161 112.936C1.44177 112.472 1.0849 111.649 1.21747 110.828L2.0365 105.756L2.90665 87.4843C3.01616 85.1846 3.6451 82.9249 4.73361 80.8961C6.54674 77.5168 9.57101 74.9154 13.1894 73.6448L22.783 70.276C23.187 70.1341 23.4574 69.7526 23.4574 69.3244C23.4574 68.9132 23.2078 68.5431 22.8265 68.3892L22.7664 68.3649C22.3488 68.1963 22.0754 67.791 22.0754 67.3406V64.5663C22.0754 63.9463 21.9187 63.3364 21.6198 62.7932C21.0394 61.7386 21.012 60.4667 21.5462 59.388L22.7946 56.8674C23.2335 55.9811 23.8146 55.1727 24.5147 54.4742L35.2044 43.8093L38.9754 40.5461C39.5019 40.0906 39.4311 39.2541 38.8357 38.8934C38.7193 38.8229 38.6181 38.73 38.538 38.62L36.5016 35.8241C35.6467 34.6502 35.0525 33.3071 34.7591 31.8849L34.4026 30.1577C34.2492 29.4144 34.308 28.6429 34.5723 27.9314L34.8516 27.1795C35.076 26.5754 35.0316 25.9042 34.7295 25.3349C34.3783 24.673 34.3783 23.88 34.7295 23.2181L35.579 21.6172C36.0136 20.7982 36.2409 19.8851 36.2409 18.9579V17.9864C36.2409 16.615 36.5354 15.2596 37.1046 14.0119L37.7463 12.6051C38.3524 11.2765 39.1302 10.0331 40.0599 8.90688L40.3131 8.60011C42.4022 6.06925 45.0901 4.10008 48.1331 2.87127L49.2976 2.40102C51.4086 1.54856 53.6274 0.992525 55.891 0.748774L56.275 0.707421C60.5928 0.242454 64.9593 0.80914 69.0154 2.36087Z" fill="#D9D9D9"/>
<path d="M69.0154 2.36087L69.4088 2.51136L70.1634 2.77258C72.8645 3.70751 75.3829 5.10399 77.6065 6.89989L79.289 8.25875C81.1977 9.80031 82.7171 11.7692 83.7243 14.0064L86.8728 20.9992C87.3916 22.1515 87.2107 23.4985 86.4062 24.4731C85.9156 25.0675 85.6472 25.8143 85.6472 26.585V27.8247C85.6472 29.1505 85.2577 30.4471 84.5271 31.5535L84.2652 31.9501C83.3638 33.3152 82.8832 34.915 82.8832 36.5509V38.2556C82.8832 40.7943 82.1941 43.2853 80.8894 45.4631L77.7007 50.7854C75.7941 53.4031 76.376 57.0715 78.999 58.9708L82.586 61.5682C83.6943 62.3707 84.9518 62.9436 86.2846 63.2533L107.79 68.2499C108.898 68.5072 109.908 69.0772 110.701 69.8921L120.55 80.0163C120.673 80.1429 120.888 80.0557 120.888 79.879C120.888 79.8316 120.905 79.7859 120.936 79.7501L123.014 77.3524C123.209 77.128 123.423 76.9213 123.654 76.7348C124.547 76.0134 125.66 75.6199 126.808 75.6199H140.809C141.52 75.6199 142.172 76.0121 142.504 76.6394C142.813 77.2208 142.802 77.9196 142.475 78.4911L137.29 87.5654C136.989 88.0917 137.076 88.7538 137.503 89.1844C137.9 89.5851 138.005 90.1905 137.768 90.7021L136.09 94.3157L135.313 96.668C134.927 97.8391 135.035 99.1172 135.613 100.207C136.34 101.577 136.314 103.224 135.545 104.571L135.382 104.855C134.94 105.629 134.708 106.504 134.708 107.394V111.058L133.913 121.977C133.752 124.182 133.435 126.373 132.963 128.534L132.391 131.149C131.865 133.556 131.013 135.88 129.858 138.057C128.948 139.772 127.856 141.383 126.601 142.865L123.998 145.938L120.567 149.104C119.663 149.939 118.477 150.403 117.246 150.403C116.461 150.403 115.687 150.214 114.99 149.852L111.248 147.909C111.225 147.897 111.204 147.883 111.185 147.868C110.89 147.63 110.468 147.923 110.588 148.282L113.393 156.663C113.547 157.122 113.512 157.622 113.298 158.055C113.071 158.513 113.046 159.046 113.23 159.523L116.505 168.024C117.349 170.215 117.846 172.525 117.978 174.869L118.47 183.609L120.197 194.77L122.845 218.563C122.918 219.222 122.69 219.879 122.223 220.35C121.811 220.766 121.25 221 120.664 221H22.0754C20.8848 221 19.8742 220.127 19.7011 218.949L18.0212 207.513C17.7323 205.546 17.8175 203.543 18.2724 201.608L20.1952 193.43C21.8176 186.528 20.1641 179.265 15.7145 173.746L15.0278 172.894C13.748 171.307 12.765 169.502 12.1257 167.566C11.8493 166.729 11.508 165.914 11.105 165.13L6.0818 155.356C4.77454 152.813 3.8618 150.085 3.37494 147.267L2.61465 142.867C2.23642 140.677 2.46414 138.426 3.27316 136.357C3.82585 134.944 4.1095 133.44 4.1095 131.922V128.917L3.073 117.476V114.704C3.073 113.995 2.72011 113.332 2.13161 112.936C1.44177 112.472 1.0849 111.649 1.21747 110.828L2.0365 105.756L2.90665 87.4843C3.01616 85.1846 3.6451 82.9249 4.73361 80.8961C6.54674 77.5168 9.57101 74.9154 13.1894 73.6448L22.783 70.276C23.187 70.1341 23.4574 69.7526 23.4574 69.3244C23.4574 68.9132 23.2078 68.5431 22.8265 68.3892L22.7664 68.3649C22.3488 68.1963 22.0754 67.791 22.0754 67.3406V64.5663C22.0754 63.9463 21.9187 63.3364 21.6198 62.7932C21.0394 61.7386 21.012 60.4667 21.5462 59.388L22.7946 56.8674C23.2335 55.9811 23.8146 55.1727 24.5147 54.4742L35.2044 43.8093L38.9754 40.5461C39.5019 40.0906 39.4311 39.2541 38.8357 38.8934C38.7193 38.8229 38.6181 38.73 38.538 38.62L36.5016 35.8241C35.6467 34.6502 35.0525 33.3071 34.7591 31.8849L34.4026 30.1577C34.2492 29.4144 34.308 28.6429 34.5723 27.9314L34.8516 27.1795C35.076 26.5754 35.0316 25.9042 34.7295 25.3349C34.3783 24.673 34.3783 23.88 34.7295 23.2181L35.579 21.6172C36.0136 20.7982 36.2409 19.8851 36.2409 18.9579V17.9864C36.2409 16.615 36.5354 15.2596 37.1046 14.0119L37.7463 12.6051C38.3524 11.2765 39.1302 10.0331 40.0599 8.90688L40.3131 8.60011C42.4022 6.06925 45.0901 4.10008 48.1331 2.87127L49.2976 2.40102C51.4086 1.54856 53.6274 0.992525 55.891 0.748774L56.275 0.707421C60.5928 0.242454 64.9593 0.80914 69.0154 2.36087Z" fill="black"/>
<path d="M69.0154 2.36087L69.4088 2.51136L70.1634 2.77258C72.8645 3.70751 75.3829 5.10399 77.6065 6.89989L79.289 8.25875C81.1977 9.80031 82.7171 11.7692 83.7243 14.0064L86.8728 20.9992C87.3916 22.1515 87.2107 23.4985 86.4062 24.4731C85.9156 25.0675 85.6472 25.8143 85.6472 26.585V27.8247C85.6472 29.1505 85.2577 30.4471 84.5271 31.5535L84.2652 31.9501C83.3638 33.3152 82.8832 34.915 82.8832 36.5509V38.2556C82.8832 40.7943 82.1941 43.2853 80.8894 45.4631L77.7007 50.7854C75.7941 53.4031 76.376 57.0715 78.999 58.9708L82.586 61.5682C83.6943 62.3707 84.9518 62.9436 86.2846 63.2533L107.79 68.2499C108.898 68.5072 109.908 69.0772 110.701 69.8921L120.55 80.0163C120.673 80.1429 120.888 80.0557 120.888 79.879C120.888 79.8316 120.905 79.7859 120.936 79.7501L123.014 77.3524C123.209 77.128 123.423 76.9213 123.654 76.7348C124.547 76.0134 125.66 75.6199 126.808 75.6199H140.809C141.52 75.6199 142.172 76.0121 142.504 76.6394C142.813 77.2208 142.802 77.9196 142.475 78.4911L137.29 87.5654C136.989 88.0917 137.076 88.7538 137.503 89.1844C137.9 89.5851 138.005 90.1905 137.768 90.7021L136.09 94.3157L135.313 96.668C134.927 97.8391 135.035 99.1172 135.613 100.207C136.34 101.577 136.314 103.224 135.545 104.571L135.382 104.855C134.94 105.629 134.708 106.504 134.708 107.394V111.058L133.913 121.977C133.752 124.182 133.435 126.373 132.963 128.534L132.391 131.149C131.865 133.556 131.013 135.88 129.858 138.057C128.948 139.772 127.856 141.383 126.601 142.865L123.998 145.938L120.567 149.104C119.663 149.939 118.477 150.403 117.246 150.403C116.461 150.403 115.687 150.214 114.99 149.852L111.248 147.909C111.225 147.897 111.204 147.883 111.185 147.868C110.89 147.63 110.468 147.923 110.588 148.282L113.393 156.663C113.547 157.122 113.512 157.622 113.298 158.055C113.071 158.513 113.046 159.046 113.23 159.523L116.505 168.024C117.349 170.215 117.846 172.525 117.978 174.869L118.47 183.609L120.197 194.77L122.845 218.563C122.918 219.222 122.69 219.879 122.223 220.35C121.811 220.766 121.25 221 120.664 221H22.0754C20.8848 221 19.8742 220.127 19.7011 218.949L18.0212 207.513C17.7323 205.546 17.8175 203.543 18.2724 201.608L20.1952 193.43C21.8176 186.528 20.1641 179.265 15.7145 173.746L15.0278 172.894C13.748 171.307 12.765 169.502 12.1257 167.566C11.8493 166.729 11.508 165.914 11.105 165.13L6.0818 155.356C4.77454 152.813 3.8618 150.085 3.37494 147.267L2.61465 142.867C2.23642 140.677 2.46414 138.426 3.27316 136.357C3.82585 134.944 4.1095 133.44 4.1095 131.922V128.917L3.073 117.476V114.704C3.073 113.995 2.72011 113.332 2.13161 112.936C1.44177 112.472 1.0849 111.649 1.21747 110.828L2.0365 105.756L2.90665 87.4843C3.01616 85.1846 3.6451 82.9249 4.73361 80.8961C6.54674 77.5168 9.57101 74.9154 13.1894 73.6448L22.783 70.276C23.187 70.1341 23.4574 69.7526 23.4574 69.3244C23.4574 68.9132 23.2078 68.5431 22.8265 68.3892L22.7664 68.3649C22.3488 68.1963 22.0754 67.791 22.0754 67.3406V64.5663C22.0754 63.9463 21.9187 63.3364 21.6198 62.7932C21.0394 61.7386 21.012 60.4667 21.5462 59.388L22.7946 56.8674C23.2335 55.9811 23.8146 55.1727 24.5147 54.4742L35.2044 43.8093L38.9754 40.5461C39.5019 40.0906 39.4311 39.2541 38.8357 38.8934C38.7193 38.8229 38.6181 38.73 38.538 38.62L36.5016 35.8241C35.6467 34.6502 35.0525 33.3071 34.7591 31.8849L34.4026 30.1577C34.2492 29.4144 34.308 28.6429 34.5723 27.9314L34.8516 27.1795C35.076 26.5754 35.0316 25.9042 34.7295 25.3349C34.3783 24.673 34.3783 23.88 34.7295 23.2181L35.579 21.6172C36.0136 20.7982 36.2409 19.8851 36.2409 18.9579V17.9864C36.2409 16.615 36.5354 15.2596 37.1046 14.0119L37.7463 12.6051C38.3524 11.2765 39.1302 10.0331 40.0599 8.90688L40.3131 8.60011C42.4022 6.06925 45.0901 4.10008 48.1331 2.87127L49.2976 2.40102C51.4086 1.54856 53.6274 0.992525 55.891 0.748774L56.275 0.707421C60.5928 0.242454 64.9593 0.80914 69.0154 2.36087Z" stroke="white"/>
<g filter="url(#filter0_f_1606_188)">
<path d="M124 213H19V228H124V213Z" fill="black"/>
</g>
<defs>
<filter id="filter0_f_1606_188" x="14" y="208" width="115" height="25" filterUnits="userSpaceOnUse" color-interpolation-filters="sRGB">
<feFlood flood-opacity="0" result="BackgroundImageFix"/>
<feBlend mode="normal" in="SourceGraphic" in2="BackgroundImageFix" result="shape"/>
<feGaussianBlur stdDeviation="2.5" result="effect1_foregroundBlur_1606_188"/>
</filter>
</defs>
</svg>
